<mxfile host="www.draw.io" modified="2020-01-03T01:57:50.643Z" agent="Mozilla/5.0 (Macintosh; Intel Mac OS X 10_13_6) AppleWebKit/537.36 (KHTML, like Gecko) Chrome/79.0.3945.88 Safari/537.36" etag="9bIThKZWd4q2bxnylSaC" version="12.4.8" type="github">
  <diagram id="WI0yhoXOUgDhwb_qnROr" name="Page-1">
    <mxGraphModel dx="1186" dy="680" grid="1" gridSize="10" guides="1" tooltips="1" connect="1" arrows="1" fold="1" page="1" pageScale="1" pageWidth="827" pageHeight="1169" math="0" shadow="0">
      <root>
        <mxCell id="0"/>
        <mxCell id="1" parent="0"/>
        <mxCell id="gPfxByz2WxMvdibVRMh3-1" value="turnstile" style="shape=image;verticalLabelPosition=bottom;labelBackgroundColor=#ffffff;verticalAlign=top;aspect=fixed;imageAspect=0;image=data:image/png,iVBORw0KGgoAAAANSUhEUgAAAyAAAAHdCAMAAADSPe20AAACl1BMVEUREBExMTFUVFRnZmZwcG+UlJSampq1sa66ubmoqajCwsKwsLCoqamhoaCnt6aura22t7a9vb3GxsXOzc3W1tXW1tbb29va2dnY2Nfg4N/h4eHl5eXm5ubo6Ojq6un9/f329/Xw8PDt7e3t7e3u7u7q6uru7u7p6ent7e3s7Ozt7e3u7u7u7u7u7u7Nzc3u7u7X1tbv7+/f39/v7+/j4+Pu7+7t7e3v7+/w8PDx8fHy8vL19fX29vb6+vr19fX19fXt7e3s7Ozz8/P09PT29vb6+vr8/fz7+/v+/v79/f3////4+Pjx8fHv7+/q6urp4uno6Ojm5ubl5eXj4+Pg4ODh0OHh4eHe3t7b2tjc3Nza2trZ2dnV1NPY19bX19fV1dXVxtTU1NTS0tLQ0NDPz8/R0M7NzMrNzc3KyMbMzMzKysrIyMjItcnHx8fDw8PFxcXGwsDCwsLAwMDBv7y/v7+9vb28vLy6urq+u7e4uLi6trO1tbW0tLS3t7e3s7C1sa22pLexsbGysrKwrKmxq6iyrquvr6+urq6srKyrq6upqamoqKimpqasqKWrpqKppKGnop+kpKSZ05WioqGfn5+dnZ2koJubm5qhnZqfmpaZmZiXl5ealZGTk5OVlZWTjoqSkpGQkJCNjY2KioqKiYiIhYGFhYWFm4LXclqDgoF+fXyAgH96enp7eHV1dXRxcG9ra2toeWRcoVRAoDpK+DxZ90xj/VV75HJjvFlnkGJlZWSKYFpgYF93UldeXl5dXFxZWlpYWFhXV1dWVlZUVVRUU1NRUVFQUFBPT09OTk5MTExNTU1LS0tISEhKSkpHR0dERERCQUI+Pj44ODguXSssLCwnEygnJyYfHx8ZFxkKCQkEBAQAAADaH5/RAAAAQHRSTlP+/uTt7fbs6aFzjLXI2+v2+vXz8fjx4PH5/vb9+O789v79/PXq4tfQxLaikH9tdF1dUUhEOjYtJh4YEw4JBQIApbMe9wABKN1JREFUeNrs/XecXfdZJ46/n+dzyq1TNaNmuVvSyGN1We52nIQ0UpyQkCWQAAksCSVhl+W3u+wX2CzLsvRAQoAAIUAgARKyhCSYkNixnTiyujRWl6xiW2U09ZbTP8/vj3Num7lTJcUj6T6vOJpy595zPufz/jz9/dDDaElLWjKVcGsJWtKSFkBa0pIWQFrSkhZAWtKSFkBa0pIWQFrSkhZAWtKSFkBa0pIWQFrSkhZAWtKSlrQA0pKWtADSkpa0ANKSlrQA0pKWtADSkpa0ANKSlrQA0pKWtADSkpa0ANKSlrQA0pKWtKQFkJa0pAWQlrSkBZCWtKQFkJa0pAWQlrSkBZCWtKQFkJa0pAWQlrSkBZCWtKQlLYC0pCUtgLSkJS2AtKQlLYC0pCUtgLSkJS2AtKQlLYC0pCUtgLSkJS2AtKQlLYC0pCUtaQGkJS1pAaQlLWkBpCUtaQGkJS1pAaQlLWkBpCUtaQGkJS1pAaQlLWkBpCUtaUkLIC1pSQsgLWlJCyAtaUkLIC1pSQsgLWlJCyAtaclVIvRwaw2uVwlCraEZzGyo1nK0ANKSikTlQ+qTmVxamUSkwzAc1YWf1qtTZmtpWgBpych/XrrIFAl1EAEAMZTJTAiHLvxEX7a1Pi2AXNey/Z97yXMiAEIk9b9RaYu8F394Tbq1SC2AXI+iAfD27eFopDTFT78eIAQARo6dB9a3INICyHWIDwagP7zqIkFYmoADICGRbKr8YH++tV6xtMK81436YA2tecwTEIEgNVgQVV8moOKQ7Pz0B4qtJWsB5Pp70JwtmRk/IiDGCNW0BwARAFAUDJXXf+rnd3itVWsB5HpyQBisw9tPZ3vZiyAQAsA17SEgEBERhIMh75by77Ug0vJBrisPRANnPgHcrINx31BCJI1hLAIQ4waASJs5/vrVmZYGacl186DzOYhAr93UvYi9kEjq8FHxRGKri0BUGEoX/3iX09IgLbl+zKzo3bfiJgBr90VuERakTnc0irAQdHrrsyd+fGtLg7TkurCymPH0CTIZ2IcN9/akfD9RFhMQQkTEIIC9J9Vd3i9tC1oapCXXhfhrxrtes9qMNIC12FN02NSsqeqmC03WJtK+/sk3rTVbAGnJtS/eOvYLS+/rsySMITLuwVDQPLWtBQjaNjz5pn67BZCWXPsAidK66CzefEdXBSLReGioWHk0RQclEHnmxG91tgDSkmtb3I3aEDKGnNzmjV2IIbLPK4ZTN4SQxP8nmS37jr1nE7cA0pJrHCCAgMIh81Vb0okW2ReMhyZPBZBqsoTa1n3zDVtbAGnJtSvOBqZ41yMcyd63Lk99+4C12OeWI1ZoZmYlKoSEBNKx7utvXWu1ANKSaxUgm7RRcSwQjmQ3rlquEohE5bIyZTp8kJBwft1Tj97Z3gJIS65JKd/jGwJCvN3hFPXqzXckEMHuos9qAjTq90ritec27j32q50tgLTkGpSo+CpfCEKAEJfDMFcIV75mMfXtA7B2ny65bCROB0EmQCPGB4u2smv/6Zc7WwBpybUnYenQzzhx6FZKd71q+9N+NojW3b2cktzh7kJAZrUCRSYlRggirEHtOP7uzaoFkJZce26If+RDXggiDL777c8Pn/nuubSv19x1R5Je3yfhmJhx7Iqm2jWahPPrvv7YHfkWQFpyzYnnHvkpB0Tn374xMBAe+tdCOggX33uXGWlgLbDPLZIB0kQyKaxFAtIUezF5Izrya+0tgLTkWoTIh8ri5n4027dn/UF/73eG8npsxSNvP5gYWvucMgwSCE8Ma4nSICTNiNpO49D/bm8BpCXXnqHlHvuQN2a+4Z0HtGb2936jmBN3+YPvOKTj3OFetywGQ1OD/5EoESGKOxJFzHv3HXvPlhZAWnIt+iI/faF426YbuuCvPzB++PAJk4o33XdrJkmv7w3LvqEEE4JYVTItiplRtJFb+4Uf6s+2ANKSa9HQGiymHt5qrdmreM0Xv3k+RcX2LVsrENkXFQJTyfQbSHOk8mv3PP87uRZAWnItuuvj4/mH1tlr9rCx5gvfOZ02R3KvWWsnEMHuYmCoiqElRHpSYIuEKKL0pj37fqe9BZCWXIuG1vBI5yPrDR2tO9j3hW+ctVOl/H2bU5LkDqOSzyZF1Ghf1fskAAl0asu+ox9tbwGkJdeauN6Rn7k4tvye5Ys4XHvQO3Ryn06NdT1yY09cxzigteNJ3L0eB7UalUgVNNq8Z++h965NtwByHVoifniMiDwIwdbRSrasaymJ7DtHPjRYtO+9uw0hKzn/9cOW6ai++5YnEOnf6xXZYM0yOexbAwqLtlNrdz/Yl24B5DqS0DkQ/V1bOitKBBogYpGoNFL44B3t1xREfmqskL5naybSMKOXnj1gtA3L/Zu7kmp47HUcNkjq6rNq1lVVlQCQzMYd99yVbwHkOpGRg/+wJKVdP9T1P2UoK62CMz/Sd+3Qqrneo1wYMR/ZmKFg7QF99JnTuq2kNty9GEnucK/rwJisQOpS7SQgEUlv3rfrY/kWQK4D43zgM7dRwUuwwQ0YAWvOZgpv6L9mmoe8VaWlqfGLi+6+tZdDMcPjZ/aMtY2rh+5YWqlA2Rs4oTFdyy3FJphObdnz/Ac2GC2AXMuiUfgzyxvTE37MMU16IlbXhf90rVR9l1Z4Xm+PNVzUa1+1CAGZKH3nmShfliUP9RlhUoESFSIrCfVOVcxIAuj0poHh199ltwByDYvzMXN40g8tjLaFVp3B1Wlt3nJtMEaVbi0QvMVLuDCq7l3XzSEMDO/a7nWVirffd4cRamAtBnRU0OaECpQmNpeQzivnvmtgEk8LIFNpkD3fOTvBpjJMOOfyWePA8ryOtQmgjUVDP39NeOulG10BgbsWcemC8cC9OfTtMzH8rT2S9YOb7ltp6Gp6XStTV8hOpsaIZE33kaue/LoFkKkA8oY3DDa6HVnnbHa7Ht/Sd7StNxJfJ9a47opefWfq6r/h4o2eQDNBZRZlShez9930uoN9+wz90ql957NRsW/zLak4vT6gI89lQ6qGVjNfhISAKGcG+69yMq0WQKYCSP+PlOvdDaQuPnNTjg533sptKIXabqv8SltdY6+7+utZCzeEEViDSYLuJeZIATe9bjkFYiLc9a1iznO67t1i6xBYi4H+vV5ZGc0NLULSRCIECrMb8fW3rjNbALn2ALL93yOvjtxbp89dXFx8YfiO09rTbK9bCiRj/wCdy2/aerUzqhXa06LjYJ0C5Zap8lB014NLdSSGGj/wdKEzGO15dI1VhYjjKAPTJA4BkGYNynHh1euNFkCuNdn2D4uLYR37vbZtV/39wK1tZq6ze1HG1VzBBwBedO4Xr3JPpLA8iireFhTcpb2qfFHf9fBihLLugPfck2FWFxc9sN7Sa/atBQb69zoum5NLs+oyh5V/cuueesPVaoW2ADKVBtn5913w/SpCNANQF/yUylk23GDC4AjdrR6866oOZxWW6Qic6BAwgds70s6gcd+djx4ItcGj+/efzfLoklffblMfsG/tQP9ez9NWUw99wo+QVe69d+VaALmWALL8hzuhEdQrEeiMFegobPp6q+viR65mf7TQkYrqv2cCpRdnikO0/MG3HwhFcXj4iXM5LqXX3L8IffvWAsC+sAgz1hkJmVANJ0m8N/6NZNfvPfFDm66+gTQtgEwFkPBXlo1pZj8A6/ixatbTPF6NLvMqzonoUqcdNf6ICZRdqtzR8Ob7HjsQYu2B8NCTg1k1bjy4sR0B1gIY0EE5soxICCDohnJ4rQQEDRYBQWyTz//L9hZArhUJ1r3+Fq/ESnuxt6G55pVPIdwz/OGr1ROJlji6seBMA1DwlnTZ3gW56bUrqG/f2oPB/m+M5FXRvGdru0Q6hkhUABuSuOVUcUPipSIGNHEoRIg4s+4bb77KQlotgEx1ogYr+A1rrFFm+OEsDQMOe/DgXVdndVZ4w7Chm/xcwe1ZlPYuYPOGXnPNXqX8vfteQno0++jKdlWBSOD7bExIHYqYIIm0ZpN8E1qDIJxWY6/ty7YAci1okDV+YcljS0eFod3Zms461THyuqtyQECwYnRSOWYFIpTtyZQuoufhHzywZp+BNf/0nZNGqmguv28VhxprgQEtZZ9NqXfRoyzKFIUiyjiDnqzAQAQhnVu358SvdLYAcvUD5NaUHk2/dbVbViRBOAuExDsqn9n1Z1dhTsRfXuCJJlY9RBbbpbFw+YN3mFFExpov7jpot41G/fctp9hdH+jfUw6VqWvvYQwPdQMMtspDWKFFEbEmCNjchC9eNRBpAWQqXSArOVKj+r5H1bhWCIJZKJF4d1ydORHvhhIma5AaRPzeHtMbcm94pI8CIWPNF5980U6Xo9tedSNVEiN7nIANsI7DV6nnVfdQ5b26AYaZjmILTKvM2sffsrUFkKsaIChsEuFwbMWbl5R9oijQPDt8aCyiLZuuNk/Eu7EAPcU9xdl1t6c7412MVm6+xVqzh43w4L7T5Y6CbN642JQw0SK+r00VEYRAjopCaKCGkqEVaT9ubBfO8EtvuRr611sAmVLGtvoAYZTfsFnGmMgPmPW0AEmgxdrsGv7Zqywn4txclOnvjkS3d2ed89x530azb8/6A3r0me1oL0a99773kF4DAAP9+/wyrFj3ECIdQbmD6M4FKvIJOm8kkWSBILd2z9Ffz7cAcjUDhDWIHOeOt7SNEjgMdHOI1KuWWM/oDmvPJ61rCiBgzRTkl2TLhdKSh/rMUMiU89t2oas8fuP9fZaOtQh0UJYYIoCI6NIQVpAATJZEUd0CaoM37zv4a50tgFy1AAniGQAy2vbYbW6ZSQI9ufV2CgvN6B75matJiTgrnBkAAgBKONdrByOF3kfXGGv2rT0oZ79xFPmguPSRd1W0CHRQFjOuYmSIBGwiCW9FStfbbiL2JizwSTwtgEwphfuLiKfzFbT9xjXGOJj8cGZsJGpEd5r3XUU5kfIKdwYTC3GNlvidPenoonvLPbfbCGHgzJ7DhXw4fsuDt9roiyEShV5oKg0IlDYoYF1RrRMrtcTYgi++pz/dAsjVJ37pAScO5Sx5wZUb3rykoKFCf4ZyIs2ak1Sy3T7+mqsmJ1Ja4c1Cg7AGlOhMb967INm777OjaN1BuM8+W+pwg+z6h9MSQ6Qfe0qRqTSEtKKIWDM0OKI6/SsgsBbwVuzZ84fZFkCuOglLenPEKNz43mNfdEm9Y41XJo7LF6eLaMV7gIQizqX3/9FVwjBXWhbOoEFqv1WIMkuyTrHQ+eBdGYRrD1Bh/7ecNimkH9qUirUIBvr3lCKTSRM0E7QoXdMjNSOLIARJmdHAb7a3AHL1WVnhFo3SDe9On/3smBU9ej+PC1To6+nbf2rlFtrouvALV0dOpJRPzaxA6vIiUXuPHY4V2l/1vkN6zT6D3KefkSyP5O+535aovwYRYm0GlRNFpHkXOwcZs/8fFuSwqhZAprfMvftdX713UVR88vlQbvu+xb5DJIGu6zTkaYGiF/H9d9pXBUDSEWaFkBgkCpTtzIZjheUPx74IDe06NJjlkc5XrcxX0+u7/YAMYWgSRq0eWtejLf5H25v2Hf5ozmwB5Kozs7aMrH+r7+ePf3mE5dGH9DgxxXn1mTKHcWe22eE+fBV0rBeWR6JZz+EvFKJMbza6GKT6H+qQcO0BBAPfGsxzybjptcuQ1DH27/MctqZYqsZPi1Kb8OxrFxqzbwsgMx6t/pbh29+cLXRd/MLLln/n92fGQCr0Yh1StRgmmQ61aE3UYe9e+DmRwjIdzfVvmKJMb94rjeXu2ZKTQNYfDA48da7NGsKWu5dQxRfZG5bYFmiuD2FVv6yCRFREklHB/o9lWwC5qsRx7z1y27t7R9PR088aQdebbyv7pMK48qS5SU2N32jVNfrTCz0nUui09Nz/SiFq70n7hbH0Aw+YfXvJoOC5Z8ZzqRH0v6oHFV8k1iJx8JuF9MQgh04gIwSdsfzNC4n8ugWQmcVz9Wp6a3/Jbz/8lSLojVskSYlwE3xQM1ck6jbuXb+gw1m6NA+AMDQUKNudDguj3Y/2Wbxm39oD5b07B822IXpgQzdXKlD2umFkKZnGZwuNCEoDImkzOvTr7S2AXF2+er976+sXDXeNPv58Krj9dYtLAbEOfaOGEJraVSdAm+0X37iQcyLRspKeE0Bq7ooSbfe0y3Chc9X9i8SH4uD4U6dS+RFz6d13VSGyTxe1xYAIS7O1EiHSEKXBgb1539m399stgFxFSqR89/Gb33rLSCq156uhpN58V1CCkqhCekIzeOqAoFMd/NjCZYcKl88RII2Glrg3doTlMd56X7cEWHcwOvLUyUxu3Lv5wZVGGBta0JET2UJCU3jsSaALAEeWye4jCyL61wLI7MR39Gq8br0fdhz/lyHl3/96jIOMINBqKoLaBBxCkoSzqPviwmXxDW4Y4zlqkHodQnCXwlPBWHrdOzISkMGrP/dvJ3o7Cu7yR1dztUgrKsEiXVmRZiBJmK850lmjfP+6TAsgV40UwrsKd72uvdA29g+nLXf193e6LinxIibM6KjHQJFu2rx5gVIW+CvmCJAGBeLkCx0EA0DoqVffl6NIrz0QHvjWy2pR0Vm19bFaHWPkRsrQyZkyeeUSZgwNRiQZI9r9ipegtAAyBzPr3rOdb1rtsDrwtTLZr7obBSZEgVYNOJjS4iIRs3381QvTE5miX2pW+OD39x7b8dJIhwkA5JWyNz7aB0/WHwrP/tshc9F4tHjzRisp0kL/Xs81qitGpCv6tZljlDKDk+95ZWlL5wyQUAsAVnz9ISQsHfn+4NEHqJy/+KXT5uCGd6fGQSryI4UZXfUknCWdas8n7GsKIIw3/iztvXjy28ORMgFAR7678bUrEJDB+vC2I9TtFjofXm/HWgQD/Xtd35jAoEJNfRISNjcMjL/mlWQKmjVAPFcf50+kDM4wQ+tSVP7pYGUqfX1BpORvOL3+rZ1j7frLT/T6ve9YGpSI4Ycc640J5IJNrWyzY3QhUsG7N0xoB4mr2zGz3cW06dU5e+3eE0cPjox2kgKgueTe+bblCDUb+sy/vUDd/lj+0YoWwUD/Xt8xuXZsJG4cNXNJNDI8+vpXzl+fDUAC90D0+Y42k0R0FGoRArPFRHr83I+tyl9PCPHK97/U+bbbXJi7Hw/E/P51KIApCEE027eQzg25dQsuJ+Iur28HSUjrZ6dBKL32jkWLTHgvnto1UkgMrdClBx7q5FCvPSiHt5+I2qLRJQ/2W3HucAD9e90QBusEGgkaGyGiiTQY0Egr/8FXivx6JoDowoG/beu0xZsw6DUWM6fcF3/teoJI6IQr5Z4H0oXc0Hd2m8ENj/UUIlY6iGhm7ZFM9ROjfej1C80TcZbXtYNUmutnGc5qN7oXrehcnGV9/uiBsxVfxC+mbnjwLjPSbOiLe571OoNCx5r7O2l1okX2RSWY3ERNUdWZiwezCzjKKPf0e7YsPICUDv3NzRy6vtZg3aQ8T7M2O/He9usIISj5G07f9q7FQx3Gt76eCtJvXxUVmJQ/Ey0QJWzOAAQd6uhvWQsVILVC5dkpkKDHZCuVu62jq5ujCye2DY92GgBCCbT7w5sMXrOPGSO7vx12BkW6b9OiSsMIdFQWi6BJJhpyCe21CMeJRRHYGwZeetsmXlAA8Z5/wnaKunECQH1ELg7KdRg/eV25Il753gvqh24fV9lDX3JM/4HX8DhBRYEmwjRahIRFWEAarKlr5OcW1LHiLAknAWR2EFHUrSyD0XZDJru4jeXC0YHBQeRhpLo71povFjfeSGFEJo19Y4+0YURteU2m0jACHZZhqOYfI4y6fIkIOMWDb/qeh7SmAcj2xztGPa7nNNdNa7zD3ou/qq4nhATlraPha7aYxbbhLx9JuSt+YJHjKRY/mtoRIVBDrxCFXWrTQsqJ1AEEkwsJpwWIdwNbFln5W92zVr4traT08iDSpmEsMm+2Dm0bWX9vD9bsW3tQXtp5oNhujpgPbMrXcoehHymlp1y2pIhRCIDmlDH4hu/xcOkpARL+/EpvrOKtxekbNiWUdKSlVpQQ/2bx3k9dV8Gs8HYjGF3+fbcVsrTzX0NJvX6DjDNxEIqhmyTWqdmD11a+9MjC8UScbGO/1OxBotwVnDLI6lnhDkYBSSpjWwwE/riLG7rGDxQu0oota0xZs8/Q5QNPjXTScPrWTatqEJFyZCmtWWRqlFQuRLJcevFXOxcCQHZuuxBVy5I1Q4lfBjqNs9rKlLsbegdIerZsvZ4AEiwZvcm6gHesc3Tm+JeHrcEtj2ULBBYvWa86kNBUz1ukQ+39+ELJiTiZTGM7yKwNLcU9SBlkLb5xbARMNsXWRBQ5grLRdW44kGJw8wPvOLR6Lxnw9n1rtMMY4lvuXcWVIq3+vW5gKc3hVN01dYYWwzL6v5fMvlMBxP8/qTKhMmeOKCy088izzsoDgz9cHF12ZGO7L1rHdgMJrLbrylH3bxzn7tyIc+/38XCn8/UduXLmR1/3nKeE/YjiFZlCdTSeh+qhb79mgeREnMXRVACZwchS5VuQMshasWS4IMQ2KUAzIicSFh2kx0ZHjcyYu+KR1RQIlHKfea7YkRoKbn39DVSDiBMYVsiAnirzEgc5hIDI2oRvfP+WVxgg3u/Aqz5nIQoLeRuHRi5iVfdRpGilMYasVbUndFfwYfv6AUi41NHILyqd7n9s0XAq8+2vmcJvv0sKIBVV5qfTDNZCokQ2GPctDID0RnqeAHFukbTJxo29F8uabK4AxA2FQAJF5omLKWvUvfOh5bxmLxSP7f/OaD47LP33rOBqen2PFygLGmA9tUeiOe64oq14/C2bjFcSIPiJuwZVncYjI4J9385D4dgpjdKtQ+bSZR1cM7h1z+D/sK8jgIyaIO6xLqi3rHX9thNPnmZZ+eqlpYiUDgNmPZPySH6gYebPLgiacydnT9yXPDsvRFldkjaVcUvXoKPZYlJApLR2Q4AF4mfW9Wzf6StzSPf13Wn37SUD5RNPvZRuG8LNd6+qFGnxmn2+S1bC4NBs9eLwn0AYiDjNw49+LzoPpwTI9mdKAQESd/wIISoUyd8jY9k26cx1ZLvMQNesRYoWH/ij6wYg0ZIRA1BBT/vwhfvenBlpD599Urnmu9+1o6yYIo+UnhDubTL5leIYjXSu+8L/feVHJDv5yQ2Fs0IIk91BKVMZq/Pn3CpASMQNQRDAT628/djBsSKUN+ove2iNsWYvTF79+WdezGfGnCUP3mUl7jprHbow46z6FJ/HmggRaxIgrfThj3a+YgAZ++Vlbj2NkeGeL45zlxHaKSOXNX236kzFRjd3/XDn9QIQvXTI0oBCqsc9fctbbhmxcvu+wCp4zYMYZyjtN8TCpyyHj6OXmh/6zgfbFyJAZmVnMaXbKG0oY036nCcJQDREyq4NYQ0/c8fNB451ndy1ojsMxtzFj7z7YIC1ByjY/83hfK443vn6O42KoQUdOGxWGcAnKpAYIuBkqq42NuOL/7P9FQLIyE8uv6GAOo+TDRIwG5AwiKRaDxBPS2FBJvX+7PUCkFKHHRPV8mLrHN6xznHaT/7LhZR729u6PJ+MqC4lMgtfJOrkjXe/ws2GTps5PW/9VAhh5LOUNpTdZwz6uh4gWljA2u/o6913eOmRY3BuaY+8gnPb/W8/KGswoIK9z76c6igXlj/8zkNSTa/7vlRqfXUTR71hDSNjC/7ph7a8IgAZ+4nS+pxLJFM3zE2wOxY5H75eMuqFZYlLy5zrHgrX3dcz0l7e9w0t1ps26CIxRYEmpalqTdXvKNFKSLOmuHcOIJj3fOv7XlFPRLu98+y4ZZ3PGilDZVdiuAIQLaRRjuKZ0H7XXW17ji/dfwZC5Zu6omA4uO2udbaEMMg/svsodZUKy7b2Z2vpde17tkLCU6qnb9iMjC0DZx9blf3eA6T8E2e718PnCbOvp3mnsPfi/2dcJwBZHlY5OI3l5VPLH1s5auQPfy60Bu9/S7qkieFFzDIhoJ+MSCbNmjSBJZ6bLATdue5zv/cKRjmiRSVjfgBRwSLLSCmr7fYoBggztJBEbhR3QgW9/daul5ZsHxQQnF4shjfudj1yVyrSYBW99MRx1Vkazzywqb2qRfr3+L5paLDWM9VNkhaVMoKD/6f9ew2Q8HVLT6+9uSQApNr3NcMqL9543/UBkGI+nRgBzOTdmLoQvGODU+oe+edj6Qs3v/U2zydSXgglTXKGknSOkAhJjCESiHrguVeQgPESAEIdhmkrK7/aG4kBAkAg2vFMECDBsn69+9ySpwsCQu5iyrmlPQrK410Pb7BCjbUH5dBTp+xOf8R45H67DiKONhsqUKY08UQoSpl672+3f28BogsfiLy7TY8EMxdyJ2A2Oq6TfGED07Oi7txocdP3Zcbb8PQ3WOSx9+0tglm7YNJgNHQDSVzdJkSkxSAdVYZl6o71n/nzV+qGwt7yPFvSlbecTFtZ3beXR2MnnQCBeKFnAkCAG+5y9gwuftIREHIXbNbpzjyC8vgND68yJZR1B/u+8N1j3IOh7MPr06jmDvc4fppQpe7lKTBCwiLQtqWPXZH8+tTFiqX7VhYWrw5DAmZnYwnrnPqJ66I5pLQsqD0tbYrZo0/e+uo1PtnHvjKYCvpf1eNEROxqUTLRJxcCC0kkWpniKBOJl8fauO/r3/8KeSLB4nkDxF0B01ZW782FoifKZCIIIG4Y31eAW9eM7HIzX0kLKGofSnlkhOHSRYY34qxYvzavQ1l3sO/xI88G3Xoku7lvabVIC/07Hba15pksLVKRcGSk+r/w3r7M9wwg2rmz57aX195SAEkcppouEFM5iHqiD10P+cLSDZ5uCHXSosz54PsektHO4jd2WYO9b70rKhng0JeJdc5aZdwAOoIG0yC607EzQgJQ1LHui//nFQl0+EvcebakK+5GyiJrxdJiwQVbHLus4gZBokFWrzp5yLcft0ESto/a8UY32rrYHy93PLI2HUVYd0gG93xXd+lB3HXvirhIa5+5mvYFZdPU2kBoTGFusQZYSAMQc9MBf+/H098rgHgbiv2Z0uZ2RwiYjZElBOhFJ37vegDICldPcFV72ktnNr21fShr7/1noYvveESKTKz9SJHUL54RujAibUuo9CCwOFJgZkAAYU0P7vixVyKd5C915guQ8k1IWWTd3DvqlcFWwoIkThiYAAIybl/5wkEEz4mAKFuq7nFjUUcUOaPt991t9+0DDDr31PNYxEPh+ke6KOwfYJa+AzoKXbYmFWg1nE46RgiRUJg2gr0fy39PAAJv3XjH2guLNkSRzM4JiWv2X53beB0CBErSPeGJFW+7veR3HfvHl7v9VY/dv8NjBS9CA625PTYEoHsI3RgCehh2REatjlXaXpGciLfMlXkCxLlZpyxK3dI9FJahbNQBJABA5qpbjx2wi88xQF7HeLWRUrPV0clBsdD94J0WBUKGPrt9p+5KX9Qb7n/w6B2HhGQNDmgduKSaRRCSNnZp0CaSMvTB38h/LwCiCxvdm258sW9VaU5vaLRdBxn18gpnUuUSeTdkzsv9jxgjnaPbn4XOft96KjI4CutogWCUxjqggaG6P+0eWmpFFbtVW/c8+cbN33OALPWi+f2lMrp1yqLUqvygrmkQ0a5rBmYAkLX65sOHU+cOQUBuR6kGfpcRLFtiuIXS4lUbFulQyETp4BOji9QFtXHVY4c0Rf371g6gf592IrNpkK3Zz8Q2oyPvu2xtVdN0FI5tLWJtZvje9jLN4Q11h/Hj13xG3bnBmVy5RFFH19jLd75j0Ugmdewfy2Z59Q+rAsHUQRDvGhKAdEShiSDtDgI9FaisUFGtvTTqUM//7vfYk3OXzRsgdgcsi7J96Qu6DE4lNTRe5Cbuf35D7/7DHS+8AAGxWa4DiChTvKWLOSgUzQc2tSFippX7tj9V7OXz0Q0P9Fvhmn3J7HVdirJT2oB6EkQ2HHAfvEwThqcBSGGLX+5YP9K5LprT2unusf92recLnRXlJk9Libk0uGi9/c5C9Mg3/+rk0mLvu16301VQgY+4MpoETKFoDQwCPUqIxNLK8iKuDwbSAzsf+N7mRJzl8wQIU6odKcPIrFbDUmayKwAJvQQg7Zva9p5YsvdlCIjZq20Nh8jWBO+GXgncEfOB+1ISaRhc+vazYac1Pn7jm1awDtcCwAAjKOm0REbIMyCEBOCIbeXdszZ7ZQFS2lLm8o13nFp/2/ic3jHqOfiJax0gNxeaGcUGuSsyQ4Nvf1gX27yvPtkJeusGKSphqZYvEoQEWodDWGyEYGFwo4tHIqTb1cDHv5cMHs4yf54AQT7NKcPovB3DUiaOAQJUAEL+4nXm/lNLdgxCQOW2eoAg7bO2tE53dirXGU69anMaffvWHkThue+UO3Lj47fdv9KIK1AG7jzs67JYU9PZ6TpPhASk02a4cX3mSgLE21hiX1Z1Da9b6mC2FVmxUX3fNe6ouzcVmut7RbmOQnHVa5e6kjr0+JA1+MAbc46AyA9Urc+QoYOx9pTWTEIS9xXVPxMSbeZeetv3UIk4S8J5AkTns8o2zEW3h8ORWwOIG/qV+NimcO/ZJc8UBCAHVhUgngaBBESmGPluMyqMtt+3uieGyODAgRfb2oacO16zxJY+YMDQawa0jhzDnKbuRAOotbaTaft7f2qjumIA0YXNAfz0pgJvSXlzs0sfWndtZ9S9G8emunVxb5UXOt+ywfUf2v63uxZfWPr2d+4pkxLtx0lDxDPIlBn6ChFYQA0HIgFCBK07+Mivf8/Y/ydyNswBIB0pwzLMpbeVxiKXLY6bQOAGYbxRg+WbSjtHep/0BCBD/ApAfBEAKZ/BAMHvXqTC0ri5actS6tsHg/zDT57tyI4VO+/flJLAYL0GA6y151kKgJ5ygKpIhYyORKdMvvDGS2MKmpYXq7xJw735tlOr1pRmrUBIAGnHtZ0vnBogYPJuSA25d78FhTY8/e9KuQ9+H5eghLxQkRBAiAuwIEJEopmENEsNHvEqanpg7z3fKyUyqSV9JsOqcowrajcNyzBvuaE4FrmxDyKA9pyEb9e7bf3FPeNtX0sLCFboVV1nF2TDg+0zAyB4i3oR+sNm/yOLJQBY9f3Vvxc68qXx9GvWW6sOh/0D/RjgNXtDxzBougaVsHbgsOgMj39f/yX469MZuraRAowXx5a+OJyfNUCEABo1PorrVHRknyv0dD3x6dGH/Ojh96UupL/yJ+W8GZKkbBFGsoEIJMQEgarQPoGoOjtBAKan4fx4+D267NIlbRpmm6TC8AEAASp3wgaXI0snMw7KFgDPdV3XEYgH2/YqB79deGHIyC3J7f7EvxdNc23kH/qR//QYnQ4Wp778+98lZQz0A/1rBkw7T16AOLvaTEI2YvVCgBZyy7nn/mCne0U0CKLxzRH87PpSbh3CmoKYhRaRRfv/5BpGgb9ibDoLU+xOPrH0DXehnB/98qGU2/3GVSiqhH2x0qQ8aczSxGA6Qafti6/7nlRnNWlJnxEeOtYgHYZhK3vd4rMFN2SuaBDXi7u1A+nrf2EfaJsIKMqOpTzbJUEKDogAG/CrO53gdvVYYXk0fd/K5arvAMD+ge0n7S5nuOv1N+cqHCi8Zm/kwapegmbWjY47h3EjCZEIWHTGKN/T13kFAALH3QCUlt95auWdZT09Oqg+TskaPRvuvV4BAibqyI1c3Piu1Fgb7/3nwHT63pEpixKEgZoSDo3fkmYRSN48+JvfA2u13GbNAyCswch0SorTd7ed8QvCVvJLL3ITrm5/3R3HDpgj+0lAlB22Ac9OXHSygRpA4tYxynZbvjtq3vHwir7n+/fdhf3Htx1PdXgX7XVbl1QhonVUJjuhLUzAoSttiAZzfPpIGCgREpBOGf2Pz4/ZdwZ297F7y5DgtiXDd900Pst0YRyW0Wbb+67dwt7ghpHpF1tFHR3OmVt/cGkZmbNfOLLs5aU//tqdngEhF9QUHQ2HDwEEHfOS3b/jwSvviZTn21AIRmdHpJasxbBT1kx2fCOuduMbCqw1tx94vu3cYQjgd5cAeIAdx7BS9QCpngzppez7Y7rv9T2IVARDH3z6JbM7vICHt7ZR2A8M9MfM12wlwNIJKa42tFgclUoliIbCMkMSLUNQmwZGXrf5sgMkLGyOuJzbPM53Z0oE0jOihHQctZSO4n+9Zhl7Z54Jq2AtUufVWzfo4a7ocwcyofG29+wrEYhcUZMYBJtSoJBAQNB5dfD3jAUIkPj4ZrK7O/w77hoeCouRspLR8V7o+25pkUG+ddfNA4c6Tr4AAbmLRqwEIK6A6p30WlSK4C7pNvxwJLpna68Kw7UHePUXnz6Z6sR5a+vmRasOrsFA/wBY9+8ukzJqrgcALZnR8+fHi6FYZji65h6ITkYeao4ozYNvWmtdXoDAdTYA7k23DC7v9/VssyFCpEkvOv7b1ypCZjFVnMld3DYyeP/b7MEO3vtvJcvd/FB3EGlCFIHqIdKcIKjqqnBk5M+96coqEe12zKOhMDGN2tPdmb61Z18cvEhmVjEQwQvMsqxYcv686WfW3LD3ROfBswJQubtoAPBgwxWKw3lVgDRApKsnHbkj6r7+RaaswYG+w8/vP+Itlov6kTt77zy4ZqB/AP0D0DpyDQN15OrGsYFiz/gt5w0dtd3w2N6II8VRoDSgWYCUUXz0tvbLChAUtrgIwzW9L26+sUBN+kKmjPUievXnP3HNAmTYnJn2XPLd5VM3ve22kmmP/PPOJec6f/gduz0G6UDzbDwRIcTUDrqNj/7alSxwm3/HLVjn25TzwP0YDEsBeZoEZLEuddxqm89+d7GX39i+6/Sy744IQIYqG4mN5SaBOxvhhKBYxRfpSXv+kL7tvpVGqA218uCF57apRXJBbnqgr+9g0lPFa/Y6kWHoqg7i/WkjV8h+7a6h7ralfkqXuBD05qvzRyLJKH38lzsvJ0Ci8U0abnaDa61LuVDRTDYWaYamuKTokeymazSWW+qchVOrxL0Vw9HrHsBIB/3rv/bo8LUPoUQsCBNaoOnjWCyJyYpI3bvvSvKDhz3OnBsKk6oPBduM+jd02acVIQuGCsqISkcfXSb8b8c7g/zG9K6XlzxdFoBscQzEXnoMELI9O6xYazwhSpFeZnl6NLjpvtUstBoHcfrpw+jBaGnla1b0HVwTuyK8Zq8bmVWSpcgGtIo+v2ncs4aPOZv2bll3Dr25sII9DknZmIvJOvOMwpK/AXCW3/Xizf2lCFNqEKpzQkhISJOkMu+/RomACrMBiDbIW5Iqn938I+uftDMDX7qw+Pzadz24I1BQkUs0fRxLuK5LjRDl1M4/uWKeSNDrYR4+SAzy27pv6n+xK7c3OhdYabbgSykIhn+oF/SlQZt61tFz423fcQGQHXl1ACEbQA0gFe2BKrmxu7TXdKMRd939N6gwBBv6zHcH0Ja+ENx+36q+Q30ABvoHeM1ezzfMeoSp8xeQcgt7jMfOji6/lXzhirYDgMhMF34qf/kAgrGtRSMM71g61H9jKY7dzbJHnXTn0C9Z1yRASm2zyRsoIOqy/MLiN93uup3nH9/eO9jzznftLSkYYRipuCgjmfI6HVwIQJSyh197pZSIv3gqgCSMEqjfYQDi+v2gZ8kdXcvaBoEz671jgedWit2d4tB7M8DfF2xZus7bOd72tYwAlBo2rdgF8USqQayKOuLJhrrXtTTthkPRxs2vO6TXYMDQZ/YOFLrsi/6GtbdWOVB4zV7tVGava9YME6KjSNsqGvPTWYRcrx85lHtwV3tDyPqSABKNb9LwzS169N6uEsUe+Czd9WjR2f99bQJkSTSzD4LIzxa7DEQj6QfegIu96/7gS1FH4e4f2LyNhNkPiCuuxrSmVvKdlrxx+DeuTE7E7wmaAyTBB+u6HaYACDlr+pdkV8AdGRk62bsiXF18IXD8VDIxwylf/DGLws+QKTesLzzrW0/ZApKM51lJlLcBIHHlCjczS4LOnqwbjDkrHnlHDBFxd/2722UN+V0PbbzrUB8G0I8B1jrwEK9NnBIhEmbxDUYkjcW/moEowx8tCIqXByBw3A2Q8o39Z3rX6wgQ8GzoFoWFNB555ahsXmGAMK9/uPjMCzABhKXlP5kdyxiHPufZY70/+NiuEMLaB8emFKYZuUM1j12kLbjvioSzvN5wYsctJ6M6WCf/SxSHkHDu1tXt3erCS4/Sd/coE7lVKlo19FIwhlTMdA5ntPi7B1fv/3RW5Nb+l/fD2yMJp0l9GoRqiXTdfKtqBgWdy01XxovLH7jTCPuBgzT+xM6gM1Uc6Xn9uyQ2tADW2veUOfnv65PtyY2FBoK2HX9LhTjTeekAQWFjgFCvbxu865YxEsYsC7NIs+aH7Gtx+FQpl9YzRHmN191rui9t31/oNACU0j+5PBjtKv3dUTfr/OhGXWZh+BEzaTQwME7FCs8aEJ3ng79zBYxWL52e3JLOjcQtQgC8jiXLezpUWDx+4qLx0Fv+ws4AJKuU3HHhvD9mcWJilUfD9ygu/mUeWNV3ZkCK+1SNssGDDU8TqgCJp6E3cdShwSDxFy+2fL/o3PDgyjsPrsGAwuj2b4XtbePjSx58jxyK+geA/gHWOnAVU8N7VXPttVCwESkgzB750yKajtycD0DCwgYhN7PJoc0ZhzUJ61mk1UlIIFn7WsyozwgQlb7NbL+1Nze+/9mzHaygR9Kvvd8Y7lLPfMXR2fXf9/AODeJgQoyzCTqqs6MVNCMyssOv3fK9AQga/I3IzrfnuzOR6w0NnksBQp2/8sSO1Q4I6ZuAlWcHg9G4IV2A8sXs24lf/EIH7NtXHh/IvnwMAvK6RywAnpCd5Anh2WE8YDy2sfSEkQuVLjOvszcXuqPhzXevtKUPOIRzB/YMdtnFsRUP35qhsAoR7blmSibtej1BNWrL/H/PFHhmeMwSICh76wlO95YzvRt0MKuEemVAKaKu4i+Y1x5A6qkVm+HDevWJcWPRHcu69KmnTiEFwA3afmrRcHbL4385ZJdz73rPHl9gwIvq8urTeiISh73CnHH4sudE3MwU7SDxjlft3ct7lD969vxL6dpVfWDNH69wIcLpm0B3HC/VAKKdwcVvAD//9S6x19x88EDnC6cgILZKDXnCCkBqcJjK4iFE7T1Zzx8v9z58lyV9wEHyd/1bzkCxkF7/YCfCfgygfwDMulxS6eYsPLVmRIXRTxYLQuAZITK7+q0MWwJz6OjSwTNphkhdiJKmkMoj5uH8L1x7GmTGA6K9tyMbXnz+6BlZ8egmNRhGoZm/+NFDjxhPLf3FzU6O/vaP1qcEWttGGDKBMDHs2/gtc+X3hlu449M7LvPtNBswy0opBcrddM/3P/bq24af/PQXnzg0kqnN0wS7riNayAdFOQhCACIigI+gDaCAAENpHxR3RyUGFuymhztz/N+kba2hRVTx2Elku5a6//j7O/sOHUDfavN9j45onV2a++4fPOUYh+KsSHREtS/OhyXX1Vomxh3iCnmt2XfL/sEC8rlZxLZnWeCYeY5E0Ute57HBLJgIDUCYeuEBUsPv2HX9AeS0Wr28E8OHjr3sL33w/p5Ak4Td9Jf/lztG8evvLEj3v/2ie48ZQlspCifFsSaua9xSFD9OQQHPfeCK9YkwwKyUUuTllqx55A2vWuPt+n+ff3z/xQzVGj4EQugoAFAlApPYla0WX7gTpQjiMkCkI11hzovLtFDXnjp9UC52HhgMiKjisTPIdCwN//5D+9ccOoi+w7dpDYhakv/6b32zbBzifsgL6qgra3PdD+TEc9wwiMKGAFYokRcGyGYuBhajWLw8eZAkkrUekXdj//mODRICs6OzTsS4L73lGgOIsySY3sQK+u4xho6XvPSNKxblohe+fSRvgDCcWvbDi8bRdvbfX7JG2968SjwCo658kWQy/HjCkQOImR65rONxnV4d+yCxjaRNXnRTd4aLLw2Ol5qb00L4/9zP3yDOzcXRJYvdZd1HXadYmSTnFi8+dKes/uSBdsptyO460zMwKABsOJFdqVWMTSxMqjSZ9lTyO3qyQThavuHBPkto8A87mEhA7I+kX7s6y1qOKwD6ZijSQCRaJNQ61o9MYhjEzHTn7tPMvz7LOsHZAgSFLQ4ib+0Nx9etLFR74Gapv7NbNlxjjrqzzJsWIKwyqdtupnMvFcz8zcuWGS8e2D7SSQCc8K0PQFnhgS9qnL//XeufIzAijxUkbsWl6VS8IJ5FRlHWOPM/0pcRIJHmmMW/fOPyvIlyEAy+YKmpT0IB/foL31o08uDqL5RuWuTemDvhFp1KR7pbvPjGm2T1b72c4bZN5ncHe3aPCkD2qJWUYkEqAPF5tvjQDJCE+Z5sEI45nQ9vvOtvv9iTLBCzO5pa8dCNfFhJ3LcMfQsU0SocAEA6qdtRiEReYBJRv4HLDJCouE7ItbeguKVrTv2ZQoi6Lvyvawsg7tLpAaLcFSE6bsi55wtuZknfUtt9/umXAbRZaHvNew5G/QMHv+BmCj3/YWngKYb2RQk1VR71GzTGh0BYE6XDrZctgO70CIT8rsU39ppwThx2A1U3X4+aPtXotw7uzg/+YPil3IpO9xbrVD1ASmfe1yX4+/E0etdH3x3u2VYWgFJ+nCeEDReodYNozKGTichekgrC8vjSG4/BJGFNBDA4LASbHrhI9QFAEeAWIE7IagFeACXk8z+04XIDBKVNDsjp2XS+Y3Pk8dwQIg9/9k+uK4Cwv5xSStJ34nAY8JIbcnl9alc5Y6bu6HBezj1s+YE59IX9i328/b37HBhAEDJP3Ik8yaFDzRDjMGtcUrNhffzG7TG6uxflNconXy6as2Iqh/o/uw/kxffzWNwZ3iwvuUUnlVCaOOXBH02RfNaxsWxD+dvl7u+6ApL0qEoA4sl8AaI1K797kR2E5VK7LQALCbFmButR2bwyQq1sh+pXjuptVP6V2RLGzP7S0tsMwDx/tHvwhDWnqjkC6Jn37LimADJjTTMIIBPKzC1etlhePPr84XDtPVv6VowVgvbxZ0bZGO3+wA8EpD7/v6OtKtQwTB2p+krQiaQEdYEmg5gZllvu+/jIJXnjABB55bHtAw/cu8o8+fWv/ssTL7g1fMi0B7m11mEtZAMGiML45QIAmnwooK/EYMvQgSUjsbdBzd1ynstxywaZhUOn/VRbtyXxulDSVShd2WE7qxRXFksSSQZux19DBOorc12m2bwyu4MCQ50c695/as58TfrZ57bhupIQIQiR9jyflSLP9UO/UCqXzhTRU/zCd7z2ojz83vRQ/uu/+Q+bU5EmI6W8SM0mDmvEESxNMmr/3c+XLuUaCyM79r7nB970oz+w/ZtP7j7pJEZVswG9k8HSiQsmw7KgBUoF1ddp+BIoBvYEJrRllAK42diSSFlJ6MpuePc5NDNqaIDJKh87Vc4aWie9yqw1kwDGMpV1ju07rhTFBtakqxcBq298vqQuP0BgpHaT2NGZdP5YwZ7reet720vX0PafTYjCiNloAQEsO8U6gMC2xsb9jp5df3XuPj12609vOdvtfvw3KaMBMm0dxjqEJ6iPenhwpf8agO34l5ITGXvuIz/y/jd+4Zu7Tw66cSB5clGxTHnD7QgABnwCwFF9ulpgs6xyNJiYRLTvxk6AH7voHtzkbefGR6jj/3yAid0XT/j5VEQgQDSzFoI2U8px4A5v27bnuFKqTnFUVIlSx5/4/HCGzSsAEKSNVBSZL7/YM3p2bgARgAr4H9eUhtAzIigeJh9zBgS1X9juuJtaWvrs58z8cOaH3xvp5V/7VJTlUINTCIgnET41ZPE4fmJJ/58hZez4UDC/G9jxy/+/v3ji2HhGCdwk7zJZZ1BT/SECdCAhF4VJXL8cGtBZ0ihqABaFsGMql8yUzhDPbsE53q8W4EMT+ydPh3lFQkIMMASaFUeRzqSI/OFt27YNHDt+XNXJieN7t33lSNiWotln5ubEhJLebsDAsdLSk+czsz1Hqx80+th3ricNIrWtLYAgceoF2pKiiw587l9LnYXylh/Jvrx4/+8dUekIBJu1lglbUZpZ6xocf6Oc8trf2z6fW9j1mX/ZlamYVOXpb3FSswoBPfvc2BVNx8kb8WvXGLQRUAC0pRBqcRUAFIWrPgjV7T+eXa/WhJ3qa+HiydNh2gBVIw5GiiIdQIOYLCtVHhke3nbs2LFjxw4fPrxt27bhYY/bswRWs3d75gQQw9qN0Hb3KDpYTs/gxU2W7+zZdf0gxK57XRD/F8T7CMIIbSPV9p2PHe7A6G0//8ZzPcWP/bV3j9Yalp0UDWrdBB3c5BsjKmZ2/k9nzjew/VNfPHtJK9AuLsUugQWqQ5iGSJRDPxxiLUoC2GEcoI6artAc9V7sxngEaB1J4cRxL61ii1MpnVcoRpWjiSidzeW6ARAppXKd2WyaAA0BzZ5NZG5cWlm2AbNwfNHYCxR3XNLk8MYUtVkUFb87cu3gYw4dqqYIYAIIqi2E0pMJ24K/25nJjxqv/6COlh/4g2+lDa0Bk0IRCPOEAqmGM6/+G0N5bs+fTRcC8Usj23ZuGwvqLcPi3zw/SrUcB819CdIaEls28cUEqKvDzwEoKQ2LxAPFrkZ7IXY7bHiVo9X257EJ65YhYngnjwcZBWiJIlgZrT2qGrQULztEAG0GJEI+iyQcQVcCIEjvABSdGeo5eTqLxqKsGWqziOAHn3VwfYhAIKCEEbqyKmbVstd62dIgrb7wd0FXcbzvp7LjbYWPDWxIaw02VESgpvWDUzw0lhLt/nDTpQ1LY9t3Duw7gdvXGDqx4zUAHNT76gZUz4NFXrJujFMiVLRjRYU4rgHAZdYqFwWgID5LRSc+eqwEXNebhTOndbMgl1QWwSB4J05J2iYCOM/QWupDDVz3hYgIQgKgr5QGgWXvR2jISSt9bDw7NwtLCGNr//t1E+bVaHRyg+RYIxGBZjdacquNzLMfP9ZuDy/+z+scUn/zP72tpAWmrSHEmMK6asbabHjlvk81eiKRXxrbvmPPoWN066rNm7a257M2wLqSleOjIUHmFJWbeFbGiPQBQkbHY0+SnxA6MHC4xIDNgQbKIoBQDoBtA6gMEZnVBp10vz5gwY57SHzAIC6eOFlK2QBZZiQSl1LGTCc1ciYdJNpbIo1nrxhAkDFsgjl4pMs5SYae08Jq5m899oFrBQDW9Cvnx7BQqIROzcQZ0UQAPEuHbWtudHoLn37S7CgaP/je/GD+m7/xxZQVkYipdUN2mad7YEklXoG3/1KlOtUrjOzY+0OHDuGO/g2bNndmzfogmAaA0DtIcfXXfB0CylboiS0CNCisHgwC5IRlmEIo0y9DIgJIo6rjYmLrhJt3NjuwokU0gDpLjuOvmXTxxNFC3jYsI/SkHu9B3XlFgIC1JlG4YiYWkNllAHRypOfkqRTNpWaRSJi+vfHayKjP5rYFGhEotpakLhZLQpaQDkvrf0BL+t/+YiznBrd/sK+wTH/6KUqFILGMSHTSTzPBN598KfEmV0GwYtdOoDS2bdeugeNy21+v37qlPcVNgqUaiP6gGHOpSA3PczSx2E/5vk4CUVJTmgz4sEESKIgyQs3uKAAYSMX9hLABAtm27XmziZjXa01dd7VcyTD6YIJ34sB4ACOKm91jo48qHf8VCyvwIYDMwUefO0CUYQgMOWSkj5Uyeg6BLIEIRU557LpACEd1TGEN5UG++BCBIPDH3vdLbX7bvo8f24rh1E8+dJayX/nTUpZAQnZ8vk9wzXnKSxFI5Ozb/vM7DhzFbeu3bN7SnlZTPW+ubLVa1nzubjIrX8VqlACEtY3gWpDUOqE1IYEspQNQtqbqPFBVXz1vzy+S5aMRV1bii5zZsCKdpsQDTEi7dIOFZQIItflk6goCBKmdpsAcOdJVOk7WrPBRmVJJAnL2/qV3TeDD07NaWEY8Uq0yXkZgomLxkLc981hHqTv4q8+ojnH9+g/a59r3f+wlywRImDUZPMmnaX7cJh594N7xXb15a3t6xlo5jbGJVtocpQzXhO/7gIqZgJIgLlu+hOYBrNoTkmaTSx4FLgC48BFT8ySK43l4if6ZpR7RVUA0m4djAO9fcs/rpG1RxgTBjAsn61dQEIqvU+k/yxhXEiAqs9cArBcuLj111G5o8JkivBsvARERE9HYhv96LUSpTsuMKycAQj3hpK9ZWoElEI2++2wxP/1n5zud8b6fu3t8kffJL0eboIlMU4I6lWEkX3MTdEglVqY9eL9UnpU6b2hrp7lvg16Mx1ltq3pQMwC4DOg0aZQCC2xzpA0n1mURw6646QCex+1VbGg9m51Y9wryay5IVa04h1Zv2fRHf/i7/+XXO7s6FDcJzUu265P/+s2Nc1Fc8whBm9YeCMtJ1X7wQo4ITMJTR3iZBDVTEMRP3/Hs1Q+Q2Rqxiq3qFhYIYCYQCWD5tmjosTvetzxcOvDJ/W32cPo9b4sk/czvPW4bISJSHGme6TnVwsGihSnYveIvts0GIE6To3kukseoCcCKQ6YRokoLuAsn6KD+I2WBQCHStqcAQApxOMCLr1mAY3Vh3FldgtY1SExcEMtHD30TsLOdW/s//af/7aOZtq5FHW2GYTAzkZHO5Tvb0h/9bF9ndk4zB+aTo0mzBdjnT+ZwBiZYmuloqftCqIGCoLB7+9WPkHmZJfUS+PDAABc633eTs4w/9YzVOebd/cGOl7vGPv68mQYBpgrCqXzzSZdBDAVNKGH3h2ccyacn8cjPHSA+LMsHyGxwyixInFcpUAgwfJH4HjKxC1LJg9Dtt99eF8nlWcEjeZnVBNW+BZOHkphcvnPLur/+1Cd+/8M//wt+JCIQ5xd//j9//C++sLlzroQw80pipncbID5S7n3xpD3B0GvyCEkaIRQG2wpXPT50ZkYnvb6Mm2K/vEERAwgB0Jixvksb3V/9q9LD0ejSn1w7Ylmf/KbexALNFsnU4yobS1FEqwgKogKv789mOoJ0A0v/fDRIJ1zAhx9HwjT82GPXPoAoAyBQgM3aF9uruF+AXSvgPda497XWM10I11bUnrQklo92/Fjd8qbz7Z1bNm/8/Gf/5m/+5m/+9osbtm7pzKfmPrBmXgCxDFPElh3oOjycFUAmU/XW3BIglzPquruYCvLpq770PZzphJaaXVmfZq7kC2EGFRce5agzk1O5nb/3mWx+OP2B9xr+0i/+7uc3GEQRGzQ1o9uEUhQWRgSAImft9o/MsMJS76fOkatRAKBLXMsHgIwp4HLD5nZTAPkwIBnxhWJ9Vsw33sjt1XhUBRpaN7SGNKbQ677xmwLbwi24ZfL+Ni3btm3LnO8sp/mVwaR3moA5fjATHfYtacbhQDE4dBRaGBwoaq4GFAVqbP1vXO0AsWdXNBNBGvayVGESxL+mECAExsreYGn4919DZyF81wdvLt5Y/OSfrzMjQAwVuLq2FaSp9gAzoCnhB1K8M1y9c+e0APZo3rcuEAEyugIsBVbQDd1JFgCPQ0mZflg5TJLZbJV7sKfYf7oqEw1LnvjqiSfHzWLNqBN10nR1hQHCqd0EWOfOLxk8ZTWheicCIQqCIIxU+fSQ0kEQc5/Fzrz69muv9nzhbNjtK4a+SRMO/aDewSYGdODedKPYbV/904sd+pn2999z2rrxS78YpJUf+chk64rraKJrjmp+JM7WxaQO4uzb+ZFwJi1QeZO5Bd6JQIDhaeigGPN1BUDgV0930e2A+ARRRuBAJ7dbtpIYFiEpNrPnsDUZevrWwxCLtT3TttZcbam5ogCBbe0XUeEJdB69kI2rwyrbn0nsrAUVF6VS+SywghF5AVAtwZEdV3u+UDKzAZAowK8/9uPqd7PigwAwYvs0CJbempKbXv6TA1vyo/r7f1yPdR752BHzntRW27JsCdGgimTKR0hJPzyHzuo/nNoTOaZraJM5BxwIgOEynM733jie0PE2VICkZGBlSQG2CiPyRwFA8gTAi3MgAvGm4xxs4rbrOgXiNtu6LA/7xuXf7vOtNM4aJpAaPpihk9qi+jCVID128FjpBT+IQss7O4TupT40EEZJ0QUJUXnPX18bGfXpj2hF2rTqch+UGFhJYZYIEMZHski5bXVP2InP/YbuHB9f/wv3jbSV/uCJAxa070WKIolzjdRoXE3YSPWUsOLYO39lymiI17Ddy3O8NwEsDxi+x3opBQIiIPK5ducZ8OFRimCwDsjPIp7MV6/8aNpAYOyUNLjtcXFigkJqUhpDjpy9As9xvgBBei9A5qmh3nPHJoYURANDGBocHDwzBHRzqFMGUsFFGzHTPwtUAZ+5qkvfaSYbXqNJ0U9lS9QoDuLivjjFplfcgEzbs588v6gNbb/4zlO48R9//xSCoutDQaNCU9X49KZs/CMO/GW7tzW5MA1o51JC1kQASin0Hvhq2UrF5O/1EVewkPgGYFslj+IYhUGp2MKiunFaUzYTJv56HN2q+CS6PqagJwUXlh9bUAAxjBSgcDDqPD6YbqCnpJJ929Kenu7ubgCIgXI2PFXoCGJHMl7iUePqzqjPFKlW0HEOyAeoyRZMKqioauEQgnL3LSksGvnTgxb7+9/7M+bpm85+8jOb2gxmrSSEUIPzESsPmQazUtq35yPupCfOk6Jws/bYa43ESivYLwzadbZjvG3FCRigKASgJAqNMKyZRZ4H2DN/2gQDq6Inp8+WLMaHoBcOQJDaZWgYYwfzdDjM6AYjOCprNrI8BHRXgDKErvaoqlpJsxp/xzVNBBQBgJKKLSFTecmVQzQAAa69NBekjU982Zex777zQ5tOWeozvyFbKGJtmEE0gd5kZpWmQq+vabOhiuapOIEE0+TB9207vkENPz7TfYDSSK3FqshTICYRiikbpBqd9WpvNtV+ntAkVWmaqv7QbrZv78Adl7CdLz9AVHofAebp0z0XD4iqe/DaMDRglAaBHotZmcbSGxf33N5ejkn+mYigBHqHdzVn1Gc6BgsAtGFIHbufTNzMUnnoOv4toZDeuj6UZU//wbEH7Wc63vdjQ0OLv/Z/P5+yfYY2EdXVTPGsLD6S0trdPz9Z21EDE0pmFhpEGv4hyThJBl0hIkAii2OjR0OnoI+UNYEsuBJnS5CpXrEtMt+tqiuBMp4Uy/Vlib4SA2MvAXIW24AhL0TdR86kpf6hWIbBZ4bQs0y8CASlpL1DfGYBa2gBQROxs9cpXbP4QD62s5qGVet/KtWQsQgg3ZzflAvyQ5/+Q5UvRD/64RXnFr38x1+mbBQyDAqrA415tg6R2u2v3r2zSVC0ISg5exMrCRF4PG5VbMmKKkg2rBPYA/0Y1yTK1IEYLgRASeYcT54hwNCofgy6eaEBBMyApEaP5LJnoyqLBxFYzJTR3X1zTivLNlNp21ZeEMajFCnu8ydA1Ni+TwZXLUJmoqsvMMIwG5e5ijTu4frvq/XQRCSwQ7eQXbvYSaf/6W+CvPfsbT+3dbhr0Tc+pTOG1mBDR8lTo1nGCwgQZ9/OX5q40HNeeJLEZ4pj9e2qSBWPOXanfEDruJGyHQNUjJgMCr2qstKVne3VIDm33aebflm5vsjqUwsNIA4BUKcHewePWUxUJToRCbmnh5HOZSyDRIcJh4EI1VJsLOZY5sNXLUBmWDgxfBNISmxIUKWFrSPaqLgUBMSTUQk+DCpFfTcFUef2j53NpYaMH3rHaLl94NePpm0BwByRAmtUITbzCCNQ5N74Rw3mbFRPwSOzayikpPA0bthLc1CNKWmUJYBVXZIojX4E0NCkw0ovbn5cN1FUPLcltwDAEvKbjKe179yFBQYQckumwMIep/vEibQAui5cU3ZCrcMokqksTiFR5XdfrY76jFFec7RsGTmJqLKJqZZHp+pBUo1r1GwfQeTccEcuWjT8R1+jrjH3oZ9d4XSe//N/cO7WGoABrQikkzT8rIZFkjjmzponoiG/E80jhFXlgAahPXEtQhgI67ptATCyGJCSgrYyoaO9GEmcqFzbtgGQN2MifRY2fkNouefYIBZUFAsgKoYMMcoHUny0kKlG6pNfMk27+gKBv3vntZovjOSs2951PqpwnlO82kEw+vKoZ8ZVnARkECWuSl2OzxlvW7nsgsFf/+Nyl1t67EOvH+lIP/v730obkQCAr1XEs93bFJezBMHqv96WhIQYusEHkVn3S9WYnXK2Wx/gbSCFc7OMlQVDkDL8kIOR+GWlhPLN80AQLXVxrTlbWM3AchPehAUVxQLUC/SyAZLUuRd6y8dhNVIfi4hMx+7CYFLF6DOFeTAGXA1eOhCODi9tF7dQLBe9KCi746Pj5fbuNW94w+pRAAKuFOpG9eYOQYBS6abH1HDH4d862mF9Rx79wHi5Y/xX9pqpCIBwqFW8WWflVoMEQuL07/mIU/HvjegSdgGRIFcBflpJ7IBUM+U+FBhlBjPpkIkBULUBxZ6F4zSTNI3yLseV8NEvCSAGbKtkChgv6d5TL1hUP5RFJGYoan4IEQFEELPAnxjzxgqOvvbwkQuO4tbw9i3r195+05LOnhU337lx3bqlow/0L7dDACQ6iE9gqY8qGfGK6fPr/8vy8qLhjz9l5sr+e/5r+0Wr47Ofk6yEQmSEmpqzSjdcXqKkKKnO2u31/fm2+CRutHvntPYiIkKySCWf4tSuQcdHnegO0OEyAykuB3DT8V5JVUNQMS8oXcLac5OoXBduW2gmFtjkkcCEpMb3p9MvFi0hXRfiImZQrYZ3AvNizFIkqpD71dvXbNlQKIW4dkSxUqLlPfefPBEFgZ3OtLe15bM2e8MHXtaIQgak1ggudZu0QobCNNz+uiVRZ8dX/2zoXtm29L+8c2Qkveu3j6ZSGgQjTMJZNMUOiotSGr0Ugrt2z4cLYEAb88ykV72a9qTLA+kaULnyVQ6kS0wwlPZsL0mk+wlZgx1Pl5K5Y7OiIpI/1TX/A2DcdLu10EwsEGmrAAbo5KnekROGBa4ja6AZFp7i8Hn5sYfHXXfjlsJVxXYydRZYKaUQ5jf+0H//b1uPD/YGg0cHnn/h6LkXzxzYd+jkRVPpOI5Ftf3RYIjW+NeCaM0dhk4P/O5fbUoV6MEPd4y2Df/hN+nuEBCFaJpcuBDASm3YsGEDcy0FI7TbX/PXuybtSz23GycAyFT2Zzx7PIiq7+OEbAFhoARpFYjE7lI6Ce9WBoPMvcm3ulMb94mf0EZ46efTV+JBXxpADLBfNACbD5eXvPCC1dDQM0P8kbSAAda7Hlx9GlFpixvhKhdWSil4N73tI7/1y/9hfeb4ngs5IJPuaM/mVJq7O7OZVEzxR37t1I3ABur42+IvWYOiwSV3tfmd+MtfRa5ceOy/rhy32v/1Y9uyAJGoKTsNCWxsQFgY+vrjj3996Gxs9sYBExJX7/gVD1Q/7G2OtntcO5NzuRJpmYA0gU1YFfokYPLFCqn+dSRxM0hKMH8by5948T7QqYq84ADCADAKgradATtzrJBJoitJFd700ZXk4KQy3r1ihCncdDUBhCbpDVaKgsw9P/aB//WRh3ou7v36P37+6cwi1BEi+NUGDC1WVYc0OG51e40AoJjfuCQ0Op75lHef+Z3sB18/Opw7+9tn02YIgBA2L4Fcz8GRz+z7xte2PfGVr/zr9tEJL9Dusj8dMUdH62YKzqaat775HUSIo7wNfATaB0SEtGI6UgCgDIm0BBCASporMW0BQB7NPcqbnAiSsibO/bSAxfwyFhxA1DEDkXnaAMR6+flF4aEgo+MG9TmcDqSK9vvz47Nr0ls4AKk1OLBSSkVO75o3v++nf/ae872LTn3981/bN2Lm2imKqlDyq4ZOFV7JgctR8z0qMKmk19/BUefzv/UZI1fQP/ezy4bSzv/+sp8FEfEEJRKf1GrDF449seOlYfT2rHvHIw888oNqwkgeOGr/R7vT8XrTZJtl5gNBBMiOxD81UhRZEtt7sSaiIMPAUEhgSxyphOgKTRQez2/3eX4TxXczfnDhAcRgx7cNyzFByjxV7H3pBDNIhGU2OywRUVx65J06wNWED0AsnWCD3Pwtr/rhn/7+dRj4f7/9+1/uHvjcYM+yXFtaIErViPUsADEbFXHc8MOT178WmxIQRGtn+LbN7f6iwb/+jL4/+O7tv3DvqNH1jd98Kc0aGjLBfSCAo48PHOpddkMmRQUxV6++ew/ARsMD4WDf8g2vwoQpybO/cQAQ00tVo25+43kYtVPC16J0SGaSSM+B7AnvM8fwfrXUSpqUKmI5pm0n1M3HKFxhgIC1BQ9DIQsM/4jqPDtuJ1N5Z0BFLbbCFClse+y+cQRXU6iXXtRKMVHu9je+7wNv3mjt+vtP/t2Xd56P8Ev4pzvbHQBOBnGGY0Ksu66sl8qxwdVsr8aMt9AYSm1Yopd07v/d72zhYfWu94563aU/3G/aoWim+oSfQEB0ofe+Nas71x4oyLLoyMXTT0hQPr73YgPPIGs/fPNPzLsMjgAJ2FNJdJrEoCpHM0GAdgBlAkyScgIVUZd8/OnGU0Q3uCSMJbJyWq6GXC43ryDwpQGEyPfs0HjJIEC9+HJb+SSZOmYuac5DOlkiJk1692tWl64qH53Zt+/Y9Ojb3vWq9pOPf+4fHz9UTAESAZ2He4G0kwac2JhS9Z5lOsFA3BQnjdvO96UOIyQwAIgu6bWqlOo485ufu7tjxH3fh62xjPqTL0uWSWsi3ciSHS1Zvfix1MYj1i91n19283f+8O+e+7Pzt1tnzwcNVNrQ/pr/61WhOvuO26RfliJyK9XuQoaEUXKLQuS7GQLKCrByUVS9n7JVMeUuGSr25CiWkkXannY3F4vF772JBWmHjZRhFwyBhT2FxSeOW4pIiGYN1rhIwVE/vKxw1WgQrzCyY9ePvnOTefSJT/zR333rgqYkMcqIxkdyANJw0ggR5bL+RPNEKmjxmTJgAifxcL9BiyQuLQNS9r1w1Fgy8tf/xel2n77tFx4qj3b/+/89aBkEDSKta/0lBNF6j/SZW59y3IsjF5c9HJWPF1fdmYuk0d0WJ/ObquIrzsVjFBIIlqAAQhAYsLTiBvpT6AywsqAgrMKSxNyQYe0zvPkFmKfaqFa8cMryU9P+9SzpGy8zQOKT0MMYWCTl75KuwxfScxurEwd5jKJ6Z4qvAh3il0Z2PPuhD//Hn/nId/7sc989M5o2RWqJaQ0uERw4ibsxqf7agUSAqtCAlAFESbeU37hTYyqEeBalKITnsNza+3sXHzJHsv/1x3sv9ox98tvrNlFcIKolhki1Fm7Xbe/IbnltV+6NP7nunh9f6wyXs/ZEb5vcTa+jORCaxGxYFNfzogtDjECboWWwE1Qq2q1YyeQEhwsKlDF0SBSXYsWJ9Ornicxbj3iTgtMWgAxfvDL7/BJNrGRctzFqAGKNHGnjo/6cw+oC0qr40Lt4YWMjLI9t27njZz74iz/2pb/6l/3PH0mBZMKDZhAMgZNWQ5QGgGLJqmdWoHQtihVPnwGjRvEhkzQNwASHBLAHw3RH6aOfybSNfnvVf75hPNXx/35uh83EQiw6TppX0+as9yhQz+JHrcB45HU9XVktk+K1dHCd0MxnWdXii0cBSZz/zcGDeI+tHQYlrSWxDiRyQGmCdkjARlmrIJt45B6qWcakAmZOz1snPrrfHFkmDV4hW/oS/zq+au2ULA02T3s9gyfMub5tXOi685171ELFhnbGtu/c/lP/8Vff/9Z//OdtZ1yL4LZNYU2bYTqN765fNo64N6xhtzkWIoAYvg+L/QkZ+aR5yqmfH6x1pY1ktJxqw+f/Go9EY5n/vNXxcwP/+0jKjATCokE0IfMkovUeTXrPnomz1+PdTmGnkophNrv4buKFCNAlkTG+vn0wFSvJqGIjkiBETqADRWBDC3lO4ns1GmqYFIKbWXnXm1QTr6qN3r8QAaJOuD5gw8JIYGgibz93nhpJzfnemZn9vdsWYAeu9kpj23fsfue7Pvzj7/zrLz11pKwJdR0ck7dWmeGUh97d97KFuDrd0JXGD0kGla2tj8johOsKtTKEdPXk5vrGIOUNRctSu//gGw+ly/TY+9ou9g5/7GlJk2hJdAhhoiqabs+zK4k6m0XKTmpRSAGwWMqUufjNoxlJhhLW+fBsAJGvhNIUahWTQhar1rNdzSH7l7T3JgS4VyBakABJbCzPMl42VKTMM8fboyPhVIOneCoBAFVa/2cLqwPXL41t2/P+9//QT/+H1z75zN5jwxmVZP+n23/CSCOb2VZIIayW3Eq1ujZ+sgzLihmuazTfPuroomq7oP4B6dEg13Xh1/5oY8bxfvA/rR7v7f1/v3PeVqTB7GupYXaaUlmqVPeCX5xDQnfCC3MaMAePZ5GZ6GmJTrOQF5CQwWHIngEAVJhRNWGelxLLbbJmIQIE1AF4gO0adsFAxNbh8Z6XjxtqahxMLcZ3zF9cQP7G9p073/+BD7/zq//4xPMvV0anUlxiVhk6OLmcRgDSTkYeP9ELieO4daOoJDZHEOe0fC0AJdWEIjWXrI7UTXPDWamKY3a+/V9+JriHnzH+4+svoG3oozuNmPs3rH+hTBMUSVQMhW44Wx+90dMiQDkCMbJxLRkkQjL4QIQCmzUKArCNEBSSoL6D30NG6jKn89iDdjPrq46Xd0EBhM14rlYKGINibQR7jEUvXLT1nIMUGjCKqxbA8KnIGdu+Y99PfuB//MjbvvKV/ec8u45UtTpukKaojKnYXp3dZSdT55RKzfDRAGn2fcAgQBA1m6qWwJQnPiLxhymdPfHrT6ZzY8Fr3nlR5zv/6mtrbRIYBkFmTBYTUVJiQtGFQcT20gwpbZmAEwIk7yWWZoXlUFX1U2QTMAYCK4SUdOYiV3uH8vTW0lzip9WzFd2rjYUJkOojMYxxUyuxhgZyfMCxZe7vJIC7d+QV9zf2vOPtP/Pjb/7sl585VawnjJSKCgFVcdDsJiNC2gEcwDHCOs0gqHdW42HlAihdsYoabP34ayN5PNUDXAh6LDRz7u8/I51lf+sKX6e6vvrBoxtMrQEoY9pIeSVTSwCi0C3doaqdwDOYNFTP7iUQygaxqWlwLSRdudAO6l8VAiAKHUhc5K6SyQSVaPTMsJwKRV6zyyXP+iYWJkBqSNaOY0dg81Sha/ww5jHKhzS5wWdfIcZevzS2bc/73v/uD737+5767sDx0UwlwiOVXor6sHR9v+zE8zYTOEnCPKx/tFTZoBEqQzONxACTJna1pqa+qABSLBht0d9/bOihknVrAK2WHPiD31y7KRLyXpJ1tta6qbVeX8cgYaj4QoU7aPYpieQ9hGCNcw3XlGgQCwTA7QRQIIGZ9R2JK03CuAhNRCAz8eLPMuzcKEv49AIFyAmnpvOGoLQ2gudV58sX59MfzKJKa3/3Fcinl7fv3Pn+9//cO7/+j089f9aVymEtiBMFNCESOk0lvyCID9N0ZvJzFYgDaAxUsSO6FmWVxpKs+Lsav3mdagnPItd++mOPt5upMqBl2aLH//PeewiGfnHAsC2lo5gyvjlvr2gfZgpnFY7KfHYkAQgMN0UkCaNPJYDkA3B8nQZQMIEU6yhhxbLiVtu6ONs89uZ0W6qbPrQwAaJi3wweAMM6Y4JhnTuW4xcicy4bXWIhVs92/+yVN6UaD2Z/xy/+/vve8pWvDpx17fq6ppoHMemAJwI3VNPUvo6AdBpwHEwxG7MMkAVJIn1k1EKoDQ49IBIKBYWY97/hrezBKNs78usD3skcAC1G767f+Kf0ukjk9LHjsO3UZkRhKEnLbVIEJyJaR6HmDRlz7fEzeraboC6LWS0asNlVIoBBismsFZUldWYDh8eYwGbkIh4O4iJl114Qh73t2TynidfoVQ3yxpfegdsWJkDAnbXIQmgVDB0xHRntHTySDD/VU2ChUeoeR+muXVcaINywwM4Hf/ur//BCSZPQ3OrorGbLKMIJOqY9KzX5hBDgCRygmurDsYYE1FvRZ3VHOpmjY7S8449/80IuIWtfevZj/4atgJA6eUTrA6lUyt6gFIlEQRgEQRRpEKsNVsoyoY//iyIR7E/eNDOjAqk5SbEqyqBoEiBhbCYGVEu/iOQBKRmCFAeBESWJdHjVxShjxvCy1kZVGoir7URRTdxWy3VqoQKkLnhr8RgU61TwXb3o0AuGJiFRU2OhuSMSedtHrpjiqH2ZIETD/cgLXzpvJsHbuVTtoemsZQpUbQR5ADQZwFZdc6MGCKlWO9bBgBAWH3ljTwEoUGOcVpR/PmzrcSiChqZIZFnPv73v6wKIkDp9+sSR45oPWnettSw7nUqn07ZtrVt7l3WQ9fHj/3JaQQQ4caGyGDNm0uufG4GQx3DcYmIJ+Yz6VEhI7cJSZkHKKAUcCADJiF/968xMlCbaiES8ZGC054llGcYUjlXlM+XGK8LLe1kAour2HVslUyOyyvtTHacKqYiF5+ZRaA3ygr/yr9ytxkPrucYCeMD5rgIoKWaagwqRppdfB8MphscLkJG62PbkqqRqXUYYLO/tK3Fa8g2OOgkB1mg5ZSmAwZEChDtO/dEJqQBNqdMnjh358pe11iIiorUe+PKXjx4/cVolUQY58bSa9e1SBSQJmVM7kmln2hJRE5LYttCakECWIZr8uAZTz8rVjo8N8WDbsGN9ERMxepaVhMG8imnmNURAt/SpBQoQaoBuWHINAOZLYx3OcTK1zMPjVuPm/7wSiiNyCgV3QhefxthfPV7JcgvmpEKaPGRm1M/bNKpaJNliE949RF3zbd0vYw2U0ZFhyrd/eSTtNE7riW1B4lIhxRE04lm6FN1ATz9VqTyPHTqlTp8+ferkyZMnT58+fVopJiRsZUL/8nR2cuvRlPdJVHNmCOioqE8yJuRpBLwOtDdgDUYoHBnQAAqVWNmMkIxc24bnAZ6XDDT0PMBzG8cv1OxbDwD8Q7uxQAGiTtRbGhYPQgEUDEj72XPGvKoJtFlc8R8v6x1qrzg2sm3PgQOHnLFyw6xUxrEjxQa3fA7S3HQP694jgqraKKgvNTHrzuakG29y3pEQGu6JwOSJGyu2BYm8IZ2JcakJxEHKKL90QpFUKr/qjNoJX/OJfxwy00nxuTX9vMDGdvT4vx5x45+mCY3j11hnDmCVExFTijxteXFRYm1A8wzdWRopwLZtG7Yda49Yj5C4bkPvvF33L93MFxYsQBDVG0SG/bIJsHV2IJc6XLLmhRCm0sbLllH3SyPbdv/4kaNHVq5et3VLZ0oCzVwLZPl/tBPz63Fr5mhqxL2mzfZWJcZJUYwGC2JAgxGAVJNZfQT4BiOfZt38nQSiR90UoKEVRIMjtvnI5//9hOKpfT0RIfXM3z9dTFPD7PW5PClCl0TV5x8IktoZCIAgRRoFDa2U9kViBVrMT7tujZEPz5vAI2HHdyu66XRbD8AyOrdQAQLuaLAIQ6toQ6vUifOdpWOzTxcys5H8xzC0u/cycFqHztj2nTv3ncCtf9K/eWtn1gBgZ23WqA2lj8aGML+6OZJC08V0G/0NqgsEVSs1mAA/KWfVk5uWkmpescJJ5Yp1WCEQVHEsFRs5ceqRVGebf+QrT51QihJ/Qeqjh4BSJ775+XNoy0RS2auzIDURqf8HMN26a1Go5/+J0ug/UgSBSfuRFZDmON06e65R2/NqBlbCxwgAGXExOQFvA3IzPrhwAcIMz7NrJ8AIGKJkv+4984KZJBPqR4dNVcaoK+awBgfhH1/SRcX1VD9xnG7t37hpa2fOmvKWz817AerrUOoZBOLJtkJxlrGuEryGAxXrEq6lCytx1DCEwEEIRt2ssek05BBSVCWhIx1SKpctHvnKV759/IRSipIgIxErpU4cf/bJrxzx2rPpWFNjUgh5qtOgYfq0IOdWSuYJSuK++wpmeih2xOxsGMIPAc0a5SQMUrNMaapqdw8eYNuAbXvwAMQuSQYoQxyhSeEqz6PuK5YGuQwAIQ3brnchxk1obY3tUvlTQylQ3HI9y4re2IyFuPmfn+f1JP7GUS23fWrt5s789PkoDqz5swjIpFXUQBBrAIJUjPN0sseqBFmVDnYYSd153dtNLLnTMy1YdMExOYr7MsVAJNCSyeTz4ZHhbdu2bd+7b+D548ef379vz+5t24aHI2RS1gS/fJa3T1UuWRI7qNGYNFh/ju/aAEUQGBw5lRgFkVvz3KTBh2iqQiohrMoL7TrXxTM0AN/3AcB1XRcKy263FixAaJIR6ZQNAMbpCx3uEW1h7vxgGizl1T89y5xGo7+xa9f+Y0dWrl63eeuW9rQxi6t35tuZUMg3/bugEm4hQlywW8t0AOm6HhBpsnxGNWBcbZ6d6Q7M4ohlR7HrbiSlYgQYHcxkmZ7rlIeHy47rwyIOmWvmUEW9ZSZ1uNTnq6RO+1UwTpkCA0BopIB0EqpMtqhuA6TICA0rckCjlTm+1TRhedociDcZO169DUi2uGJoMMOH64JSrJjarwwv72UBiDolE5/xCBhQdEh3Dp1UGnOuZzY0s5Tv2jEdgib7G9t27tz3Am7p37Qp8TdmdfV/oOetPngyWhkIkxKCxtBQZVM48ag1qv9NucmJ09ir60x/IeGpMMkj62T6oWgN8X0KyLJTqXQ6lUqlqoNt4xKvhCO36TE3YaBipdCkChQxnFRFdWSVDhPNGP9OAXANGDaFZHgEaFj51CxOxXojq94LsW273rcngqsNAww/xaxC1mT3lXjhAoQm3rxhFSwA1uDz6dyZYkpDG3pO+kMbITjyd4xNE7lt9MV3bP+pA0qv2bhxa2d+TspWoWPempOarmEdYa4V7yhCg86oP4z1lBaONLy5THshkhpy00k2J2ZoIzAIlsCPS7BqNQzVBlmKuOJ+lJs6HbX5cMnFUlX3BSqA0PiYQQZKWkFVg1gi6MDASochyig7saNGbt0KZTIyzUaMK9TispQ4zuuijhee0qmY+8F1Dc3sM2utWTqPvYQFC5Am0YnQcVQEpI6day8fFQscGnO7Is2syV/zST3DZftOYfuOve86RrLmj7ds3tI+j6YynrfxOsWmdcHJgS++W0lA1h2QPClhlolP/ibva8wWq2p8xDAFCpAooVWI38cEMxMzQ4LY3xEdJQpYj9Zhd3LUqmpPUbUhhJJqnAwcRWN995YEFHdNmnW3I3y4TEIW60j5E/Ets7NoayxaVPmHMhlKwRNAJEVwxYhTWqzppivEy3t5AMJFf0Kg0OIhmADJrtLilw6rSeNamroljVEtbTBta/v/poneFEa27dp58Ii+bfUXN2yelb8xhT033/tu7oLAIzM5SwmAmatEeutiQGArPo7DqN+A1NfwhrFBZTQEVWeBVXJfDFIUmRFUEg3gGB9UTZ1XikfZgGiI5C4mqr9AU2K/4RJqxTg5DJnF9v+4okSqsoMqBNwhUiApKMBWkabAEACZ+pNu1jSOybhoD7Ahkkm7XiquRCNyBSSuZTEDmnELjAUMEOQnRSQMy7EiwCod4LYXzls0MRTDPDncO+mymEs3fqdpfqM8tm3njv0vqFv679y0tTNrXtI9mJdRg2it4ZOBSopBT1a0GjomK6mUolgoC6huCCZBEiJCCmfnvQkJxB4ppZSJhCSI4x0TVG07QkCAsJAONSCRKcMNyfvGclKq70+pUrJU7LQ8ldjs/KevdhjmhIVgTQSKPAIYbmTHjKfFWvIiU7HE0Hz5knyN1CVoPNcDMijblgsvvrA4FOG5hmaAsVhWLmSAGJPfQ/uuFQGpF0fa+GhogRmzJ2+owcjdt71xl0XO2Pad23/mgNJ3bto4Ywx3NnL7vM+ectNLFolIiLLBSAYWgKI0tKWDoRNWKEiiVzOsqua9AUi68ge62nI7sztEoOKw1aYkDp/pUCcxtcpA9WSqrNIMBiSlTpqVCvZUBcAVf4Oq5e31/1ezpbPwYJ97XDMRIoJVrTgDwGtllQ4NDUtHkQ6gAVDBmsksR60Tkmr+ned5CQGA46RdF47YqECEAHK1AdCVY2y4TAAxJmVjDV2Ky5D26a6Rk8zz+xz2w+2F5C917G8cPE7hmk/M099oKta80yDUbDFJR2lQ5nT2wSFBGSSRUfVwaWK4RmswUE5ogWSCiVVH3Z6f1TV6514yM/XUQdQYshUAmjQQIeOeshuVoTSpBWskpq85Ju1SMsXuBWDGSU+zeltBdgBwPDArcZJ+QuQnmGkTF69SH2dZXl3gDOLBtm07RQQ7RR4IBDe5ithuBLkCeNbq1AIGiDrhTU77cHTWBmCd2Gm1nxg09fyYKwy3/1MR4BdGduz5iT1H9G2r+jdu3jp/f6PZ/RvzJWii5nU0o1Aso21v7i1ThW230lxYjSMlQVyDky1YV+0X1isMo2ZEzS4AuPdL4+kuU1A/bIAq474qmkRRGL48bFO1PtavaIha96/UFd/WZ0LifxZJBASATqtMYsBV/Sib9ZFxUZqVDmMlycK5JmYpT7UJ62J9NoAkIyhCglRdTVvl7jTa+57AAgaIoVNNynlCyzUioOf0y21yLDT0vD5Hq+dSHxnbuePDh3DLxzdu2tqZvfwJ00uY193MC0EWKQC3nvnnHlgk9ZSEjYtOqJ9/QE0uSeZxNeXj3znKxfOhZTQgTSpneYh0hxGsFI9qkec8k6DOEqxVzFd4K6RKCxZLOoLAgBEncepPCj9KAyiIgCgqJ7y9msRr6nHUpLIP7aoNZtt2auLEHbhEJCJx9WJ1RdNHBxcyQEAlf7K9I3xRFEC0J+gZPqbm9zGslXfnr66885NbL4u/cXnDvKkmjUAacIR8sV74al4EIKPKZl4BQ0pXrBeE1bpc1HVQVUFCCJP0G88S6QJC+tyzr3od+W1dbXk7ZVucFNyTnbLtfEdXpvTC9jMrzLoMoa6iYFJVbzKtuKJ6qn9klJJZ1VWoJzTmDtwcQCHARibUwqPxTdVlOpNEuj3pZImVReIW1RUvWVb9wSFgFkdSRCRCJCKEHP34ggaIyjf5oR3ajg1EVmknt588a84vYc0C/zHdbl853ne+BA2imy1fKlQCGD0Cisd2hpOil6uIonouLKo1gzQ0H8EArNkap9UgLJk/ePddz28/ePr8sMu5XFt7e3u+PZ9VMj740ondT+4/nyk37RamCptCQvRQj4lGBShJ2D5EnXPJVQceUmZoi/3AcCsUilKvG0Wm2nkWbCKiRtXhW1ajSiVChXoGBMFyRAsaIKyansLad1WkkDpwMp86XJzfQS2EYN/fjeEK3j/Nd3HDqVBjJT45NDRJhMkOJDFVLe1JhToA/Ilx/VnkDqjG3rUXJMVzJw7te+5fv/iNf3/iySefeOIbX//W13c8f/TUaNqMkFO+1CphmoTK6nqr0IxMwAiSu08RSKiuqkZ0Brxy3ABSZtnhiGK9kkKjry9NaOMsy5JEtXhevdFuAUAqVSEySqChhQhEoBRu1asXtonVPDpk6IsERLrjuJcpnaH5vjU7+i+uNEBkfpEsY6JRHY8C4TB5jtw0nikTdyNqPrWO65qsSrA/eUL+bBySqkoKKRnGQ5JKe06xMF4uuqG2FSBRFAEKQdIBLGiIsMmsHi4RFzJGbQFIYEWVxkhJASgxkCKJEDAAymDaIC8zLMuyKnaXbUNkQokiAD9l17puiYhE7MQuXCLpBQ0QPtO85Sa0S3YEWKcH7Pypi/NOyBml9GU3MevLC3VDXdW8V04n43CkTOD46K0mDIUqn5Cu3/q1GNNk4i1FcU2KVwLS1pzICPValCe06DZcI8xqITEBqKuHaQIIQROUVwlOCZkMMgS/NubaAB0qMaA40BwagsqUPQCQDDINHPbMgGEko3GQ+CExY8wEL8Xya3qIIEQkrhAIIXp9Y0EDxJjCTLZ0ybOUQtfJl9rl6PxvwvDu3nHl7v9j2fkqkMbYHTMztBYSA1I12VXFtUxKPmLWXla1al8z2YR+EviNAPEBgSaE2kPaB/zyXC4xfQDlGZh8piYZafYxMhE95KtqpJurlVhxHqcdJCUDbHMYkZ8k0qufXK6vdmdYhmFZAHzf92s8DLadoskqxAJS1ZQmRFLpODOjPOsiFjRAwNKcp8cwRoAosrBzbMnI8/P/qDDYsf1K3bXCfBMhNDn0FAeESIvElVhhMhuEKK7bqATwq9OgBNUktNWo2QhgRhC+/ZeNEuam40pN6+PrayCj0fpfFOYa146olNgDKoN47lxtXXNYFXqsYSOMjBAakHyh/g0kURdGrDl83/f9OpaS2COPyX4mXYAfQ0SECK6bJNUX8ZkFDhDkp9rZhmMA2hrcJZ0vn1DzOqoFYC/cXrhiC2BivskQkQbTReu4BlM1uYV6K0qOcBUF+ypxTUni2nVHtWjDvzW9OzScSg/i7FYvT+I2dSaqRPzI1v0iM+eMi5WpjAIzUb3fZBYfWUAUEsiI3JrrPsFeE0rVFEeCiklRHBviNXrrsRYhqRZzUYogWMIfXOAA4am4GSz4oakidJ84mcueKRo0lwrVCl8vBOzwx67YCsw/zpuputFchxThChWWrrnyVAv1+IBO2PYEaysc0xNYsSwDCCXMF578YpwWo+r0s9nEDqaf1GXq8iXdv2k6CQkfgRsKLQFmHCkFzGTCpzgQrFXObXyulEK1abYGrgn48GyCwJukR+xUqlIXJi5ShBVyxwIHCNFUQVytS36ESHWcCNrKZ4hkctpBppBapJeElbPoijH2zruMJ6rXH3rij6vtRmHtWwK0kmpPCCD7Jm1RVXk1MxkYfSHePTSNizAJICTTh67tBo7suepmjTSXjDpziGAhSlzsILsWVIqgldIOSGokr/VBsJRfh44prxK2TQDEa2JrSbWkMYWb7jAXOEDUaa/Z7caW5RJfIVKnn6OuU2eNiuk9a65eAFpYM/znrpCjPv9yXilW3fNKSIYBSOVEFY7Bouo4f8DAyopZZSSvrFXGVypySHQcN7Xy9iwHL9RsPmMKJp/qn9q64T3navZKh1UlWWelKSEsERAQpQ+AxhlgjoLksLDq0zjEzBQ75LNIjcWRXU8qDEA1JSJxcZu4wLJD9kIHSNMwlm8B0MFjfYMK6DlwMps6XDIaCQFme2axlijYcdk5rfWU+n0OxpmusdBpraHrzRs9kfAN6TrC0WTGLInUUQVXmFDq+XrTUpk9M6vLsletnH4KkRE1HAr1pcJ6Fg+DsmZU9+pM9Z5JfLeNCA4AK6PLSUG/26Ai7WpI15/lEkuF+ceTGkZSJIIUQDp6oE8tcIA0p96wAMBQ5o+mBaCOgbF292jCCDWPnSz+mss+fCqeADh/DVJ5k/h/sYvOopNIPxG4cYoNpDKfM2YIDpsMlhLVbK+SxOy4MhX7WqVEBABSR2bY56ZHNfsWeaHZboeEcq+zMrSBGGZF7Vnxh+eTuJxt6Ehi4i+ZkxXrT7SzUhC4EHienarLjtipuB+XvENXdF7G5alymmbb7zM3FJSKrMGd1PHycZ5v8wXUc8avLTAnvc7ViuGhuc5iERH4gOY61jwCTJ147LrS9ZE4HpVXpUGAthqvLCFRaOKKNBLyAAITh91pgW2H0lyZ6tncqJaOmOUq5DSUXeaojtBe5xHXI7IqByoeDpyROThQExW6DaSq0QnPq8+OpFIABMtpcMEDhPNT/26v/Ie8F6mo+/jhbO7okEU8v02pjfKKKzEDd/4aJKoP3cTckBoakxgDVd0Rna4PcMXGlj9p5JUAhjRRETLR8miu1qxqr2LzLU62V0ExEYHLyZVrXdfW1xQrzKzB1E7asEsXDM3EHsw4EeILwYFkiGTYBtKGjlRYBoCirl5rrFznatTayQJM9Kx82wawjM8veIDQNO8yFNlvcRABHcfdPJ2OJ4bI7D+21qdL/r5tC2cBBIV89eCtEcYzQlUBTW20gVU9EjRwuLnq0vU/NMwJ1Fh1hlTDj4Xqwx0igHCVMX4CciqNFyqQOhai5HjW1XhDch96SjsrFSAcvuN1IeyMhEK6NnIRUW7VKhlnsMFhhDCFpGO2gXrVn15pNPPVqVJpbNteVYlYQAq4FT+18DXINPN9in2wVYYB69xOo+P8CUXENBNCmvSva6Io2H3584XzNfrqA0oa1Z5qXVEsWk9tvxEk3v9h/IrJwW+q/xGFdhNIxAkzmhgGAJmQ0ckfXEUowwyq43AmXKKu7w2vD18nKkZrgJFzgcJ9q8vJ5iknGjJlIfRTR46JowCLQ+IoFAD5QmX8WgYZ7dZvFctKyhRnWmw7QbTnTmhfZfRcOV7eyweQc95UDpeY29GJgglEPWeOZtNniqZoSWYo81TSdCMTBfrTl334FNF83aJ8FRZcW0mGWx3mV1c4YNXWO6juRSPJHsrkx2Hw5JkElTFPUq9R6jNGyVfWVMHgOBSthYOaoxQP5Ki3wCq9fqjxievYeKwa/x6MrkNPKcsAxanA5HGzttIM7UCTpUKtwphJPweJP7AMZGUGaPjNjSy7/harSsTzGIuv2PS1ywgQ0v4UDpfGGSwWTytAG3uG272DkQkWNQd2k5oHyI71m5cdIOG8yUcLsUlSv3dYx6Xk1WdpWSJ1q+zEO50IDIQSyhQGPzcxcSYMdZb6b+olMwXjdbLnmQyn0iuI2NuZcuJtPFOusTGMYBUY9neO2KRYNCAqrLa8KxsIQguUggd2CYCu8rpTPB0L02qNqX5jJ92NIuKhUspo24oeClILHiCTS/5rMXcMwnRRgALz6HbdOXiEFJJOmrlea6TKPZc7pscyPy9dkvRXQmhUs1FKldOegEAsVZ8MqfgQBNJJmsTiehdO12wKnspbnlCwMyk7koJON3/UbJgm2DE8CSiI4k3tTzizdROnoxGtQaqcIslkIRakDC1ABA0oIKB1QCECFEVeUvFioAyK6zMzdAkmsm3bVPO0UGlzt6WsFj5A6iqaJ8kprL4FmVwAje5Tz6fbTg0qEZZZhRUnxoM0vOcuc76Q/9ydpw9C+djtjS33ys0IKQWSTBgfq75PgMQZkWrwK67ujVtRA93odscujAJ0bCmxnsS9PmPQp/loSG0qP730zrWPhD03993Wt/LmpZ05J+Jo5i3QOBHeVoGKGYQMFWmSmLA6Ya8/ADiiwUq7cQk/e7GLnk5ns4Rc+VIyszbVOMYInut5QM+xF3EVAGQahXD29mNL0b1hmAHVecrN4kUxdDXpNPtP0EDEHK3ZX76sC6Buv8R2NF0JYsWKhFwgjcxg0CEAEEWkqhM8iSr3TNX/NyEy2Q1ikznu2gXPsdpWFCZMfE8ixOysuO+eVe3pILLSqVQq07ZkVf8Dt96/TtWsxJkTIWC42ogAhNZSW41LJtYgIEsRohQDBWIQRWGCUwGATLZIIqXSJT4s265XxilbPOm5gry8lxEg7VP/6sRBrMJLi28KgEhd+DZ1nT9Giub8wQKAQbRz4C8uc0Z9/k9NkpAC1wdIPQ1H3OA/3DJEIKhq2kcAQbpeH4TVgsZJQ1a4oeRA5hKaIANhI5FW7N3De8Pt5vBY6Aj8IAxDP3DGR0vmTX2djoqJyzS4PhUyWYloMBBZnymDyNQ3LQlOO4QIURDjUsPNEVBUgJkJfegRAEiDBGXhsuMQLj0vW+WTsMX1yMYdV5CX93IBRINpar2Z9tEGz72BGEDP8f3p3LGL1eHqpGezIEREpEBEQuyZl9lR75jn36Um7J4k9BMxgME38O72CvtHUns6SeEasd6Z5ERQLcw7K+rRCQc/QU+Y/RYn4UVGg5gV2K9dQ1gIFt+/KDDrDUU9CRc6qaXRYMVy8NSDgHfDS996dtCMPwzwRQG+7kwAkrZCj6Js7DHZJHAIIpK5ZHzUQrxu3K689Ary8l4+DcJn3KkOuYjGsRyq2GuCGbrr6HAufSyqTAyZnA+hCdK4q0hA7pLLW9hrzmYPTmNhxUVYlV0loTaB7oHPBm1JOIvTFc6q6npX3MpIgBAsk4wbMmq1JrOweyYAJOZsENSRXZGTzmmANaMhCyUqKnm39ZVNriuoq8V6uW6XMNhk38h2ZunZp/e93HPrEd0O4YrFq8wyJEeQgqWRZh1Cl0VrIe3V8V7jkipvPS8e+1wl1Q7Re2WjvJenYQqKpjHkHdwdYTyfAjSDR7dLfvRIhY1P09SAaGLSCAgkwY5LzxfWbSqF+Wv+JA1SF+klHwzQiJlxpIK+2vwZR6MJ2dwk8VEXxeCZ0Mt1/VoaUNUhPrVsB6EvJcwAa1hUSdloBuwI0Wj+/lwDt1+dnZV8wYoRuumOxTkuursO2OP0rdxj7imPNOBHFc/bNQAZYxbDKEeGH2+KQu3yy5foP1YHp1fui9lenV7wAAFApal34jgOZjFoMgEa3HNqv5U7fTweY0FzidBVySaDNbuLl+Wq49qL+bbb+EpXt2ddTsePTAFMU4QQZRqtqmb8cNwwL7cSB1ZWUsCoZ/OUKgSe0ABMeDQhowhEeSfmamBdScZpZg1ICIrK4aqlnskWgMYchdYADKUMlcq3t3ep0rnBMU98H22pi/889Kp33OgXtRaI9sUKiuexRMABa7KV1ioKL/t2jQfg2tWRqJRX38TCBkhSQjRluaKFIngpRi1mzYDWncfHcvbZiCE0t2O7yqnBOw98Orgs4MjlLoPbWN2ZsQSwUKMnSDxKldhYaYbb37B01MzQtAzTqKNe0JO1FnQ9NiasU3lCaFEDECnG7Y1cyd2z1gApzTDIL920JafCGB31SW422FCpfHsb+87Y+JiT1lHoQcBs8IFT5pI1N7dJUDh77sKQj5tf+5Gb7/DKjgIbHITksU4USOVKMpf61OyaJonfcxGfXeAAScKW07zPOaEbUYBFKi6VG9mBjH8sHiE5D9NfAHbMX7zU687lcrlcvAUu9f65YQuHlERZa70gpGAlsda6qkZoCNZWbio2qRhwQAATQ0NED5dk8vghXRtjqpvM6mrkSkjy5wWBQDOgjYaYLiXNwBflzh7WtYpZC2DDgJnKtuXZL1wolDR0qN14XBUUYN6af3Z/UbpXb3rNR//Xe95zz70/1a9e/uu/+RPTBgz4UEGcDa1ryLo8EXrP8zzYMUI68JMLHCDJ20wZxvLlzB20DOejdPJp3HP8UM46OaiiuPBgztYcAPZWXz4iIGPe99x0gq/WmclMDE01b60fpBLlYgDpOKKtoEDi9K1qUlnFcW47KZxqHhKvN+EACYdLPUqDtRalGhpNEuQabuGGmz2hGCFhqNkyU/lFbZY+d2HMdyTU9cwLmjTI12b00sG9B4+f3743Cj3ni1/61J8/Oa6UgI3Ip7hdSpNcQghkCk/Etm0vLnfLQ18dAJkyjGXRy4ewFGm/PYkIa931/Ll2+7BjCeZdKCjB9svF2MvGvB+f1cwCGtXxEU5CcGGpRpywgX1omNAWNXvCQoaBNEp3PLSpEDZ1OFjr5ugA1XWqVA0wDQ4kHU+Xshtu2Em4sw3tdG3MW8rzfB+mn2/PZsywdK7oMSJHJp8qBoFBKmsVjz/xub/89J89PbDt5XRvd9YSgEztAB5g4UrFmBJXZPGV5OW9jACZLoxVDtALKnZTZcA5jz3ttxcPCUPmixAK8NnLlVFX83VCmkdhc0j5cS1g5TAnwOBkvJkOAayN0+QMEnBc7M4TDn9KiXaEreHnLBNg1Ps5CecOT+FYEQJI1W2vxiL0yBnP1JqJvKj2Rga0ig8qERRo3c0mSbozl1+C4MLFofFSpSxmAsGGNiJiGyBE2sguWbxkydLubFcbEYQIYlDkQEeAz16+gWOILtvO9WzAxlJJXRUAAU0ZVxJVhOnJeF5BJRXX3Rd3G93nT/D8SHHj6/b4E5dHuc7bB2HVtMjf0bXG2KSQzqrztmK7KjnVa6SeFbeAFNIEIGNzCMoc/tyJdqFkwAwne13XKy7dAI4kZDXRmLOQJrR554oWaVGAIQnIoKSUOINEsORidnFbd1r7584PjeUy6VQ6A2Sq1HK1sVMWV38icWMkG9A+JVVgdibSoiMg7t+6MioEnh1isW9eHQBB21S/CHEe3EnDZmyRAtDcdbqYSp+NlMzfOOVy24cv0xLM+yKaEtlyXXWpNEaTGpndq3OmGoAexcErjlOpdk/aIRAnFex66gdYq23Lwa+HjWFZFnSRWFnh+VHTFjuLsFLBIJJuLwcgpZglKI2OXLRuSQ2NBtlsJkvFavApk8nUBRMIcC1hloTmVwMCNiCcBCYj0wpdyDisWU+Pmx9EFFnDuDoAMnVzhyUXQItlWBlxBIbB4OjbYd4/PH/rBoBy+3dcniufZ7ieIE1KysioTjMgS+rc8Gp9okacnNTNkhxGgi7FRiSQ6khcnsIfr8aZayBR1fiw1tqyPNd1Xd2hQDCN0QueVXK5Om8hUmHP1lwIrzw6UnB8lcoawaKbQqdULBQKqK8TS0ASDwyhNAsYEUSTEDRIiBHoeAgPlKG0b4QsfhzZzSQx3swlJtInS7bv9NUAED1dGAt0TFMHjUY2Q0Fb0BpsDe9I5U8fX3cpnyrBc6XLcPGk5m2qZZq3a9SUvgNSIAsGKjW1CU+vVIJRAHR9f22YEDtwMn1XS+zOaz01PGrYsSwLUPEAKa21ZVmeK5B0Om2BDVKWVT7v+0O1h2+0ObuizosvFV0xrHTWMqBDr3NtNwsRoVBEkaRmPWcqu90uGlrFdBSBRAIIWRlNDJAGIUoZpYCjtAa42Lhg3mXdvbLo6E9dDQBhgKe59fMrqQM+TI0IEWlmgM3TZ1K5F5+9lF4XCtV/vwxBPkYG8wtE6inMLjOcEJSuFGLFrns17KlJC4z4VK4okNgh0opUpS9QpntKumnYOoLWGpYFuAJIpliyshQSIgZjeLSYkMcrZncc49/Y+6oHIjtnkY7ipnPHuOkG5PIAoYBCsZCvc60zcS6jg0QqgbhQApDErJLJ1RssmkIfFkBSSQ+WL1cepOan041XtiH9cjrpL+opa7JPH0QXIifxUuID29C7wqwclUv5fAruuITK98qJTL9XxPzS6dw8MCGMdMLvk9R312kIQm0iM0ugB1RihsU6JUywFTHPcvBeHUSS9LeFggCWFbdui2RKnd3tbWY+J2nDMpRRKjAJs/aKw8Mlvkjd6bM3vAmjtYGD7LqL+4pFtCW15YVCVYtkEFtajCjWlFX+FIPF0wCYwLA40hSyhqXzGuVE9WQu9+a1sfwO+6oAiE6yZs0lFaALVFzMUGCBigMrL28zMueOXZILp9m9hEtO9pZC57wR2vRthZGUiVS7bSsjZkQkaUTlOGJB/ZVa+ITH1KiLh1brVKOpb0JXsFGtDhEDPsXfiEAymnvSWavLzi9J25adsZhDjyOvXAo53bHsxnHTsI9/pfToiqEwLgaC1qRL6f4l2fF85UqKyNfVkWYyYAOKoSWiKIpLdW0VcDWvZYkrtsvwAS4A5ctQZDJZfQDAzQdTVwVAGKApw1gRXcBy4EKW6vcmd50ZSudemn9DMYEu9forI8nmY18JEDUpQGMNTVUv2UfNIaHExkKEAYKOaU/0JPOo8uKMaPjzOT7CZIBU7H1kS50p0zZSdrFrSbYtZ5uprEWhZ+VyXd29izrSkWYgZ3714EOPlB2dOEYMeLR8edt4Pp+PIVIsFAqFYhUjvgWJeb+CSoRasdZSMR0tCrQOyLKgSSSDmv64fAe+DWh5yOOrAiCYphrL1xjC1ggFI3HnoWIW28J3oyyO1nWfzvX0FtaXevkaGmzQvPA5efEqIU+NdOxpx2OZqb4uq3GMFA/EzFaq5qMnb84V/4NkFi5SjXqBJB745cauTrGdyWDLfLx4F9KpdNa2OGUBTpBNi+8HfmBABLz48JcXvdkqo9YxFZXzN3fqhsMIhWqiL546JKKRjFqgWP3EpiMreAlBtYV8TX1cZhcEpA5dxFUDkCl3mYULOJiWYlzcLoRK4fv43nT27PH1hHlw8Me9IeP6Up30DObPIjApxJ8ULhL+/9z9abAkWXYeiH3n3OvuER4Rb3+ZWVvvXdXV3aje0ACaIAEMQXIogATJoUgORBkpznDGZmyMMhvTD5lkJtmI0h+ZSWZj80MzGprGhtQQBKEBCAzQBAkuANkgFjaxNXqpyu6urqWrKqsy822xuV+/9xz9uL5FvIjMl1VZTeSEAV2ZL19EuF+/3z3bd74zbF2svIotd6bnRuHjMLUKosfq7reNdwaDUCcGt1ZT29JHmqYubRwPeS5+KgHIZxMmo3Zyc/CZPTvkYTqZpHY8BJd3ywyQVEsoIHow+7nFHz889bGniqHghXn/SC72JhM0CQZMG4jYZoQNVFUUQErimxlzzMFrvLSyf3c5HmIWqwQwootHBiCs6TZ84OvC1+lcBu1TjZXh5Oa3BuNv/0t+e0kkUmj+1x/C9X/o7bqxus2lrJYxWUsQ7CTt5Xb7mrpN3xDhtbEgNATgApO00bzcJwBZvaovx7FMMfhnMjDVi+Gxo+l4tGMHQzMZJdkQTNMZMsRclDJkPPj8zT/0R6olCwTCxELOP3V93xuuIYIOIqn1NnqLAUFBBO5mYCgMV0t4F9nLi3zNMXp4Lhau8196dADy+vaA+ZbyB3E2H9fzL0SaVqPfmI/x9WDeTg6J1CwoefvDt+aXHf93bEFqgOQYLpu9wqYR621AwAFfRkSFKoE2a/TAEPjeHQG1al3ERweSCT/tkRUANIcKQIsTfvbZV15ejnLMaThIsmy8a4BlCYJKlFzRYI++9M8O/9T4vAEfA2G5//68EoPdnhmZTkFFHO9c31MFVTKdNRSTV0ujZwLwCjoWD7uq/mGkjw5AsJ2uePIRPI50Pu7odgYA2Fa/nQ6nX2/GX1yVmhXrtTzLn3tJwzu/7wckY2n3v3Qp6Bdp258oLojztn0fAUNIhAl1RerIQog6h43/GFQgTqNns1lnpCkd9seZlUBCL7ioqkaL2X5qjRlcf5LeILxxkuzuLI0dmGGaDlO14Q4N4tWQAIq95c+++UdvnPYduGV46nB6ZsBozQgwhVqJuWtFiGBPRlQ16hScWO9IxgAw6y9Srih7wqHv/HXtXS+DPDyAgGbbCiGa/jaugfxk3Tvg5I3b4/TW9JMxIwm9YoMIAcQn35//T6QPo6vzwRJpXVJBNr+xMlgO89tlvhwCqMBNTAsFlilCt+wkXTJNFYT+7Vw9pG3ijxJQGEJFNKCh7B4dGQOyeVoVuizprbdweHjubZYOk2wy9MFclJFRrQSQ6HD3V774x37obMlcs1uEfXn87N4pgYGY0gIRYcTKADRAKUBB4NifGA+CjBfCbinl2hmyIMqArG55escvh2OxjxBAaMtdQPAyrgF+RG0tqi4XsvxaOcY3fs9Eg01bHIpGz6HVdSDys/2bpcHDaJfht5tpnm480GOQfvbxvxCn3dq08+KoTgR37F0BbbJPhKAAp/WGuyzU2hFP0gYfzZAyA+Xg05302IbgnfflYuElhGWFk9emk8fhrcE4072xCXp6Bm5aYhngo5d+afdHDy8EFK9TWJaDp66fnZNhAJM48VtnFIhBjVYJQW0iXT7BkgQOgxTAZKuL+M4hYsNxGD5CANnsD6YOFifISpQ5xEjtgdRO1mD6G+nk9CY4yvpTS8nYpHTSiL0odC576fOvqNI7PkH0/qoh25PEuhYRAIjVi4u9z9x9dWeJKBxnVkC4QFc5p2ZT1WSU5nZUQmgln1Pe/tjSpn4e++wGAwyfwSg5hpy+dfskCMSXlXdeRecLqt66M7hhZ+kQg5z39gagss5ZASpQxd7tnz35/mdOayEihUCX9J6nJ2cgU9/DBNhnT3VA6VWgoMxKGTuFCRgaL8Y7aCkmXM49PTSI5OnsEbIg2Kzb4FI4fBt8hHJoGd0815ifSb/69WF6ehdcz+DDfaR/NE4zGo/kRaPAN8Lbx3O7BKnogwCq/d9xv67RnOkphEE7/I/+0T6GEUT2UriSN11SMYHFBELaqcmlcZ5Uax0v9xS2z811AwOcK8kMygPovFpUvvFWlV3lvZeAMFvg/E13fHiGEQ+GyEa7ACfsa/tNSqrj/S/86nf/8LzgBrTEfjF53/EZAMO7MRaxLM284oAKABkjAZDYzzAkL1xxCaSY5qurt+JcvRNPqwTt8bfxCFkQs8U/dqm+JnwDc9PvnYk1Pqa9Ly3HT5bVVaphMXlVBv2ezHzzFVIAb9Dbtxxdgto/QBmmV9fU3hJK51IuBEphcZyD/KUFbmewpQqK0Uf9WW7lQxdB0B8Uta542KdgOee9w9KPD/IBbHXzowWoq3prxaHyzgUv6mY0v7XcObyYj6wZUDbMUdlRGjTaiijqe/TGz+3/mfEJYLQZN7rEex8/DY0bPQEZIVhIzYIhgK1oLBYr2KgHBWgcs3mfff42IVJm0GP6i48QQLa2paegt4Q+pLfDIJYJWlddALbLXzfwd0Aq66LLG3a1K2mQZV/+5rdir5XNHsL1kz6gI9twbxf9GdD9EQgJKQakUBsiVZfqCZztYA+OXtbarMG0BZFCoO0UtxaFshJ+RHR4DymzUbp3QMVycWoMvnQhwFQVmEIBeO+c9z5okGqq4fWL3adonhkztslkLxMZDhA0tv8KAN2b/ezdH/z4mW+L6kAorn9wEI0IA7ACYwRAoAhiNUa0HSKXsNfUce0P07sCkQwlvR/mEQLIvdrSC4cnqAjD1YyRMAQYvn6T4V+mxEL9PbJYGsqAwSh5Dt98yUT+Bb95FB7Chf8/5w9SiGnGaWp9M9Kbf5mmSHVu47/XVF7Tu+n2WLfsavksaoglKdTVFXewKioVgE4XwyHqhpCe6UibwMdrMpwcXjNy6k7PZ4oRRqRjnfbDJFUNReVK54O4Walv3eIb9o7NeUAm29sRGY+saBwMpwToePSPf/XZP1ktqHVqIeX+E4+fgUDEjFSVCXDShC6U8qLl5Wc2LCInU4eY0JQ2W+4VT+sBQFK2B9sN/cgjBJB7qCsqTXEIcbuE0H0jG4DBQl85AcwrL3L66ZR8uKzyoRoqF2CHw/S7jPz8S6YeoWLuBPswAGIOHgQe1JIsiNezaM6loKrZ9QQIDLo4PF53PZAmdYDWpzaDGhcLwDJ6LkxQfPIDxbJhOPXGTnkwM6dJlu9m7Jd3L+aMfJiDAEvSiZBMpxLBHEoXfAgi3pc0e3l5eL0oUzPIck52UWbjVDTeU8T29bu/MPjT+2fQzptc+Mfed+ZrPLdIr1ktAwYqsI0yxRZLOBZgQKTTST/BufUEvDpGmmI803slfZQAgsm2DxPMsQ9dHKycITFOD5wWv6YKMi9988smGWaJUZEQQlVVVVWGUAUlm+WDdPBdJD//zVdMEx6++Jbxbz/N25MdDA+QCqGabqRERJuZYEG45pIQeQAwXVWxKQ0S0p5UJAAkaf/KSBcAcPbs5z560lSOOt+KGbCJy7PUhPL0fLEYDodtLJzgktCHwnPwrpLgRcqiNHJrOdr3Lk2JRnYw4aXdyRBAGhk8gI71Z279yY/dCXGHKCkolPvP2pOIB+1feuQpKzFgAUbGQSiWcGcAptOVtvxVeZS3h5HaZck+kj1KANleTxDMkDCdTNAxiEL9RwNOXnkRUCXz0je/KUhsmmWDYfbZz372s5/93myQD7IkS1nkhZ//5iumHninan7pJkzF77gOMgL4vmSsDVPLVZFdTmynAJxeXmONv9qEX5ICLk0BMIgFlprZnkiAocArFl4105OvjrCSS2bL8KUbmmQvVOfTsMSwl4RTwMK7fkYxmobA6n3hfQgSqoXqWxfZDbukoaHBYLg/XFaTkQ3RxikpoIO9f/aFp3+UZ5B6li5TKAdPPhFAbfgEIGiFxtoBEGsFNvdFwz3Te0ZxG52tK6KkxOhj/4IfKYDAbhOPwwzPHuMstd08WAMASR3f/rMX47Mx5pWXvvHNb4oozNe+9rWvfe1rrCLyzZtff/GVV4ypZ9RBlV/87y72PQs9FOkfeyVzU08j13ZzODT0s7R5xT1j199rO+MjqE/ltD47VqJYX++pAGhJdPh7P/Hi7tBFo8FgZvHL4Xj3YHIhF9PFArLU9Yr7EEVfp2XaRHAIlStKF0RKP/Vy+1axPy4kN2Qyu7snZbY3EFGOamWkStdf/of8566factCJhT6xBM4xcwEEJNq28rFOVDCCgAlm4hjEoHWs1em0+l69l6vEGTcz9N6t6evPXSAvLqdrvgmbt7AeURFWE0NC9Tgn5lGngxszCuvvPziN+PrxZdeeeUVY7hnmlX5xZ/+QpZBBOYb7/iy9UoU0+bLNyeEnXMdI8r7rZWcNIYmdWnSWSibttyYpiBLRE0JDtBlepwvMUAz3Mkk45198WcXwS7RNiito71afajRhCCwiPdVFURKWgRe3Fru7BWLUW7MQIfHvJRxxqIkRERKBJ3w53/3jz13KiwNw4FkPnry+GySKsdqTcO0tBYS8QGDzC48l+ep9rb6dAogv2I2vey97mn8/+NHCiDmHnTFV4XfjxmG/QM/1LEoDCf4b16kdv+rqnZVdF3xWlWVX/z5L4Q9hFJ5s27ng74+dAXtMeqGtrQOwgo/sxNEd5KuUBmZEu6P1nNo+gwFCqamvAakbcJLqK6CKAA6V3BI3HiS4PTchSVp0eRPLzd7p/DUq9pO6kSCKrTyvipdJXBhviC8eTG4Fi6SFJzDHCRltTvmoK0HCc0OfucXn/mR4px7HLm5ffLxKerJnxoapfj+IFzDqka0BJSU3j1drP13W5f3YQfpvF2F53XBMe763Jg+oGLcEgBOBl/46Rd5FQi6Hs+pKox58Rd/e3lkJVUtwf7ta/bMrxA8rYSW2/4tTVcHf7vFJfe7ja7Tvs+Wxm0YmKA1ZDzSOiKH+GHcW+NXZ6VzOU9Oz6fBUlE08nO6xUotNtpJAjj4ypc+VFXwbhnkzTvhenoehmwHag/2dJnupCLangOqB3f/iflffPCs/5CL8rEPsm+jjng7iVHlpkqTmyDsxpER33YhTqcPeevqNfnIowUQ7G79tOWzeBJZcbj+1RXtRE4sD6df+KlfNrxtI0bn68Vf/fznb/JuXidbBP7/rA/hxu8lX61bY0rlQNFwrE8aH6463DZ2iRNiflQBU4vVXT5dm76zClouAWB4fPsrGOtoHsKItdBVHz6PeggtJEiRQtZ9mei+hgDWUPmicN5r5Z3wxevF0a4rcmvHGQ2OTJnu5CykFPN0gE6WP/eNz33faei+ljHfGZcNzmMZJGGLZlwOG5sGycJScwxN6N/mYu3IWXs9aB7yUIaPmAXZGjKr/mt8T0C5QteqABg/2q0AMEI+MXf//i+8+KKhy4sHYvPiv/kXn785TVNWIRgFpAwJzEOh89LWxJVi9cmt/Ob1mHToJ7PKEkEj4ZiIUg1E4Bhia8u2BJOscF3aj7VdsB78EOPj4+yF35gtw6hAURR6KcZdXM5BUwxqJpfuJ46lhndOQuVRlq5ieWM6PNZZmmV2mNF+tqzyEftGqUsBHRx9+Wef/DPVrO9Z+pIoamQDFYgIie3cULaRwp0DhCl1+Yn7SZtsRMnWOMTjfc/aRwsg271Nj9fwtRxvjiju6BCaPBbciJvjiYY5fvvm5//pr774ojHGGGZjjDHmxRe/9G/+1edv3sYoH3IjV0riFbYYPAyA8IY0Lq0+r6a/qSNHCWh4GVlZpkG5+31DuqLSAAwUfU6NxnXQJog3dS0F1cX44OR3fvWffiUo9bGx6ZWvPNFGPXt1t9V/caqu8CF4+HK+AN26oOt8oTDWDGk88dXOjq2aydEgQPfnv8A/dv1Mmq56gWVJGK71HZXJQKTJdyUSoG4AYCZXze/eN2i//NRC9it4tABisE08LtULfORAL1KLAJY+48SZEQCpABUBTZJEpzdvfv7zn/+Vf/nr/+pXf/M3f/M3f/PkpBTe3d3vXyspSIR9+lDWwPe2kG5MRDYEk2YwMhhQl25K4nejcwhVUAKlbfWHMGzVspoQPLYrEQCUkUVOUFF681f/yb96+W4Z3L13VX7pKfj+WRVd/+goBoAhQVxRuqoKXtxSzN3b1fFoqZkxNMrzI0yT/VEUZidSUUB29H987Q998sK1yxJZVrHUGcfoWlXl+ieZYYfUY8WMrcyDeDjHcfbsa48cQLb6hPSCfv2Q7ppIDVkZqBqyxINNqJskAmiQ55PJfsoC8t579t5zp4seS70G8BJo/J+/M/V7EQEok54FjMWWrZuyJiHHjnG7Zj0yoBCJqK17ZYmk6c8DjMESAV2IUvPWewd27YYJ7J07JbvS3WdH5esWvKs5rucIIkI0iFRV6Z0LwfvS0/z1+c6xm2aZoXSQHNq5Hk5s1Tvu/fDgV//xe/+8mTV5bvYKwBG0HqxKxACymKm27B20qnlok8naxd4n2Lh6MPLY1/+jRwwgeGv78NnXP0z7WIaBMWu+WAAmNiCQCkAMg8hl9QAR0jRNUYfBvtVCp8gJrjz/7z7G7wQccedwmV/94cTkcyRSeFrP3QOEczX9ZNWlARkEcNZW37hRCwIBaTsCPGhFvpRLnqve235MoTnK2Di+4bfjZQcJ3jsfnKgrnSN989wc0BnnDB7Q4f5ytjMeVj3TKXSw+Pz8zz95WosyxLgi3mRCNTerKYl4Mw6BK/fwt9fa63F8+FEDyFZ1RYfT5zHBeeyQDD0PS7wCI439zVBpyoi277CmvQBWYABiBcTZyTseks1QYcw6m7EdIgIiolAusmG+s7e/t2MPAYleZfSRVRUq6tbxoPCtbRjCt2zgyH7vGVUndQelehVTU2B0Pc7rXWJ+OQS0a0k1THuUyuhlhRC8d947CVIuFsp3b/Njkzt+ZBjDZP+aXIx2RpU08nUE1XHyC7/z7/yhk8LEdDG4zt1JpQqYvLmoFGD2JRGXzQX1bUjepiTfqRUp8f4P20cNILxN5y7FssIxsuVhE340gbkJ4JBmHlS3U1HoNgU1zzpN07YJEaE+xCrN//L+O71iQZ6Pab/RVdlmawCIoeAW46P3fPBwf288Ho4mezvvGQ+X4l1ZZq2jD4z7nH4ZjZW4aQo0hpYI7V6uD12lNA5q7jXXks5NLtsSz7oFH1MsJMWaovdk5Z0hgIGgVShcKMVX6rxk0zeLnWvLYpBaa2COkwuMdziApMlNaHr42//T4z8yuAsAVkgNdzNPyDKk4QfYgfWBYwscrSN1qyV84FeGx5/PHjkLstWABHMXN6Bne1wT3ts9pEJOhpYRRINoNCMakaHatJS6cm1pDUnyX/1fv/udXrEAKThkHRl9K0Q4pEdPfWgng6+qyntfVYtqOH7io+/bC0lWdqdiuhTLXeFwIQDVYw0IwNB4UFKzygkAGShYQAS4RkhKK/HlgRlsrAfRtvgcANkomzLtHkjP2apL5Myogq+qwlelesyXSy5un4+vu4skzzJKB/uT0ucHaRWZvUqAqh6d/7z7M58684CXOMe3aaZPjCHA1v5YllaVrc6G02leP+xJdzFt1f++VmQ1uMsuP7nrxSNnQbYXdwV3sA86zXuhR3OnSRKVwgGt9c210YKiNAVSONeo1dYiB8Re87/94XdmP+o97IRiVL3dt2LAkDm6nqGqQqMHzIyqKpchvf7hgaM+xdwrGEM9GaQAZEFAmyZLYpCeKZA0kotBCWBSkKYwsawvvlo+94NPbc6S6nZ8AIVBCeik9zimveZdbfg9Iaj3zmuQSpzzCZ/e1RvDCzXIh8z5obp0d1g1Jo5ApOP0F3/jUz88LSG+z9VXVMwgajhlhheO4uAf0klESN/LuqLQew9Am7K8VCZ38D8XgAApbiNhzLjhGHVeSMWCkEioqwNUt1SlEADOwa1qazIMsSL/yV9/bvLQrtre0+gzYML4xqAIbY6XAYGhBIBb2KeO0noQg0ILJhDMt7IfWLi8jl1QBx4J0RBQ/lSMb1OVXiFElWAb2gufP/4jn5isFOTXz9x8s/U2qACabo1CGrnpIOJ94SovgUu3LLKzu3q4Ow0ZUpsNzH4y1eMdVHWzF0FVzPXnf3Lvz5qpIBqMZvck8fDKAGiaJVY1kfGUQKYdOrIKkfxBiyIbnKlDvnj0AHKPrttv6rO7OKeE18Ws4sFjE9REBo1VZifdKe8a1U5opIsP/va/+NjuQ/BAaxqVy+7lW4mICYf7LZWiK4Y4hvFQXx7vyaD28QnwqdLyif/s6AygFfpv3Yuo0BJJPSiEtB99+8Zzf/30E9m3Xlzhpt2n/tE8AdaNlWcJ2kcIA0GkCs6VlS+5dNUynb95MTpclgYZ09Ds7Lj53l7m4rlV+1n71c/rv/uREEyc7ChaAQROGUDCgyRmCQKnVZ1JI6JaOXKywQW/KkQ2PZ9Dnj16AOGzrWOmXpNvfABnYbA+t1ICGRgYGxmjIvDaJu/VpQ6ukX6qFQjt4G/904/v5w8DHo0Rs5vDE4nTyQU6nhShX1RoXA8EIhvC4vAGBqqkwBAcQAiP/5OfuTFo/JO2eJgAiTyNmwlAlNQTqBTK0vTmGUCG87ee/LHsI18squ3+er45/MvmpG5N066tFupKLguQ4F1RusqXvlwsl9A379hrmJJhY0dmOAZGeyORLthQHfPP/NZ3fWDJHaihALEKDTM2KUFTdR6uU/8iahUtetFT/iAQ2QT5D+A/fQQBsv2fpoL3a1iMGGtKgRUMwBCEUNcFam+WGdDoYDm0Iy+He/+vX3xu/yGw1Ki2TQCcbXv9VixHfUvMbsddPv6YRRtFhsXRXkntlOcUGL/6m08YkAe06jJT1qDmTynVFgSEAGjNdrGgsLj7avkDf2NQ/p1bfM8O1c2v3eee3nRI9bws7bK9UPXe+aoKXsn5YnB+G4c7Ux1lhoeD0YEtMc7rAEZICSrZ0Uu/dJEBsNAESABKyDLUDE1KbJEaBLDPAZrIKnqnU7q3/dua8tkQhDzx7uvyvtuVnBVjKiX2SGc5rcXoJgjHzpBQ+vZyFLVGZwq40gEEEZMfHP7XP/9zn9p/eCTOGJ1729O4WpsnKwzQKJUNK0eBYBAC1KA4ukYURyVH3AyP6jRP6AaxoWFjgFW1HT5lu+3gjJijz/z4f/DnX/jKL3x7x2RbsJFfjnQbqhV9GdUWET/p5bIaG6LqfemcEylR+mKweLPI92ZlkgKU5SYD7R8YBwAm2gqVHZxxI3zXNemLscYwM5g0AB4ToG1uoHZe9sogtysXPS4bEadHYh9BgGyVmfC4g2vAxW4daHf/EtNChgGUwuIJyoYU8GCQA1JKk/Fkf3/y//i//8RPfXx/8vCVLNxayYNXNNqwWd5aBEIUjBpYmFAcX4sFiBxsOgIJepy+ehYsAbDtwFvqb3Cnk+vf/0N/fnf2d376l7Ejm3TX8jy/Vx6IE35ho9LL9HKkzghBglbB+eArXznnF2lxdzG47meUDzNrebCTuuFhXkmPqSZpGqk/CYBYJySGmlGeDwZsTR6cFQ9M+jagJm9Op70fdvfx4AixeCxk/3OyICnewB+pcJHTet8tew7tHrIy8wNTVWqsGe7M37h1kaBME/ov/i//w0/8zGc+uz95N2Y2UuiGP/WCnd7rbNOeYxKCRncxIBRHN2pOXjAhnp2UYlhNW8VuikxkB5DR9cO/bqFK9O5X/uv/7n/44pvjsazWzOvXfRwStqRb6FtToGnSpcbL4oAQqlAUpatKcVWxSMpbF3ScXmBggGE2yBIkOzstv4sIMCl6tLEoPKHCw8TmdmiGg+BE/QyANbgkJLvSnv5Ag29XEEJFOk0fRYBsn8v8Gr42RpUaDpFPEprv92CYyD9ZwrBPuLj71pt33nr9Gx/+0z/yieXwwP3sP/rsZ3cnw3fLpGoFrbv4NieylNbavBkMFkSXMCAAxqA6uA6dTmfVF6uRwAAmHR4uXwrY0E8SqK8ChLQ+j7H3lZ/9qV/+Zrazs4Oi8PdyqTZ5WNPor8mlIH3dy6pbQ+rmd/Xqi6qqvK+qaqHDu7fd/uFFkWQ2M5wP1GLvIG3zBfBck4VqnmImNgeETTpMUjsYpj5kXslwzVuu4cD36ofY5GXpPRHyFL+GRxEg+dY01qvC1xAG0YI0wS3XQy9NLbAGYlRk4JYX09N/cuO7vuvThVCeJu+qoZPQjhmRy+gQACiahWr+IywwdcNEffXijnYAgr/z0+VgOBiP6fYrv/VzJ6lGNn8KKHIQ6wtApiBqxRfzppyQ4LWzo6MdS1Fc8aro6L8M6b0a9VvR6cjtBSNA1PtQOu9DSWVVFYP53fngWllZ5szCDMzYDfeHrpvoiW4mWIKkrgqBjRlkQ5umAbb0AG0RBp1Ou2Ggvcr6Az60o++ALu+7AZA5tsm23BZ+HM4YCj26ogAIzXlmYMAImhKrtZx+/PxDHxbDOqje5UW40HTbpJGoiZvrYgVBIhBwEGVVJYMAH4BQHR3uYAeL6cV4evr7v/KL/+bka8udppfPIfZuw6NReW47AgkMTpA4DPL46x5xNuYV0dGNiDDPyLahQtMpVgSxewhRH5zzTkp2VbXMcHJhjv08scjsIGdKXLaTB1eH40nUbCBC5CXDWALynNgM0tHABLZed6PvVavKtZdJjbfXQeTqCGkap8qyxHdCl/ddAAjvYZuKzrzCB/Qcw3UVePFg1NAQT1aDMEHAmL3xApLMLdm/u2sgYyk2WI74Qpqm0igddhleALBKFnEslCeAM65Gg/F0Mkmf/7l/9DNffOmue+7Zl8ue40axSUQBFqLIvcwhChglqUBJTUBJIV5LvVI2tHPVpvGtH/dX6bJs2tQjQqBe3DJUVUnOLxfC0xM9yskwMmMHZjDW9PgwdSAoKccZLylRfWIwCSmQ52wGwx1GlnMgYMIKYxok0KQH5b6CQ17fgt7Xx4rgKEpkGZ74DujyvgsAoTe3e5lzXKdznzcZxvb7tW1PrcfZZBRLI/u3FZ/Iq1WxoIcDiX4YXqbLNX13aQdwpGmKskgJpAWvQoSBgAoEpWDSNOPi9Pat10Oyl1h8/eVzjPxh9rvP/fHzO2WnN02JWZYgwPouFuDoaFEGR/0ay5X9DurhA/bmlzRt07x6pS0QEIL4EErnfOFLCssSy7eKyUBTq6m1w9wMEoweywslKFLYevRP8/3N0uQjTgbPmWwnTEEwRmydAuyH6rSxJqJXHgU+AEqHxyR9JC2IptjWYz/DEbL5/moWK0azAbFsVgUwvDOGAQFPA756FMckPEx0QDCG9FzBQZivpnXjf9I0jfOUSwCiznC9YBz57yiOn1kaY9OU3dntW3dnFWfZJFGi3d29PQPOL/7etf/oB6mQKgQpJcxUi9ODz7JITgRQQrUfEk9mJFrV0boI9Kqqkauhb0o6v8/td63F2toQiPhQOalC8OWidAXL3ZlmxiYwWToYsFGnx3vOAYSKGRClZj0MAxrPjJxzmGEuTABRlB6otSS2X3je5J6vnM2ytPORRxIgQLGV2DRFVsHtRrqi6b645r8nABCstaKmVoCeBVBW6UMGCIOB8ThHBsSR4o72evCIcwwaqauygMqMYUxZD8xggOshT7evv7+qqvO33rw9czQcD1MO1cCqJSJgIkDyS3z9c++3g3R59+z8Yoj8A3/h3/sYha9Oxys7pGU7pUBSAU5YK7dxW9G26KN2WoYQKvU+CNF16xIbJL0vXSWhClVVFcBbU07Blo3xdmDynJK9fVOBEkcNbybuIMMNlZeR2y+bxL738LSTjGvdrEnfy+pzs/LNxJMVKcFW4SaDglL7hUcyBtlOV0yxhN3FWxPD6CSs48Ope/CCgcCwMjEbFthiDhoH6DcergWR9igqSxTQkiXRGhyoy/eNv6uqQx0fJsZS6n1jgQRgsLXL37xzevt0ESgd5wOjKsKhGnKwRETGwF//6M//m3NMPvRX//M/+zf//R//Ux/L3/O5u7/9r77wW9/aawUPamI/iOudkyRIrWxzkVa4j11FoXXqLcngarOCWxsSmBGCqKr3zhXOB3K+WpaDxW2XJgnDppkdDEaZw8HRsLSJEsBoU4tEphkYBjCDRuPR+57DaT0INObWAJ6soHwlmYUtbSIbmDZaKFSv8Rt4NC3I9iEhd0FP4cI2lYBO+FgSg4AKCHFghqfIu0pO37z5jIUW8jBNSD0SShha1DUzlnhV/dGxQFmoQoej+cFod5jYLIHVWrOBbcIyO3nr9PaLTz8XhnmWqoYAYQaLywhUH5p+Hm7/ztdf/N2//w/u/Ho5v/3q2Sv/xc/8/ldeHsc9zAQwlJmgRLE3qTcoICDfOLBxbbZp3GvdQVS6+8QesvLvNU/aQAQaxJVV8CWXlQ8F+btLY60hy6lhHgwGPj2aMHx/yjso0gNauHxckCz84x/aFwZIRFDnwTel1S4ZkSvwFwmg99Jfe0QBsr/tE+lbwu/T82iYg+mtmXDckgaQwEwBxAKAJw7YA/R/Lw8TH+PxOO+5KwqQJs1J3pMRVQA6mpvjwWCQDwbpIGGjwmwtY3n3xVfeCkf7+c6djz078yGIgAUViUA0B8QYMAGaDPPBsHr5S7/4U3/n7/7U78wW+fHB0R7VcUf7vJscV9f324Ygq1jYMON0VdPTwt+zJLfFGnEIgEK9iHPel1z54AvC2YIHCREjHTIPOEvo8IA8OKaq47O2TB3HmQFlLfRs/9m9EiYY9Im8k96w9XWXMe91G94T4grgxndCl/fdAMg9LN+bihs0k6GsHye+DvZC3CUQaiYFLJ7G0LDshIeJjxVbESXiHNc/SXvZRECHQvs2SY0dj7JBusOD/URkdnr3pddx7T1PP/FEFuzdz3/6/W8xAyzgyCAJfhglHuoqZFAe7x9fP772+KHNB9wI0FGUIbW1ylY9Kb4hOfUzU73B2JtCu5XXEBVr9777Y4PaHkOIqnoRVwW/VOclFKDzczEDS0mig4EZsLG4kQUC2ZQ6dW6CkOVmMwX2nnCevpc8TKh3siHibo5jc2krblYvq6338xLH8vSjCRCjWwkhb3hcRxmGZn12to8dhgzAe7KQWruAZ7deQJ45DMPDwwdm/UdU51KblGGHDyig+XwvSbKUE06Gw53dnX332jdPTivO3/PMk9fG7BaFDfn8Zz/93FwMSyyvAzDOjUx91ouK1EoURARYqlskuglXujKoneLvaV1AncbXmp3ofnhJEjqFpxxXdFeiAph2CAG0Cr4oSueq0hduqbS4XZg0JRib5jw0iaWyGSpl6pCbWEKwiQEE/NyXhGTGNj1/6vuSio1pOTxrKicR7vXsEGqtSNtueDmV0Fukg++ELu+74mLRtiEhOihwoLo4RDDSin0yIJ5My6BVMEOiRyt7bwo+MdSlCQ/vdntM3Tb+k2DQDTAoUZYa8TExZAxSS8Mn95avfvW3XnSPP350/Nj+mL0XISWLkN/6l3/4iWUQ7oZnpVWRJTC1aHU9cidGHdwq6FJdiobRyMogrBUMen+ZTmtT0UDjsm9VvzLMgSmuWgnR1XpIZDZI5bWsqoogi8DhbA5KrSHwMN0ZcKZilaPZi6AHQxUmiV24Cpo7A7BOPrRbBhiY+uQgImbu9d82VcPVG+kLO2y2JBmOqvQRBQiGW9hYHneRGEx3gNDNNxbAiHAAEhiDoHHUnQHAOCuArx56PER/k7tMb++H3vQb30tVqGo+mxiTkBkkVH3jV37pty4mH/3+7//Ye4+D82VNgi8JCI+9+Mt/9LisW9UNAFYTfAphE9NECkCUBFCKTP52b9JK5Ll173Z24wo3qGuel26yo/cCTNBQueClLH0pxRI4X3CSGMukZLOREQZbaFpfMHMOqK+CySyDADEq8J7tNP3IU1AkwYhpGkeINkAkcnyxIRzZbAN9SM7wqAKE22rOmu3XO+Bd3BmR6ROCAFSSuO7PUI1UDvHXHvvoCzSUhwkQqTtppa8jLDoAu9UdlecgTmxq3clrr/7+Tfs9f/JP/9GPH5vFab7nYGKqN0QI3PjqF354d8kMCIdYRjShygBWiKpXBI2jcki5m+gZQxGGNP6WrihzOV03KFd6pVEkYiPO7qtyEcMQBFVXBie+rJyEJZmLc2+sIU4TNWwETOhreAFQhKqiQRotSBDmYFC48OQHEy+miS9rTKwLnaBxtbb4gZdAYjJ761EFCFneNmTuZaX3YJql62dY/zwnkI3VOBbzxMu/8QyNK+AbDwkaEIzHl+9ZCqyVrRXAfELV7JVXFlV2+Kkf+sHv/sBiFlyYTBaT/aqeGWgcDCDy2O//6g/sFWCBoMn9B5+SdMEEUywVGwtqlRqagdKcdNNi2wSOitaqBw8EEvP2NdkYdRiCECQUVVlVWjmVhTfF3SqhzMCkZkBzjp1exoAAMswiKhC3CPkkh4ArDyFDIasWhx+7poGNEdPlrhpHazJZydKtmJHV7pf1esgx/W8eVYCwBbKNhEV66cP8fpyHSNrtf7G3ddLXYBknhysAS7fffOMmbNDwjgohsprDksuTccP56xyHP5UoCgU0z0FjqTyO3/PY+5483setF5eTZZoPaJgvru05iDA4KMey+o1XX/iTadlIddayOo5MNImARj1bAmLNo94V0ZiYmAeqBRyYmGlD4eNqpxPAqBT38dU2mY7+HxTBizhfeUdUihSecTK3xqaGTEaBiZBxFOUFW9vMj/DLRWq/XAEVWStjlAAV/P73JIEB2Dg2JbaIRIxg0hXXu4gdG9Jaa97We78zDenvCkBeFWxmvOvt5zHGQjLAQPqzPH3v8QRlBLYMKAP+6WcmIPd/ehi3yHWOd4MaG70W177MyugvLBZQzNPx0dGYyrK48Fq+SXsXQ0uaJ9PjiY8WSREl7iT/4ss/aguOVUjTy84pEKi9VVIiZGlSi8bR5YignbGzASRXxIhfF8umB3rodVYWESHFvFKRwsGcT2EN2CQaGCzaJLHQ5m6FpTgHVNQDUAOngLrl9Q8OHQxgjCVrqc1GNG+cNNm7TYnfFbp/a0be+3TyqAKEkGKjASmpfBYDVOWIEaSZFBP7LTTEpnQDowpoM6todg6MjMrgIRDeWQTjjuIicXx53JMDsxTnPbISCtU8H8mck2OWcll4lSBlZRfno927PCTsyuyxPLYYKppxlof/+I0fsSWvr0UIqNQjtMe4pZjKSpJ6zzO4TWv1Sxd6OTzdhJG1pNdECbJaGqGNJRPaXihRhSIoRJx3PpBXlcpX6fRMjLUAIVAsFKoBGEHi8BwwGF4+LhxTTwONHDMsJx84UhUIYEJoIUuXgpF2mOGqFVnDCAA89vz4kQ3SsUS5yYRkQX4NO9DiWGDaqVLCDAm1lD4CEASkxAYgCN19AXnG+g4LIXG6JPJx/L76xm2nlb7QoYhLikJkOBzJbD7bmbBWqiriFeSl8snsZLDr00GKfZo9NnTc5OAAgJNr/+qN79fAK0tLkcQdojWMo02azE/s/NBmisCaHyUAhw0ZphXaeCy8U7+IqJGnPNmMoHtFLhtcUhHnnVvOFqWEpS/T8mRpbZKIT4mRZiYmeJFaCDWsMiZ4kRICYfW1jvAFPvC+YayGGEPUteFSrSm3WhqpE9i02dMi1YHe+CgeWYCQuAzlBhNi6RYOgItLoz6Nb6hu3dDweHF7byo+mbt3WAiRGh4s4Pb5c7WgPjduONzPJ8ORzGYzImA6FUCD81EFKIS51+nZeOAyMxheh78eu4eiqhUgYtJf4z9R9K9TFIbgVEDdrjOm1sth5qSbebNiPeoSPK07R1EDlIiwPb8lFmXfVLydIcyi0DoY8T5U4pwTLYvS4HwGQ0EBT0z16FMDgmqrIUZfEkZQFiTCtTOQVcXhB3dDPExMJPc2d8G8Kk0aRerXrWXPiCggJs0eXYAwxVrb+gvQE3zG6d2MDYTbigQYASZqbMBAPNohe0hmAV8+qIbvDCDMwHhcn/htZ/XecdaeT3mOBc4XATppnKEJK1TZe/HiCaJVxbPzobqcyuW1yt6wnhSEVt0qGf7z9Idvay/uDSCFaqMAXVfuVx69giIBck02iuts2GSjS3WPoN0m/eBu7dcmD4IQVYiKj8JyrhBICVtcCHkQbBqzWLXTWAuaSe23SgAE1jduqAMu5tf2RTeMXG0lszor0tiQNUer9578I3iELchkc5q3LOk1PH9QJwkb8yoCcBCLqNkbKqHojsTJyecBZiBLvLMsVpMEYzTS7IIyWZRQAHlsDM8xxMrU+zpbK95X4gOkdMJn7lB9Phjyzjx7HJ4DGqI3KjH0C/s/crvlKLcdL6oBqBrr0PGsGvE1aZorWgKKQgBfTzCbTB5EpLvIVmlW29Nd99sUIQAiUvmqksqRhqosvV2eSwVCAsMgUhNvwzerwAwF+8LCsq/qWApIE4TF3mNSxamntQ1pIVK7vZP1UGT11TJMCftff+YRBsiWRpYM+NaH+AbOY0utQgTMYAI1ypsMmCCBWvY0uQVoVA3DN94RPjAeS6wONqIL4LCs3atFnyO35pmp50ohoupF/FzpdrVXljlhsDPN3lvLLwiiCoVk+LnDH7obYvAg0VtcmwilrZIJ0Bgf9V3Pajcet38mTCZXxclCaXtqeLL+zLePDNJmTI9oJb6sXFVJUPFLKzMh2DLJTLw9w0lOpW/aQeKwk5JRZsPX6y9xsV20SB+feCWJfpal7lab+18LRdaC9V7j4QfIProAwa0025DF0hL41tfow3ijGrVZpOaGHZMYBtgEDSBoPGkkO724+UyKpco7wAfG477idH14J/PLo5WJ1rmx6tlVoQoCD6kc9JbsB28Io73z7Ei1HngbnQ0ZyM++9w/drXq+HQlrP6NN4KTTiqoAIDEgY9s6CPXHYk5WHs9VIJJbFFtywj180Mp5sFmfpw5DRKvKleVyWRXBleIMCgYyIlvHE4YWZnGneZoGKjRfMlB+/IfP5ilRHIfLAAo9Pgre1AbdEECttj3zBhN3KZ/V/NtT3yFJk3fHgmBjHYSgOqxwA3kxpC6BHllZ0puwHPO8NcFUp8AEw8K8HYSI1KM81j20IBykO9fze1YVOHj1ohDVqgTe1J0yTUmHB+XuJCgMIBzqAuHA/NJzn7pbMysQpD2HG9sgKwueUO1ndT/nnmmJGGPufn5fhNCcVDbbhcm2Z0VbSiEadfZFxftQVlVVipZSioBgjVFDBCVDnHNenfiY/yAoOIh6mK/s/rXxG6oEl6rzArBfjJ5MK7NiLNv0xNoYkU4f6BJCCEcfeoQBAt2irkgep9iHzEYKltBfiNC7FgkKRRKpPpPl0xgmS/zNt1MIYeZVJWoGINZXg6FLtspzdr+tDXdPpAqkUOdK6C2aLNOUdJhdHI3LekNVAGCkGr7xDz/3qbdCLY7HDHhV6WXwidis9ON1oGi3CnXtjVTfRwPx+3paE1prGNyED1oDidnmZ9U8Sw0+VMuqCqKlF+U0MwNriIgjKULZhnNvAbCBQIOSxdHZf3/yZz98y1lKQQgKKNNcn5g4NrWb1adoNjMSJpcu8hJCMr32teQRBkhPvmW13V7pLVxTuntgjdTz1KK7kXiYmPdnI0G1k7eelnhhzCqjt5/GynMR5miuvK8CKRbLCGLaGLk2kgL13z2HSjR4EVXvBHJmhzOTsg7Gy+Mjr10dIQQTrr3yC5/6zN1aWzWyv7QKserXyo1GMgkRYqKXadNlqG5KRGF6T5CQfQ5ug1HovYPvHaqHFe8rNDYkuLJy8yIoSoUokYmixGosCUCJnp1yAjIQDg5GBJOdf/Db3//nlnfaqb+kYn15eI0qA4EgGNsjZNJGSzfdgBApBh97hLNYwJ5rkLHmY+EWkkJL244gbNZG1LZ8c22axgGAlgAPWeltAiQigyHwlU9oqKBl29d6VSGmoN4H8V5EeS5YnI6HizSxZqzVU3udzHAwQAg3XvnFTzz9VlLvNQEqaN9g1BwBAnXdIVq7GK2/QW2fd/3Wrhdvck9LkvGX9bIOZR8e9+rH5Uu1QgRVQIL4yldF6Z0voKDBMGNLAFmAyRoBrHW3q4xJIcEhAAOf3fitn979q8d3kpqZrEQgvxw9PnFshGFqflZbDQKvJLM2FtZzgN7D2aMMENqspKsg/ZY++x7yKcAG2tuf0lY+WLRTyACweAF8WPbV4K8cgMQohAF49lU20OVyuTr0r7Ywi63nFQCyYFEVEQXUkVNa3BnbeQajB376vlGF2vwZmGCMXHv91/7Ye+ZNbbT5mprKLsjZ2P7hgJaenqQ9v8H2kl9E/Whka1AxmUwmSBm0+k+TNXjcL9fbMyGq7V+jFSmqSoOnxFgmAowhywwOTACZ4tvlCBpYAkgYDnjM/+0X/9TTt5DGTmqQKtHSHx8GNZcJqOsIaYqGl7K9x4xHGSC8jXur9KZ84xia8hpyEIQauV4O4qHNo9y7ozCpfxtJC47ltzxlV2WkWBZM69hYT45s2zAh+FCJeFHxvlRMz3d1kQph34dnhw4cqkYNLwDXn//NP7X3Vl0IEaW1E92QMb2TnCkyoFcSnOtbuPkxr6Ck2/mTySRuK2cB3+6q9eQwb/LZ+mvb8Q5jY0gk6ysgIt754MuSoKPB0BJAJgixIXhwzqRI9JvfNhx0EWLI7eB3r//Cv/6hP377DOKFJdZJOcz3riGS2YK5Z0lmU6S+yPEUnn2kAfLtdNtdn3s8g7lJqS+G3yi8NtcivWxPch7iJK+bbyOJFbzzPiwVy4J4VXGJNqWwVg8rbom14BB88BK8hABXwJzO90IYGdC+o0/uVGIQQgw7DQKu/dYX/sQHlxWaTheN0ne1tJo1sVTUpq1UyFBM+ibJClBlJQVNTZNuh5FJVyGZNPB72m8rnPDqMdA4NuvGOQR0wmWqCDVEAARkyA7zfMiGWE3KsU0hZeQEJGn6xgsuh3hmIQop1ONDv/2LOz/+/tsMBgkIqiCeDx6bQKMekOlRs7bmsrrO20W+wGOaPMoAISy3jA6rpMQRLmQAkhUunvENnw8VQhydGYAAPg/PIK0eoKew/sXgXbW3PxyCh8MhXVK17P7aE6WeTDe5L1qbNe8keEjJPihO/EEpQwbtL9PvShxMDZEYiRy++Fs/kIbWd1KtZ7wnBDCrmhohFOl9HGmTWUzwkhJRWvdc0kotr41ltj41ToFSJ5tTemttvaqXHSvpGlq41xRMgDGpNYNEhScHI7XMIFBiBga5VWORsyGT5rd+/3wgsBY2fjy5J9766df+yCff1KbMowC4kONDI11BZH1DrrcbdsuQg/AeeaQBAtIt/oriDq5jGsaRabTC62h6tRMhaSZhGiTVAs9MHiQEYSD4yvn94WhZDIcDlOU9lTjzbvdNN4Mo1B6HiKgHnMwFuO33FjIwQP5W9lHyddYyojpg9PUXfowcgyDqSNAVOpXY2BYhra+fMsU9zEm9cy1tdvxihZwvRSRN7EIv6KXH2vyyrpGBe+gwK9shhNAKfBtrCGw4YZNmoMIxNCEoEiYlYoLCxFK4NbRT3bwF8Q6EUgELVDuP/dMvfM+Pzuf1yDlShVJYDI+TsEogQH+Y4WUvqw1Ty899xDzSAMGe29zFpriDSUjLPXMpbEE38jEoQuAQB+ycXAB5Ar3qioivnM8G+UiHA0JZllsy/FcoEq45Hl68iIoow4HlTewuTGpotH/r8MPiYRAQgoExASbkv3/+oyhWhUIj74qJYGqEXH4A3FkNbc7Wy2XxXkSy/jRNnBoql8CxjViiipXzZ+1Dm1R8krCxLAScVklCBMOsxADlIANKOB8ZwFJmby8hjBRKhEh4f/z5n9z7Xx2d1B5WreiyNE/sVEEAGLtyEqymstYEwgDY558nPNoWZLsBPEeS43yPIKsEXWW0pcOg3kCaDXQBjHh52YZczgRI8C6CYzgcDLAFG6vyr/nleHjzKgWo95WXEKRAVXiWE9qZUmow3Dt56mn1gIl53mAQDCX/5M6fHhRMrbRn86VsmKhGSFsw7I0s5CQBoRHsbrntdNmOtLmt7gVOn1EnvZ/3y9a0+ZBQ1cY/3LgpFMzE1liGKMjfmlljBokRMFsGmGSQIB1YIAGRsW6cl6I9jexq3/39V/7Qv3Ne1jesSgKqqsMbFLuprUWP679aMFy3IV+hP/UdzPK+KwDhraMb9AIfeRJ3BozeowNAAQxr6oqxANT2Hl3gBR5B/qZsylKtgKPa2x/m+XA4GGywF3Rv/wq0fa5fPRBWxAfvfRBU3lXCxS2ezK0Fj7OT9zwjWud5a1NoB184+QEIQeFUIC15kBNiJquGLJouKgvY3kjMJGm1SI3ZipF1UdL4GkBDyoZlvaHqXmYUijWINBMM6x2bpkyWocIl1H/7xAwUbKyAmMASeDAZwisUCrXWPnkUwNoNxdHBzj/+5x/6X+IMgJJEyhmHYvB4Hrjl4bRVIGxESITIV4DHv4MG5N0ByLe3Hd50R77+OBaGiCj0NcGUFW1fRNBYggJCmNx6AVA4c2nCpqyDY6TagaNnP9YE+hT3sB/3GGMRRLz3ol5VxBXK4Ww4mqUZ/Di7+57HixDqyXIhhBAC5b+w+L6lxLxD294LMMVoWevBhkhq4cWVcFrRxi09jGyLSXpNhflNCKQVz77nS1cdrR5EmoYDBUxUZeA4Q9JxWWl68vKUbGLjlzCx5dRUxYKYDQwreXr8RlJo01rvAMX187+Nv/LkiYJASlBVISr0+oGPvJPeuM/6AtZzWZhOga8AeAofe7QBQl3H09rG1JOn6XFcYLDuUatw8C39JARwHEWm00TxXE469D2vqksKi3jn0xoc7Sf2Qw/dmr9aw8f0vvuoDtQdFFoF8OJkNCytZd2xp88euSZFGk1joP1/fTKM7696ao7MiTFEFlFMMaoT2la6unllGTGxacedtlbk3tV/MpCquGrA1ic7NAqka+CzxrBlYg7RZ/KsRLp8+aVzp6PJ/uHh0TifoPRVsciJwamxUBPC/k7tYBG5FKzQHfuTX/2xT98uVEGiUfmaQ7n7mA3xHOgrdK+le1fruxOxjzZAsKlnR6GqdPdreAwXMrCxQlWn9olEsraTRINCRGAQgn16GPDV3KkRYNzOTpMYNlfOJ9kw5z44VozH/aX02+udbrMc/XUKUnmhIEG08qCLi0Eo0tTITjX/1FEIBnWQbgwQBv55c3mFmYiMITKqFswgZunroXZRXNd9bEzP/6B7iQCpoY+7qw9vWwPJGkIMkQHYtvtTVeGldES6ePlbr736xlu379y59cYrr7/60hmPm3UiIhOcybnukk8dvAKSHf7yz334Lw7PEGnusYFYi/T6JA5eMUQ9ss1aurd2s74Cwld3v4NZ3ncHILzXiwg1CnnGB1BWuIZZuQdCJzHYJOAJgRWAirI6AwApfzE8QwMleGGw8DjSRyRUzu8fDHMeDgcrIduK8bjn/JmeAZk1+KBeGWRlonj0/cSHSrwXDVJWHnxS7FaLzLK5Viw/exAHjoWmJFJxCgJ87KCMj34BJWYyhtgatVHosa+b1zpTpfbPTbNWcd4aWQzwJc3xoL3oTahQX7kIjGEDWOLoREFj0QZBRLQEAJndeePl11574+TsYhGqk1NmkCFiIWYm8TQa1leRNpOnj7/9D/THP343Ajh2NRAVfO269dI/MGM6fBNCQACOnuVHHCCSyFCAwWAQF6HdlZ5OkJSJ278UE0jbt1OfpgEMBHc6XYCGTvGD41wG4xzjcT4Yp8neQXSrsn7vSbmS1tV7u919B+tKTa0BgPrgfPBBApcugO/4a6FMgeygmH0qdzGJtf59zRiSBAA4rxFCBBN5vQZI1jnomq2FWmZjJzr1NUKAehr7gxv8dSF1AyaQ6adCVCGqUIhHWRE5iV3rpVRV4cmdIycwKxvVCJHBMAYhDoIAAmTf/vSv/9AfOSnblIMCXM2HNwYhSp60eV1qGAMrag6vKAB85lEO0oMrlkv32I3jp568PszMcDCMZNWmXfIE5gjTPGrnd1EnexhlNmCI1p1GBkDIZHYTSRzFzQzxzlUZKRU6HDRqED1diPs4V1v3zvT+3iIDkKDqvagX9VyVArxVHBRhiNLun+tz7AwQPSxTOyktZ4MIFaJuNzGTiZEH6mY7Iua+XEnDcu4ls40xBoRNIOnluFISnV3Zpbq8XDFxEPEBAoENR95YCDVCVCOpqipFXClh6ZzzZZidLXKCwJiUxGSp5eUgp6qO0eOT1uzoiz/5ib8kZ0poJZDABa7vVCKCYLqx6rTOf6/XRcLz2SMKkFAV8+LTn/nUx74/yThJJofH1w7H6ZAJudbCCHgT/AROhx2jIe4k8lDiJo3VMN6RpkbOn35mDITX4dk5H4ZKS40F8nvugvukbfJ8c3rhXm+LJkRFgnoNTqsgmbwZ9hYYGtD1k9FzSWWAENr5cgSNeuuxuRYAgXMiZkqo1jyImyFFy3fX5nebgk+HEmPset6KVo2JgZzRfcAhqrplpKzpbBYZCyYycXxUM/s3RJI0l2VZUVWEsCwkeFeWnpazWc5smckYVpvxsNRBDjQTu2IYenznJ+THPnXmlaXFDQV/eC0RbqhZLU1sdXfSKwAIy2eeeSQB4pbFpz79iU8sCw8HkiCVc2L3rh1PojBCngM5bgp/ABcmbeevRJSQRyLKph6oISKhbkXCGTDGzhuzMqOhgnQ4oHuC40oRav42l4oFXqoQNKiK+qLI9Aw7M8qMocOTa5+xLhJOAmBMjRJfs7DaPZgTsSU2ZC3aMcnr5Y3Ij6/ZBSKtNItZe60JzqX3yEto/6MUG1p2TOdgkaVamCVyLSl2BUYti1BWwlpVblYuw3LpQ+mKUmV6ASajMGRTExLOmGyKsuTe0FbdL37q9z73J88K5f51l/kTk5js6ymeNDXD2s3SGMzPbj6KFsTNq898oojNbOxh4+Gp4py5dghCXu/KtxQHOg3xULFdkkZDHAvCzYQLJYsUDnz6AkbvC7/vdFkURCiKouvG6v8vugbG++Imv7/ZWPn90BXPFD64IBI0oKRQpMVJtnNBKdJ0cHvnY4k3dWI2hEa6161UKpk5JyJOTCtZUDOHmRs/K4muuGkAge1sTWN6VUSCQRhfwbMSaazCJsoiDJNdW5kuxR6RGpz33ofKFUGKoCG4Umm+AMFaZhjOLPOAyGgWtZdbN2tw/NX//saP83njZMXuHxcOD7x2sfpKWb2R74X3gDz9DhTs/y0BJMyrzzznuog7cKeJEKr9o/Z+wuuCAc1CZuuzsXbXDdTWtTEGJAh7bwyQUrZQ8O/8/LnQ5SnaKxhRvfIwpXxrAWdTIbJ/nwKCeqnEe0XFzitSdzLILzilsJ+99uR7TzR07D9uA3QoqIaBYc6JmCghQw3DVtdywfEnjbZWjZHVDvtecILWO2MUi8nWCKP/fpENtxggYowhU8dHcZbLyqT62DoGFQlBqmVVzMqqKDUEXypVF0IESowQmTQxGZCnFCROR4FAVVmO3N+Vv/qxO9pbaIGv9p+gzuteb8SdAN+Mrqc8b/CdQ8hDAUhZfPY5T/U5SYD0RkgBwU92m7/5tMQYZ+GgrR43xQ/hULPWBBBlLZAYm5TlN8NNvCR+o/P0IOmMDUv64ONpQgxTgxMNAkdlWVQ0uzuezK0xerz71nufq7ixIRHwKlHspy2lMzPnMZfF8Yh4Dq0zxdxG6QzijjtoOm/rMkpMXUskIVTbZlVteJ9cgprARF3kOKhh7e59PIi89977sqpK54qynM0Lv1yqdwsPmXqQMcQKTlPQgEDjEYU4FIXrAv3E/uTvfc+PXCyoWxSwLJOndnwQrAYiZNbUHH77o3z1CtcfCIAs/SddXflpgrF+5zN77ASAZkQ0NG9hH9lyH7AUYE2jyExChox2YToXBeZnb5wt36qQ7L3tYGND1L423qtfRd9UdV8bSSwEePUueCfqQIVXXJwMzMJaKnd59vH3OA01b0OjzWi/RgEBMbNhjNhwEif8aQzfTQsgApDEuYVE7Q6BaUCyYa9HhGhK8IOVoaD1rcv9RqwQyEIEpq8UXHtAtVYwaU2jkRB8EPJeVbWqKudny1BA/cIFnS5BYGMMCafZYACm4aH1/e9XyY5+5e899h+OT/scXuYqHN+gukeEqOc49rNZkmZQvHX7OwSRhwCQuXxCm06YOnEZVqdDqj0EYYzpdKZ3MGCaDnmlNBZzoNKPZS3efP3NeVhaOgPtvaO1uKfztanFdXKJBhC6tVKFei8hhKAqJTnBYHYxDkWiCDkVH3nMNUTMFWYIEQgqMaVrGDkZMnmNIgKZfu/rqkI1dW2EPYxsupcix2K1KSrGQdvQ0XY6Up0zMWxAsK132HfIBKqkGof3qvc1Wrwv5865UJSipQummHoyxiTKZA2b4YDUXh/5Feq/6nX527f+yidPtZZnri+lzJ+Koy6MUdCmdJZ3zwL6FnDnzncEIu8cIA6fAHStzNWTtyQgYDDT6WwGgO4iGeDcEMOuKNAISMjWT98JYKYLEA0LnNIzR/Tw0JFvdbLoqotFgFQBIUpeFQI68weuGmagEfxz+7frvb7aOJbEogcRE7OxyIkTEKL0TRJnmtV+Vocs6tSqL2FkzT3SeK6oWws99B7Gg5sDiowBxBiOFOJewbD5HKln2EFEfJAgUgNEfKiKcukqcdBQBPYXgYzR1Bi2NjM0xIKODsT1xtwRZDz82V/+wT9xOmPhFsGMip7Yr7wAwfZY2NRTXqxuNs/q7smjYEG0+mRXxGk8k46sGCM8ya7NJtFmvij8BKZpQgxIt0Ft7c7EyMQEMPZ3hsBiiAu9+ST0KmH49voX7pnAmq7iY7K6MtqakBjFQuuKurqgvnRUuAyn4WDpjE0Ni3zsMQcYGEjX6MF9H46IDVvOydjI21cig7q4HsEUu88JfS2gjuNvNmURCNChbVqX23tfg8eKJnRLaCcDiNT1wToAotbra5Y+ChyLiKoEEQTvA0REgrpyNl+Goihk4ThcLNRYimwuS5Tr+fLgiUHBQm11CJId/+uf2PuL1+7WNsQCEJKq3H98IIAJdmWSSPs8PH2se3j6Bx8g7nOXJyHB25VJMiw02p8CmKB6XfgDeh4GxDGp2waAmgSkXLOBFAQd2MUiB24Bx52aml4RKlf5LbpHGZ23RjpCCqhK5dR79eqoWqbuTPaXSG3GVkafGy6Beg5T8/Z66lrQur7HbHhEFs+lrOCMoHFyRmNEo++xlsRtzUiT1VpN0arM0lbAXjcFK9Npbyx5TCoTxWRVUz83psUHQvMJqnHwFMSLiKhU3nuvcYJIqIL3VVEu3CKEIrilwfmFEqcJQJQOzOBwVFT5U+OVRlMVfezsp2Y//kfOPOq5LcTEhDB8fD90Q0I7I/LpTwPAsvdoTt99L+udWxC5/BkETlfn2AoP9zGZYBLefBY3aB4yu8Ys8sGIEqft0xVUaQ4At57G3jYAdDBYE3Hcsm6rBXTdjo8NCdC4WiFEjl2Aeh+8qATngxsUp9hdEMNw5uynhyEARrRlqrdjS2tlaibDBsSxr5ZR60rUo0ypHstmWqYBdVFzL3F12YqkfV2rS+hYsR6mSZeRMRAYE5nGsTxHtHYwqKqoCCoRkcrryor7KvjgqqUrVVzwC58t71Ymdk1yknrsPD4/4ycOUfXSHgwZ7/78T3/mR8+WXOM19qU4HN5A1IvvUU9AX/wiBJAPm+7QOj1/t43Iw8hirexGggLSSou2xaVBumeMMTr6LezjbrXHZtXrj9QkRpoGACqG0yzMcgAnz2MnDO5nLa50pflVssQTTOvNpZvarEwtfuuDVKpBPRRVKAfF3UF+wcaaYOajzyTBwIO01ylV1ym6FBEnuW2y/s13GEOWbCOrSNSMqemxWVeaxi9NJIVrTxhZfb4tOiYrE9qITE2/MrTqzFCXM2tfMN7H7JU06BBRqBcJoaycC+KKUJaZv+uVTZqSIhnmhBs4pyeumbJtqIeQgq9/6/994z/MbkeSQrPerhjdGPh4XhCtPij7W18zTWXp6sfbv0WARCZbfycRIN7074oBQZ6ahHlPX8ExmfkOseHaZeAmPV7/KQCAx+OHA1oAehEwTH2evx16SB8SGz9BN0NkJcOzZkKAoFBoEAkiXoOU6oIMijv5+IKMNSZxRx/XClYvQzCgHW9AbCzjy0QKMgRTA9KsXhoR9SqB/bSCuXxOTScW7l6Vjloui7mWo4oheetekbH9FFjXHhJCCN77EJyHioiq9kCjIvDiXeXdfF4EcaVfGPPWHGwIRGCTMl/PLhY7xyMXCSukYCWFHPv/7/QvfO7Ck7QW0hhTDR7fRy01RiurV2YfMytPbzr7gw0Q49fklqAAq6k51K24vyLPbGqNTjEYpbNhTO4zNQP7jGcWSwYOBpDgjq8/Nh7lQDWtYHODZrb8g+Fk0YJjMzo2GJHppc21hRjsQ+V9EAlcIRTlYH4nH8+ZLVKeP/axOBdEeD13y1T3CzERW/BOrhhliDonqtrGHdTTkVgpLtOmpxZDN8sxiaWXoDGdNpwmhmm7TshG82FgCNRJVNEqMHykN6oEEdG2WNmL3UUq71xZOOdd4UNRlCGd3QmGs5QypnSQ2IOd2fnek4exkqlKMfPp99Kf/Kef+jOLedQDalzKgq7dsHXCt1cSgV8+m9UcmdZMzv9gW5Dfsms5Xq4D1K7HgAEWodSySfkEvI9Ty5GKpb08Lyssah+rGl8zJ6cEQJNz8MFKHPGAMHlQUE031yR7JgSxm0lD5dULvDovKtn8bJQH0gyWi/d9WCpt2n4aeV1dce5i25xlifFAnV5VVdPaZO6syP0S0XWWd5uEWIMOZmrDmuhdRfdqE62gH81Fn6or5Kuqj/CpKYyq8N47t1xWLoiU3tnqjjOGmRMiGEOTG3Sbrh2ZkgjMEnHPkl579W+N//rovJbIj26VDeXwqUmd00TsSf4eQBG+DuibqHVRIzl58QcZIESdUFxbN6aADcdcaqwlfu1DfISSDBNzrThYMxw5gNkYZ4JUg+MR7twmEIZ0gmcONu36K238t+maXSXu0oDgffAirM4Fh+ziYmDIapYlVHz4A2ehG+zRiixqT9+GSEGWgYTb/VpviYSYV2s090RILbgwlue02PpkOzJkzV4wtfngmN2tDQivWc0m4KgzWgr13vvQajxEjIioqHfeVVXlfBAtxDFO5jBp5QzZxAwDXbenfveJvFSK2WiJC7Sb/N03/oPvuVsCNlpSBcAV37hWk71NaO/9/0bP1r5oZ0JksSz+4AbpFNr17A5IzwlkNU5H8Kkhm9x9nj6IimyU9+jaGgRMMBpCqp4O3zdZvDTfi5L5U9x8fPv2v8/rKgX0LY4Ub10wadLZkEo0hJKVylAiOy1SZqM+ZLb4+Eed9Fvy6kBcDa2IJhoipIO0TluZmKKhRke3dw1m+/NrrUa61YJEcDToIIoJZZGYvAJW8dEPwqN7FYMN9T74UKd9ta2QhAYi4qWqqqr04qXwHjibik1mS5OQhSHz5OS8GDy+Cw9SbQTGofn4p77wmR8r59bbSCtgsMCHgxupb4wIQN8L4JrYZvBj/D8Rgbx72d6HAJD+aPOGy++zkePVTcfwnBkeTCvsI6RjZqbGG47HE3ukFsHbw/c+bV976YyYMZtO8cbTuPbQLcAVb+6Sj4WuVAPAS4xDSi6p9CWyszIBW5Mq7OLjN0qSdStABF5p4SAGEtvk/GM5PY7eYMNdbZA2Rx2rN7RIvopiIzgM9YaPNEiUNnkVfaAm5biaSK8LhNGnat0u7dKXPYiIVK6qinI5dxLKwouZ3q7sdXsqhuxoKGHnBk5x49CWfY0fVvPUF/9W8h9fe9MC3gAMFmZIOXrPPrxE3zE6KU/G8LbxsFqELIviDyRAFKDaVBChuXDAXbfSPde6VlIQIymmOA4FZ7Enm9Bom8GrCMSMjt73vtHr37gTMhiaTQDcBnbvORz8Hb2m9076bn5J28ctoZIg4uBQhhI4d4bZwFpoeG7Hd+wUanLgqiuLzgRg8rg1Hf/KGAa14T3zlR8fGTztmnvpCS72NVGAuhop0lBJQDC2N6+k68+q01RQ1RBC49vUOhxdcr0bJCIanA+uqpyqyFJCKm/NsDM+CxnIDI3hg+FZ2N3PfUNHYhIhhMP0Z2/++3/8boAVjpNRwUYqvXE9ifTFKIQjk4+YOMW9Ll32bEhR/oEDiKoESTlOD+qZOeIZHTheGeIkDAkpm4sZdstpNcaq+0HQox2rh0++9zF9/esvnyVGTYjbd/EC9qrlFFumt74D43e/paFNZ3ablI4/EolDPpWSEITlHAnYKrKBZmPVPj5aV7SVLCCAVUDpfmINXdZgeNDbTQildF7UWl8u9QJ+EZjGvaJNJ0DX6xvD8TpnVSd4gzRmpbUiPqa0EJwPzlfzqgyyCCXz2YXuHMyKDDDDzNLB7uly57FRfCM3RjIM9n7x85/6s2dzBpgFEIIaqNt7alg1vuj3mT+cfPHV114uGw+vRYiIqmr5BwsgKrJ37cbHbW61K6oRCFCSt/KB7xXJBCyAo5ToAvZx50dslECd6YfPjsZ55u689NKtJQaNbAOgS3166AcNY4oeqinRt/2rFHOSvq6oe3aetIApTirDDINuFjZFNcVI8hVC4/VTl8XVkU1WysZ1Epq68tIVbpoYLzjZkkzpRzmQmEJqhnOY1l1aPwG9agjaGI0QVsgr9dldUxlC9LOgvvSVd8vKC4rCw05Pq+Ghm5kE0JSxc1Sd0/UdCm3AEx/1jRf+29FfPb5du52mDmuL5PGDVr7gA4f8KkpFRIh2CEGESPkHBSAKqMj+teF4J98ZT/pzO6EgIl4sR75/OLEAcIW1kwLPPhnmQwaM1U5Zk6W8ePO1l7/91jSkSRLbRGgCghQK+5i0RKIo0voQYELT+P+4sm0Kvf9qXUlTEafqgle4UgsdhKlJTGrUmL5zxGzirldptBDacwZQtmOb1OSP2IpLZlVlPXo3tBHTTVk2S0hDugkb8YNtZHqJCIyJ3h2timD2WabqfQjwvnGoRKQRVq1ftUPWtnUieIUEkdIVZeUqH0QKF7Li7jw9sieSm8Rkxkyu0Ykc7dvOAhkYGBzr3/v2X/iR06qbC0FQ9XzjRsOB56f4DoAWIbWXpY0JefgI4beJD1W1x4PBIEloZ7gz9r3sfsy+Jcss6/UaRYliK2JNqTffQzOTkWEW5nY0RXjt23dm0nUFoY5bbfFR8F4zWT7+J/6B6J0AhTDZUvO4Cn2hU85V0RA0BCkJoqVaPweMsYxI0qaeMFt0sBSsq1lbQpKMbNLGchb1mJX+zZmGNX15BlWzZukzkKLvW3E9spTaWkqMPQw4mo/VskcXnNd53J5XFdGxsmdCIzQn6Ca21QMNvZOi8k7FFSXjbKqT3bNlCtIstbg+OllOjnJol54jguT7//innvnxi2lLzlQiUqkmT0ziDuMb+sZHeghBP8mm74YN4beHj1df5f39xCY2tRZpOugVv0BEhqAFHTju9fpHFok3yUz5GOcsDCYmcGSxEqnjxPKKRgeYoEX1u3jmYN3FqE2JrtIvHtB+tFCgB4xRwsovqQ8SJIijSkWE5rMEShRP6N4up8YVEbbKbZO9BRRk05ExdZOVMaAUWGl6XckNMy5x3skSIem1g3Tq7oZsc+5IhAczryxa6NU80BiHJpMbvar6h5Eb1Eb/TQVGRCQE1ThbXUSqUJV+uXRlECk8zPmFjK9Nlxkn7IzF0dFZme3nHEXxTagFLPiJO/81/42dNxHj2vqQQJXdOIYHIGN98wVdsSG1PksTiMgfCAvyGoUdyzYxKVtgZA52fGw6rhPkQb2mJ9nAr3w+g6kIo1cV+2GOMTXqFbUnQsbWybyWJm4IoGF5gZtPYFMeazqd9SMTerv24+0ATDRqdSq8iBd1EhQI6gBaLKIoYYa+voAx1FRQBJYJ/UgEZLLxwDTunkkuXRmt0xVW1E6MgTEYADKMVQ7bkwbq2tljvxX34p++AWodJ6B9lA06sGFiDzOvqMKLQjVGIqFyzrnKOx9Eli6Y2blPrssJMkqRMfLHqovqYMfG7HkkbTJEdtOfePkv/fB0yaQU2yEhQMHXHht4BN3RU6qpimXRsvBbN0tUH3LN8G3GID7YJEuYyTJMNsiPjNZgp7rRVOxyeeRXvkgg0GJw5nEtPZMxCAyOFfd4wPlYR1ljk86TOzdx2K+0rJuSVW/7HkBZy+tMrwym7S8TmymqoE7EUaW6VKWzMmOTxEHnlMY9aOoOH1UNwcNY7suuAmSH44Ghjh7foqU9QZqraVo2DTodHgDA8KYIGbPWdNiQCuMycyMMsUq5qqHR14hREantydaZb9x5WgAkKBTeAwjiy6qq3NyXhZRLb5ZvXvDe+LwcpNYMUzu8ls6L0f6wIVoJGMLQ7OBnf+bpv+JPiHvLT8GNn9oPMtj/yBuhJfMWWK1l1pH6v22AqCoEvx4PIiUOhuRgz4OU6nGP8b/2NNkN3ViYOuPuq8rjU+O5johbMUFmjrKBJk5daeex0gSY4ALY026xVhAw6dytFSDcf6NPpw+2MrShmK0IddN3CCqBQCqyBMzUJ7DZ6laOYnAUGeKi1MTprTYpD3cGcVG0zVvpRiWXhrBojGkysiIiGOLjfroCi27WoInjp1vLtZl91YtEgtTm4TI2QmjdssbTCp0RabpRtPKhrOYOGsLSk7k4lfHxvEiJDGdEB4eL0u7lUTarraoTXT/9b2//J+95M6arNZ63pFV67QbPv/tf83djDSGNCWlC9YdqQ/htoOONN2K3LMMQmC9Cznzdiqmjppq+hsQt9oP2EoLxA6r5DF87ul2kBqy9IhbqOZBtcVEbBOjF00+PWTcjYLoWlKylNbf+feV3125y8iArF29RfRAvRYVKCQKD8ypJ1Da1B0MgMgZSU7FUArFJWkp9o4w73Evb6XMc84HUiquB4iaviyW12MmKvWB8ydOKNpC0flb0kBpRtstnSK+moRpq47FhEGIIIcCES5SWJhoJCm0K696phspVjnQhgZcXPj2cnadM0KGh0aGf887ExHIqN0kezXf/wfN/7o/dLokoqkQQFFTavf0PPP+qpe9rkwcoeoFIXRHRh8s7eWALcuetNwEH/AA4slGNvzBWdna9tw3xnYhUoOld3g3r30M+zPGRI+MGlmC15V3whu3K0aug14HBcjxZ3bkbrcQlQ0JvI9M12eZnrfkt8TmYADCLBK8ulCVU1WngUACUxYRlwoA1JvaRNAip1LBpqoV14VBoeDBQMVQLvpPRdjh6c0NmpebXCTkYY0yREMJulCfsgNEd9NRvcL9kOzr/oM1YXXarmmnXXdjexSZN5lc1RiJ1IOLdnIqgy6Wa+Z2lvW7mSgYmNxju4NxN8jS0E3+ZlJSSa5//h5/4y+VF0yxVBx0++6SpRPC96H7WulmrvJN/SwBpZpTGFgIYQEXsWZkxHkvEU1fqIoBYz/LQxXM1d8Ke3dKvv88sjCqxqUl0MR5p2q3brgQxmADhredhFZisNsNtZp9ccrc2oeiev7LFfpgtaxZMLYrjvap4VKVKocEsp2IDIqkKZKBQw6y+9pkkVGKGVHPgG66nSH6cKUAGREyANQRijqIm3EbU1E0SaVNKhhkZhNlQHZd3ZJOYJ6Rtq9ZL8EofHSsJ3fhaa2xuXSvmDkAiCmjwqkFcUVVlmDtfBll4G+5e8H4yk1HiNUuzwf5uMd2dJF22U6Gkihtf/29m/+lHX5N+Uwx0eQ2zo1z0+7+v52Zpj/oSU26iWvxbsiAnd/v7s9FXODfDMD4UQtdIaKAG5iKrTYj0UpKTlz5MO3JCo56WP/Wvhoi4beKeMvz02Zuf2F8Ck+nGuPvqhYzpFeBzhczuhhI7c91OVFWkkFLBi5mmCkASIPaPBe4aqIhCIZQAsjpfLAxvZIHUApaQMLOxZGu0NDdcZ6hqV4sbG0mkTApqE7G9rAVtZSH0PCuRlZRVHxvYLIMRZxuGFYggBIhKHMcjIpUPLlQlOdGlA01Pw/h4cZalbKy1g9GhnA8OhmttAdAD+3Nf+qN/7m6JblguIezra8PH9lCZ7+3crJV8L1qElP8WALIi2FdvGC/Q84UaHEP70yhFWdkvDkOvThj/OHjleRyGc00IZFS5ltCglctp99FEeHj7d/HlwQDgSzZkG0am08tY2AaNtXdPNsf2tIVv3l2u+uB9KGvV7gBTLGICq/mC1XngSrKUbt5B++MqeywTCsQgQ0zEbGCpkf3hnvNYKy/2PMk8RQiGyPRdy64esgEaK57VarWjQUdLLL/v4dFy7wNEtOZnRVEL70pyQVyAXdzx5hi3jWXVzNDwcTqT8V6f2woAOrj+z37y6b82n4I7ug0ffvguVfvXEofv+95VNwsrCHl4RfUHsyDn/bc1wRCrusRIvuPrEnudahdCeqJ7MZHFrfiJmItnsbO3xAikMFabZFabz4o+lkRdJmbMzAxmzzf7cwNEtlJPpr3X28jhXtm0xCa74FXFu0qASgO4nLexpzZzBnvzTUkXQcEkX0K/lapKr1tvopsVpX7qghAzEfX8HrL9Ykc9YCe0pbJLzMdNXlXv6JNmp6+iQ9fUV9dUY+qGkOad3Zq0dSIR730Vyoq8SLkMNrw5M0c7p94kKZuUcX1yVqXjRIRiG25dT9Ubd/4r95/ceLOrFWg6+NrFQPzkeq6K713JZsmKDVFVrHXnfycAMkWXdxSFQgQUHHDuU06fYDW2zuOHUE+iPd0jXcnzAsntL8IML8KoPvuV20Q/2myGoNMW3EnewkeuszbKOZhMJpNtZY4HJ5xcNYNl1vkdl5gniuDFV5WqqKgHhZprYtQQ2ZUxzgol0qo37xnNTvTZUVIaTq2JE6OJAWNrM8B1NMKX8xBEZFFpspqW6ONn3avCeuTRDzxCWJF1WdNTWjM/vo7em2cZQl0TQfDinfOVW85LXwRZeKKz82pyNJ9nypkxFpPjcprlIw51U3IzS2p39Pe+8mf+8vmyKdqUo4+VC2ZdJjcOUCNE60CkJZ3UCIGquu+4BZHuQTZpbwnKKOec6eG+B7yxQPDNbjJnOHRt2iceMkTfBg8rN4w+g6nBszouibnGCQGGZrh5bS3ZNZlsrwXeHxVbs1uTt7OIjf4IfPBVUPKliBMIUgIhWyvL1b+tRPUkcX5ulUqiVbqTOVghMHN0sxjGRMmRmmPVi8CZmyc5A6qYDG5e1vSsq9mSd0EbefQDjz41axvrecWSNEStDiLRM/OQ4FxwVVWSC7LwStO7y/TY3CHi1IKQ38AZ7E4S+vPDSTXb/+d/9/hv8J26GTNc+/odBcBl2H0ildbN0h41C02Hl6qqq76jAKkZm4qSwICv85zigZNKg7nOVaAQ6ppv9Cntyd6qhpwI8gVM7qrIVuWVuR9RhLbJYxmuZ+ycPY0jjSoH3IPI5J77/x7weBvMrcunxGpYJkRxL3hfVqSqFRRBugORCNRyTQCQSu1dy5d6dgUKgsvfM1kgY4p8x2g20ExfqpUZewLo3KgnEWTVqOgKD8xs8rPqyHxlN4R+tyDu1RWwYop8WPU949RPKES8D967kqpSikLJn8x4b3QBCGdDK7gxKKBJJhp5ywSKzuiN+X/50l//8K062NilC0AAlso+vqtie4FIDyHaIkS/kwBZzJsuIaQAB0ADFJCAzC2sLQ/2fWPUEQKDVGHOZ/tVf1cxMLuLjxz5BYMIQjDdsUO9WQH9h/AWkEgzTLmXfNyOke042BCrPkhyYuvSRd5QJcGLKytVLbXEAAylRiRPGdJpZVHTW9jr529KIrPJJw/maqwxugIRY6y1HUGXqU1iAUQ8AbyazcDuIYT6xkO66kbfucJ9gLFxcQgrCa06VkfwESHBu2VFirBUxtkMuzszGRg1mSU62PMuH2RdPabuKxof/v+++n/406dzA0J1hELqy/RyeADXc7N6TVQ9hLjvHECWImgmXJeMEKLzLKQiLjt1qfXvTSJbPYQAE9n8SE5s0v8eAfa//qFvPLm4wJBBhg2ZOBWbsZLf73xR8FvP47HkvE1Z9S96cg+Q0JVQs05cWV8Y6uahtQbEXJoPAJGavqROvHMSpPSiEIs0MveJLBTCvVM5Vlr5Ms5onnzXHiWGyRqO7ClmMk1Rw1hryfazVLFWYggLmC09urS6pzvj0cCD15yrKwrfrgYmqwSUmr8Ir+Jd6byvXOkL0aWQPT/z40N3nqZs0zzF6AjLZDJo+qSoIYWZJ/7h//Ha/3bndQNgH7OkOWylGj2ei35v42Y1NUO03XuqWo9P/Q4AxBXadMbUi8caoKKQIEHhFqQyvhYABBg1BhL3lV3iuFzNk5vzr2EnP9FUlMhGeZtGJjM+bNMRXQnA8uxZ5ElfAGL1su/laz2I9eg+h3lbfkvQkV9xSTGPCOI1iHcOqpBAkKQ3a5wQRJlXzl1qG7AIShRnepDf+9AwHRAjtnRElkhsBogOleEYZFhLXUdUVzbfzC0MW81Cm7nqulcepNuyi9lDnzwRA5HaiITSOeerqnJBlstg52+6ZD89MZbAsGSu2XM/zk0dd9eno5LeOP3/fON//T0vK/gId7p2MAnm+j6UWoQ0xPeocVcfWPodAogqpJEjKlOuSUh1z7Iw0vMiG9IB++BNCNRLzdnpTiZdFwMY6dRjb77ACADEUtsQd8lpgREDQN76PXC+MnJkHSK4P0boPtbjSvlf2f6bUWswQEIIgSEqACPNDNpRtAwENSqdvIUoESmTKIGEuKWi6IyOS7HMTKmJ6d1auSfGaYiGhQEkxphaHyZvJnbdt9ipnfnomqBWQvONELi3Wx935Aq9qEEIFBJnt5VUVSJh6S3emvHu+NSnCWUZEx8czKZZPoSCe4NaIaPj//GLf/Qv3pmOkw/dsb29G/zeDarwfa0N6RDSJHvfsZN1dYAIGh18AJ/+nrgOMVCX0mm5pFDujb2hhtld+wvmfHZYab+enlRTHBzPw6judmIyDXh4pTbXlIh2aApzwP2Z4OvNCRPcw9O6Ghvr3vbDXMENV1WoD1p5cc4LCmRoZLmhZCBgcoZYtQdPZgRzRIHESJuHIaibojIZEYQYUK0r5G2jINVZ1ZotbAyR5e3N6+3OXZEwC2G1xLcx6lpLC98nstPWiDSVr1C3iYhUZVX5onK+FCm94fOZjnemsyxRzTiz+aHM0zzpZ76hBPCT//zvfPA/w8XHvnae1v6sCAuLSx4bevnePkKaAvtDCkOuCJBSIdKgMy0BIHDwMQgJUKXszLPlp9ib0GynSF1HcnswWeVpzG/hM5OLZUKAIMmYyUJ7/H/i1WlkJnkLHzleqXpRM3SJrxaO4EHhQdsNibl0LmtdC41mXkIIVVV6lbKEaH0zxDCWEIrCBu1vNjLKjn5AJI66JFUgJyGcnCwLHYCZrbXWGtXGkMSkeCsF14IEjED1lLS1Z6vrf5Be8NHhQzdYD90UdOhGX7WRBeo979BzsySIc2VZuYpcCMVccHHXjY7tHRhr0wCMbtjTajJYETQWUuCJs//ypb/+Z28uZrVWEBjCAnh7/VpyCSGrgXr17gOkbPou48owvrhyEKmKUzdPTDg69N3+iWlI5XJxza98WX6Gr+37ZfTUUomyGtBe/aumdMfNqMRz4Nhe8omI1qcB4G1iZCs8ruB6NgiJ60NACOK9+KpUAEiyqPPDQBDA4E6RCjVdEx8XSgQwb+Cw0l65REV0IBfLQi0zwTIzWWtWQFLr9LVxCZMwKqw1EGx0sPq+IvdSu5e99j5aegN29T4JrtAL1REgMTHWZLNCWVVefChgittFMpmcI4HNbKZ8cDBfjMfD/gIri/rJ7s/86tP0aqMp1kw1JB8mx6n/nhYhrQHpXEV99wGijUcHVWiJT39PDEJU60BEQNmJV9Lr7NukuomXSdld2Vuxc/NXla+fLSNZhSiNyZz6lvpyVKYZF3D29M0j2RQ2bIhdNkLk3ou0lry6NLiQ7lEl6xASy/+qqpWoC86VyBQMowZqAGOhgoTuuIHWQnKNkCnxL9vjSlc60IkGxbQsh0lNxWGuJd9UtZWT6lER2zxrJ3XFl/dsv66xWjjfsFCrtqSTkrtvEF9XDftec5PNkspXlS9CWTkNS8+4O8Pk4GJp2XBqmUYHNE/zYV0kjulwBpTf+y9+jxadnl17c46vT0KLkKKFedy0wDtzsvjKBqQpqZadunGIeSyQiAJumhh3sO+B0A1XUyIlv8hXBh7tn3yYr/GCUwBMqVAtOU7dDjWNvoeQAnLrBSR2Y2RNV8tq0ZXMx2V8bHKrOoLyumcuTTJFfAgqVYDJTFSPlMgiYIQcd5rZhfFOrIpaPbVHZS/WFQFJVpwX8zRTQlNQj3bE9CCC3qwEwyr3u9tNFiUEHzaE3yvoWNfD2gKR7me9WD26WQpFUAmu9MFXvqQSshTi84sqveaWKVtkqUE+wVyTjDv/JNqKanIDt9OWNdDZwIDDY3ymud5iNVB/p2EIXxUf0iTPmzwbBYaKBoV6qC81O/MGeK/1MN3VsxKF9Iwn0jxPBpLbX8EO5poQxMEiJTAFU/fackfbQt3Y4E8U10lpbXL2SqTLV0r8rkNjJW7Z4F5tNCChpc40CrWh5WyEWrNXfBVUNU0HsUzIMBCCsAXpa2q11sT/eP2FSXk3uVa1F0LiVRimOFkUyTiLebC6KzVSgGuINCw2JQDGtoncNgEAXskjrO781eBjdcu3Q0B7/YkrjIh7QqSfzYoJX5E2VndRBb4qC1ku1UzvLu2xnSMhY4zl4TV7jvE4632pKlQGR+HVbGXb1ibch/GN4Wcax09bDcguUH93AdI6WCqqZa/0EmqWNHlRENyU0jCOSg2hyyaq5VKueWlsNMO+UeFInU2EGOBM0ybaUOa2/tELyIdnz2KUhm6z0mWIdPjDdHoliKz/yobogzbH5V2/qa4dl8K1dA5CEDJ5YthEPXdDDI1KDOTfNFZIuSdapJm/nRwU7dcHCawEU13MKlUGNCPU+V6QtQb19BHuypkg08Ql98xMt+N1+FJoshkH9/gn3erPaq8kwr2Eb2QvVqFaBkcqfultOJ3xJL0IA6hNh4S9Pcx1OGqaJGqHcGQ+Mk9X+onrdDmJtzf2P1tnhsom0aBdRda96wBpOWtpfxlCEJFYUK+cpmcewDEHtGpwIGKIZrd1x3cPzI7uYPe4gGWRAKMQpv40DG58rOagmC9+D2Zy0RdbW8nb9rI50u78+8Trl/51Q273sr1irLkdjVx3J+xRu4jGmoQGg0GcvcEAqSVIBR7DuNcMA2rxpVY0UWw4zQ7KevtGPU0AtLw4KxJK0yzOpmq5VQboRj7XVsWYpgvichgSVkogfZDfo3J+b5WpKxiRPkRCqAm+Ht4556WqyqoUWXrC2YUf7V/MOTWAITMe0FyHmZHmW0jh9/g3hDcmmEm8373+WdMP1KFtD9g7cbKuAJCi72ApKuCT7Zu1rhdqlOyYG0s7O9XqujKU/MWBinRu0AnMeOaH8T7SlFJqHnmj+d2DgqE9P4PZYdSaBdieib9iiX0DeC7jY4M/135B6DFMmlxWHCQDAcGyTaxNEptTzUlJIBDkoBSSw1anGfqyegBRWizynSJmjImgAUxgWl4sXJ6IiOWGgsVcW4v1NTDwFvep2Gjb+cEPksjYXjbVjeF9F6f2CuuxXx1eRUpfOqmWVRV0uVCenvvhMWbE4MwY4p3RYpFObBOMK4B9vBEumzRVghKkSq8HszUMeduUkysARNYdrE+2Z1JQD5VaXRCEKRjmcQ7RR6hzFwLS9AyHvpG1B+g27PUzP1FAdMCaCjVlkEjg60QxjZhgqHwLdDRsvJ1uUMDlDX0pXr8EhQ0/avpTr7RibdF5Q6geP8qmNs1sllVVmmbWWCIDMFnGAsQJY8R2djdTAPhSnFtIUJXsfD46Kljro8fEIdtmeTadawaITeNUTGrQoMor1VXmp4v7h+gPDR9dJKKXxz02JZGubMjc0RdVQln6qvKV80WQpXBxZ5ns51MZGpNZMxwc7CnpKOsdtnsfnRm6nINuWkg8/VhlLochzW9W7xZAlrLRwUJdGxMNIhJEpVRdzEyQo8Oq0RCICWACIZwcW2kN5uxc+T1umUDgHZBqlhJxIx7bRJ5NUdjA8gLPPOaaknEvFKH7QqQJxdvX2m5mXmnX2pz4CpvWLKy6IY1aD1tjTcKZAh6pSYlAMKIMojz2OyEf4fxi2KYxo4FmzU6XWV7GmGShsCAWwCzPp85mBBG2qWlyvvEb+zerTAiyeuXSu9i4Z+Ue1ZEtr+n9jMhGeLXBcafc0XaJBK8hOOfLUJVUBb/05E+murO7WBoynDIj2cWcBiMjkcMhdvS7U16948hAU3DtpP57wXRhCFrh1Nhg6N8dgCwVWxystYIReUIyC4maG7ZqR7BEdpFSej478I04GHbPP0y7y2VSD0TmFMn6gFU2K5v/5Omb+2k/57o6x2wdIswP4CWs1RLW8aHbEbK6uYwlMNvUGLIMwMEtSImpuRmNncdsATDdOstWvoJUdXhS7tsqcra6pAPNp9O5JhldTj5rJ8kHqAXKZkLVlthZ78eX2fT3yb0djA01k1VL0tO2QdNqGFSC8+p8tSy9ShGIzs+q4aGbWzZk2WZZtjeHTW1UutCESnePai0Ax/9ur16oK97f281k3W8jFf0MFlABH+yuq/GxIhUNJTCbMS2Pd6M5Y6qpNEpAMk0aowNwAeQ6J1alEkSsJRNxFCBXRduob+twX+4CSblSldBevR6bclr3Awl3PUj3th96CQzr1bX2LQxiNtYyjFcQTstUlIyBZ8tEEAubELIsyyGvzQa1e6ARHwTN7vhjdmABlMBEECE209mU0k6Vlegy3R4A7HMvuI0WUO+FD8VVf3ifVJduwWSfesINBx4BkNIH74M4LyiWaufnlb2enJLRLIdlnhwsKE2T+AXD0axYsVmqKo0KZfxsP/ycae6zkU9tW9TVvxsA0b6DpSv4ABmwqKhXoSBQIaTTik14fxzn0LXTqYIvcFg2P0xOv4YnxndhKWiFjJBlSBt+M6AcO20bDS5Api/g2IfWO2inimx6MG2qh7cryraiONtTd7p2QoU+RjZ8LAFMJiEmYqjEhMudajjUiHQC5QyRdDDMuZpLGl4ubAvzGGyCstvV8cDHqaewde2RzcX5nXlN4iNaLVB2BB3hL8ObevYM6YaUXJPgDebyWUCX8SEbnKyNChjd4PSwkamioWdEGjfLOwlF6auqcuWiKMLCU3F7LjuTaTWEZshyGeyXPkmGRiHIF+clr4h5EwgqnSqMgAefrjuW1jMHb7cUwld0sDpOy6SX5QVCUI2q1KJSQueLxPjJge8+mxrpwOlh0mTp7LTCYDzXiQeJEhFpJoZbyXIFmFemri716cmh9J6YMWuT9y6BpPkvb3jdS+9jQ1G4ec738NeNBRtOEiY2jbpuCa1uXWA0MMZGQ8esZAYDt5wFQlrclE/0XKz4QJJb4ZDFQCUgAIYhIDbL84tZnrHE0SH9Ld3L69j7V9IFV/WxVuO4NXGY6eV9VGsOYL0wV5/oYSXukahSq1KV3ruqIkdlWBSkZxcyOfJzNiajJOXRjvVpNkmCmjH8kvs98CuzLxQiLCEqYyDFiqRrt18fNkBaB6vpzvrgpRUNolERS5UpSWYlgCdsF7ZGdVWl7KI4rOpvNNU57P60GhGJMBLiFJkFtW5DUwGu05nIC4UZh5Xnu2JFNoCkayPaFMs/aGM6RXmbsMmGqEaVYrZRL7cvyVK98dKZ2J3xaDTa2U2HgxwI57cXYADj4vkvPdcMNW65OcNb4bpUUi9fEGYojJkvpl4FAl47o7sklhpS3w083/6AQ2+vmK3WUx5g1oasvuGSphB6blabzYIGD+98EF9KVbkQCrXzi2AOeGpY2cLSIB9BkSREFoUIXUJz+1XM0isvl2jnXjVVinfBgixbfNTk0w9ezoAo1Gs0sN75dFYkphqOCu6midfdk/ZkLwlR5p4Wd8DXZ9UIAh1kFcAKqckUxkRRnPheVgYwrwRmR9c5QZsqIdv+7e3o9Pb1n9bjTbTtRkQchzsnppESBaCOUTrA+luvndy5WIBB6orpq986cTkUSgbD2y/gOa3TvG1lOL2FG7IAGUYcMyIgkJkuzqq0TsZsDsGDgXR1EMK7MhX4StHImshgHbKGPvurrqt7+LJ0lfeOqipUhefF7coc5KfILFsYHtgsU0ozm2pv/CI1sff6BdQ9fRvKMvouAES7RDd0Y56Mg3pRUcBHXla2UKPmSe6belIlgGcX13xNU85PQU86lyjgFpxRTPX2xzGRSt3JTRDszQPoaLH2FC6VDd/ZTLZtGFmVSQsrS2eMMWSNhWGOcritu6SOAUeVmuL2qy+98eprr337jdfevOPdlAGKkiY7b/zMl2nV7yEwv4nr8JUAodEIUzWYnl64DCK03rGLZmRCSh+XniplDyH39C7ezno13tZ0G0T0kofa1USYIwdeVdVrqJyvyqoMzruw8Agns7Cz78qEOM0y0gFlo5TlJIiuZR1WfTnZdJ/vasvtYsXBumxAmstSH11f8ah0OmUrh/sF9y6xns59e7Lr6tbBbwrvLAoDQG65LEuZU9Ws3XVtGF2PiGF3gWceo7XBMFFAZYt39VBPxj5GQv/rmeu6BCHO5axV9bRGiDryhYDULaaz5bJyXrE8R64sQglj59uvMcmqY00Wt+h9CB6JjdG+AFCD6XxaZukm3ZfaxUritO0VH+u+L/O2UTKdTqe4otbxWmWdo6KDKNR7+NKFqgp+SWVRBISz05Dv4oSzBKBhmoMUye2bC+o7VUqXkMlSbgZ/vR3Cw7YgvQzWKj501YTEmEugJSGZCwc8bqoVvUQF1FRne8J1GkuxNzpJMgFVsxDnVqRieDWrEgWyDGAWd25it32efXpprBtethwP25p0OoLt2phmnjMzYOtxz/XYJ1UATqEOpEFRCYIPwfnSJ8vZgsgySaBk92tvfMKs9h8JLN/CUahIYmY3ullqzKyaVtKrApFZydME+8yXKvA99js9iB25ajFpLaklm73gtn+pNSKhET2pfHCld1UIlUOxXCoXt53ZHV8IgYaZwPAg1eT0FrPXqJy1Nt49MlK4KkKrXdqvq/HbtZP3AYhgLYO10XxFMlYMn8QB5ZxA+3sVdyKxGmUEs9OQC8Bgeyo4sHMMIIrlNAURpYBtMv2m7gZob2pQ4WYm2CgA2qlqboLEQ0SJancOCWBq+qAB2Fg2zNwVG7S3vB4haBXUh5IqCRUKn6uwhhTeTr72y3Z9lpQwXhpfJ4Kn/iMyOCvPuDFUvPKkmqZboQcFxjvytPq530u5so297NqTug6I2hZQCU595UupqPQLz+H2knd2LlzCCuYB0WCUpWL3csRG7/WyJIuAq6rbFFnHSOI292MeLkAWqw6W/+C2BJ8XD5WgokEJmGoCvN+6+oJIm9HfKKvDiiGQ7FaJJJ9WOQBxd7zNiMlmaig2PFBvAxADgjtPP30YvRvTG2e8ApJaf9ZsVC95OBhRtG4f6lmY1hJTFLeKVfnQxF1QOAaVpfNV6cWV8KEMXnwIyxkzkMBQSEZfezPv8uH1mrK+cvDMMlJ76vQpBRi5cOdit6SRNOQ3RUk2+N49iw9e2yiXVOJ0w+6YXgklm6L1NRusXbchM0IIAoUGFV86X1XeVVQVywX07qmMD1AlNsnYDrKBVUpZ9w93RhxciEduh0YBswsA/2aLdVrBPNHbwse9ALLo65h0DtYl2kEIgFZRywYCWDczPuwc+e4cQT2vNDkbTxwDTPQWnhssZAwgpP40owQEpNzKwsVEr2k4tsXtF5DvsWkHKm0z5sbAmEYralXv9/6mpDcn/CpdNnGieayR14MopT4ha3YOHAugJUFVAqChKp0X6NQTrMIYo4n9+sWIupxMbJyh5df3v9sJAGESgERZYeSsnPuk1vq4ZAFoa2rWXKUS8gBFky0Qubyx1lvcY1I7dFp1keHrVb0rg/dSLksqF3OlxUU12MWcUlhjraEsFYWz493ruzspJDhXiVQiEioBWxKA8YXOw7rkaNmH7WL12tA3WWPtfKxY9A+AhpJIp8FY/2TiO2+QYmGXy7MjjRvgFF/N52EEwKs5WxgmNqoZ85pYJsVpYsM7isSgG0DTG/y9yec1WwrF94YIrede1ukZ1P8GBlmLeiim6ubVdAwiOFSiKEqoBO+DAEulOIKIdICby8GKw8wQZMXvPPaRZSy9mbbcwZhWhc90rUel/seUvN8YjT6Q/aTLVmD6wAjZlvBdW1JuBEp9UAml95X3vqyomBeY317wzmjuLUzGGLCmmqZUke4fHx3sTSajoTWZtTYbZtmgm4hKAGHQiHTWjcoAJQ87BlkzIO/dljzjOOxABSqAdy6ZTxNQnntmpdVNmd3N9ioGMDoBD8PCQoEk9ScZZQNOCNzMhdZmQnR82PNpuElZgOmTrLrg4zJGenL/a7b2Srmq/o82vFeiK3fvZFFsavNQZSVypYqWJTQEH5RkDlg2AFnKl8+X+cq6CkD59Deefu8SJJDQnolkw0W1cBZKIgDZtWPBrRNMmidsHjj4kLeznzbltDa2VPUyvgG1ERHvvA8+VFRSWRWQ07kZj0vKoDA2z5ACmoKqKhntTfYOjq8f7O3tHRyMBzaqRDM6UUZaeez0NvFxbwvSV5R/z33qJT4IhfqESOeVlniCRUjX7IG/e0ACwH5L+KlTz0wIyHAxT1HAWCXU06F7yRgCsDcP4IE0+u9dgsVsDElW/22VvXTfdoktXdi9EESAxIBM5AySMSaKgso6PgCIFwZKV1EJEZUaIXAzAJwYDYod94152o7yJAigQju3vvS5DywDC1hagq4af+4XYFpXMAUUFj6YjXfaOeV8f5y8o3htuiEM2QCRbr5h5MAjaPDel77yzhe+rKrFAji7CKM9IkOZNWSyzCJRVWhVOSKCphkRXJCOvRCvfdARJhpm0cOvg3Ra1biED+rFH+CgKggqUCiEYJ1LUjrad5GYrt2Mc01v63UHwNwWujY54QQoK2txiqhfnkSpk0i4IzBZqnUeZuCdQO2svT4RsTUjG1BiLj9yukc5sAeMBiQr2CIygERAGAKY+voBPce7DZVVBQCrggpRcQINVRm8rWbCGhsDdTT7FpLVYDl47L/wa3/4g3UXjDYBErE/dwutnbHVCjFTW6ym1RznPTa+wcN9TaerR806RHpa180YdoQgEBHxoSh9CEF8WFI5K3B2pzKZSY2y5dySGXCaJZokzQ25+sNicGo/D0AIg3a8Fr3TJA3fJ0S7l/BWT1Esss8o/P+r+7YYy7LzrO///7X3PufUraure8axZ5yYy4wdBQMRkTCycCAvkUIQT0hEPIZ3XnjjCR4BiScQBEVRwgtCQbxAQiJIYqKgOME4F409Hk9ij514PDPdXVXnUmevvdb/87DWvp1L1enpbifZo2lVn+qqc/ba61v//fvUoHUDLBrAfXQ0CJ3XhS4rZnCx/BSqxVIEDC/geV1WBC5Racv03hYZIAQoL8APr7HRodhyCrZWZIchEbnzUDTb56htRcEiUE31j4SPNuU6PH7bPHCOzcwHDowa5BXqFWZaKzjckDOCCAEni68XLReQgbACCHzxB7/+2Y8uBRTbyUUiJRcXoR4M7PYPURB4M2xvv93VA3kvKEbUrqPr5MMZkaEl2dGd1R+xqfdEyYKFOoQmxOga7+Oaw3tLKYULB8fT2YyZSSqiYkf3SB5ClhYf3WwQEV4AQBaDmuVeB6sdGbPQ7k0zpsbd+AL+wb11S2/VO/LlZXOvZi3f/y08PK99BUNDoPiuuQrEAJXEHWlY2+LKQpd4/fw4N58Mp6V4iIOdvpbc2n1gPb3NXTkrctLWBxNsGaCk8wyM00ptX3nK2kQ4BSeEmFeYxRBhzRKOAAUTzd57e1p0VgcAxDzO3/6tHz5ZsaVR265+GlbhBrS1k+OH9LN3Hx/8DEZky2nFTkqhzEvZprMQDTHEJmjwWgdrfLMGXS5YSsfGVcGuYmFhEIr002UewgGIqXBQIOEjc++1ZMYvzsWC7VrDnl4pHQAR0KS3Z0CNBtdmRh+TkCeEYf2+ru9BgaNv4fRkricAAhHczVVFJVBYqYzEkAOAJBMtsl29hrMeB3kJqJ0+HeHgVoiMG02jYUQks91K0B+qTpJAPEvrXyXZKAzn2bVPIqVtoQbAg6Fce/Jq6lXNYq1ifg0UUoBgcvTtt4tuEExTwx1w+ntv/L3ztY5m4oxktdAbOE2T6610BIyw6m6YbjWc0kXhcSdQaGNvPCWh6+7+E9s+lzqtdU5zIqrWRL8O0YemifVytYq4uoxFKYUzmVTuaDKtSEikyr+RNDe1KkoHQ8981EvN0ItxsYbH2d1FZrWoFqFaMxU2nxcSzx+GpPBAxLlKpKge4SOegSsU9xcpzwvH4PfrkkuR0lUu9TbldERW2Zv+8ZtfnS1BlLnk+naLTvlV9kFE4h7zYeADLEd26FxqL2EmZP+qx8cAHEqUx2Q6XhyDeUA9mycfTX2jsFh7YL0GJImby/Ttr0/TDGZbDnEAH//qH/z4aQPYYMLFyK0XujIG4GL//k7S/NRTPfM9Hugmd+nTUh7Pd/lZG9K6Q4wgjVI1GmPjwzqExmtQ+PVyjfn7ay5cUThn07IUnkyTFkZKagFiMCMu/uPPAbHL8Lbs5mnh5HkDZNVyle8I0bcOBY4xwGLOJPi6KYplI1FecZoH60GJ/olh9OReqVi+i0/ea5YVk4tKEG4uHVAQGlgi6x2pENjyynBxHgEiaaEw8LTGscjeJOXGA9K7Zh660SqSFJxLYlQf4mMbeNTVp7WNHaxuFIGpbkKtqr7O3d/LKFErABFx9u77R+mnk4oVMaDFS7/wBz8+qdtEXHsmVs2CV8SwgBYU1EugHbgftPdOd0/4D1fxqUnBtyCiuWi2EyOtPHuMiBai9yH62DTqV82K7dFCSiHigpwrJ47dhLksqCzSHnYMsCsBQVmnB9NJZDxjSx7fsXwGHMTjDQtmqhRT1bwp6jWJHh2HzLBpvY9VPWkernH+R3/hrZcuVwJw0AKO3OO6YhAXVmpJxL1GGRxA964iTgrb6BqgrWTNHoTsTMUrDoFHS1mYXBlCF39sr7q2NYz+PZObpQaA1Qc2T17NUro3whaBSUUAcmt89dGsS/pZY4EdB/fgv73/oxb6vFQivHfNyq1SUg1tzizp5+yzg2MeLZHRGtmuNgF+hkB9V3lR0xRYjLtatCx2VbVoITY+xOhDDLRcL2tcPdGickJMrpByWvI0/Q0oiRwgQvyzEEXGByVh+cy1RyTPHSBbYRXu2nA5TFdDqNFgYWb8EbI2PTp4zz8+OQrFoy/ThdXsgOAnCqZ46ZiJpACpERyybmv6BcVVxF899hvJqa4gRNvR+rZx2BEmcnvajSdKh9ajze2qpO5EiOvwsbXwms5K6tWaVPNEskWzWAeqyVu2IaF2fp6IwASTezf21pOjTDOm+WBwVj38heXfUW+tUx0B5wK5mzV7Hh0Gyqixs5I+Nm+8HZEQ3V0DOXlWIwKoRgXzeH6gNSOhtyKxaRoffAxB18Ev/EofP1q5SVEKM0nBbjIrpzMhLg1FqSD8zM/9rBLYcJ7xkUlaCXimPrx9ALk5xDYPYBLVTCOUIgALBFfflKovna370zQL/Fq5mH/M3LLGQ/LiQOoJ6kgeLacoCOxKyLiCQSDyc7xxbgNUdCVC2sjniOw2cpsA112eWHqmXXWJAHIiOfoQIkryWXxb90H7cWJsKa018bXDzGqtqVYzret10Fr8wlhEzHRybxW+/PiktQdMajA4c5NfKv8uR6N2VzlAIMV8SQ2TS/2qzHl+fZ+HtRW0y67bHxPnb8YzH8KIzHcVYneE7OnPpCPNZk1s/NqHEGuLvrmpV5j/0QfBVa5gKZ1wIdOZm0xnbuLgqn/77/6DqYp0+Eict0CWGHLy3AFiG0msDbu5aZs5aULnsxKoQTZXCcWrzkZJL0QCJu9jinCJ0/u+ZIAaKgFmfQLHxERGTMwEA5PkJhvRJfihDshoh54WkLbJPg9841bSyb7rKSZiOR4YptZ6CCcGuFYhkW7rU1FtIRKttSNtsjNy3QRVRLNaFbK6VAKIyarjFf5wXRpppx7CiIAr/ov7MXgQEQROMqNeFdZWp+M4PQNxt3ZYyn4Tcuj1IdSJ5nsxYhsW3TCYy42qTfC1j15N65vFTcQHf/ikduXEkRARi5tOJ246KSr5V2b2zyFCHT7aItmzzwTtW6rZXk9qr1Ux1ZjZGwDyWK+cqx/eWxOMspNFRGwAN1fnig/w145vcMREisBw7K6XVcpsl+QwHIsTAKtrvH56OfrAGx3MNJRqvSvTrztc5YyOrjWB0FbO0eoODPjtaE/RtNsD1GKkZ0Ewg2kdrA61mpqpNrGs1wBKkDYnp+v1W0URGaaAquPEOVfQfz36XAiAkyg5KaEMtzZXw3XGkNwuStFdnSS8jZ0dTHy03ZjyofS7tnmCOKfWx078QL+N2ZroffAhND5qDM2ihn7zK9+50aIoZpOJCMl0Mp1Oj89OV6vV6p86IQzx0QXohZMXABDgDi35zZdjRFCLqeRr6nOpEa84TcxomekuiWEsJ1Nc48v3r+MMoAaigCN9L7oCxKWVEGIyTvuQCSBcv4YzjOfcqCV4ol1PfqAtNpxfTif69kNPLnabFkzBR/aukGofGbPJfhDaEKQ9DjsYZGOhqumsjzHGEHLLs6pGH+qmVjXzqhpltaYiCtjZbLp+7yuodAUAVBlDCSCbhv98/pnGxBJbGNLIgLlFKHxbsgSktFqHONgwKH2Yrnt9LNuizHteDSijcZENWIzCEQshRoCtCU3wOVhfN8vlkvCtN97+43kT4KbT46Pp8dn5/QcXDwA6Lkf4GCawnu1z8505rN1ZXt2ZzrIYlUxhagR3MxduXnoYKLVP5JIKKZRX64/hfeOPXjdngAQtWTWwWz6qBCVTYdQNeHcVuPff/OrsLAcIg+4COezW7JaP33H2ck94SkmEA5pLg6AcnY9GWlsK6+2Wo4wSUzVLzynGaF3bc0NN8AkhAK5rgxCxxbPJ5PLtPLlANSXhHQDH/hdf+0yIORvBBGIiJl6EMpIlvkoVhyDDO6Z9PQGd6ucwaBlK02/kz/cmpp7NkqgqbFd1JE2MsHnvm/Xax8aH0NR+sYJdf+ut3/va1999/PcXq5ubm+U/+Il/+JPHJyclYYiPLoFVFu7ZAEKf21MGCcFMLU2EfHxkek9yCIlBBjSVmJ2wc0wOzCIzrE5filpe/z+kVhMlslwEg+LP//7H/+XXfuOnf2LyW6r6fTZnMELDn5Aaa1ULtQaL0VSbqBINcf7aT37yf//rY7GtGCgOo4y+ks29/cAGxZ7uA1TvZlDmPIW0uV10THY0/JcyxiPtK7URwQgGiUJgosqKgglcMnOk0wnQRAXo27P65e9dL8J6OV9frr1GBABC8/Mf//JvHxEY1FJhuSgIR5XnSFBoaP7xp//FF8/zDca+1bRjBo2DzH23UL1buoOGcMPYPhtA9jhq2xPj/cS9FuRIWISY0roB/x5IJC6dG8wZHhjig4iIi2f9qHssyI0enN0eoD9qV3pXa5rZeunEnx7XlDXCrDvW2D95efkmjk9qR6DQJCYGSHMlDCImqzh7M9n/FzePXz2puhQs7kpLDsORu8YDO2nlzrdKhcGU2k1eTWs/Ng1T2z+rvRRAmjPTtj04D9YoUvAtMYQYzVsT1GC+1ii4augmlERmL6/wnXeLtEjshAAH54CTx//jU59agAFjA+VcFpcrq4JkmlcajqQ/vW9BO1tOePjUT54LQDYG2HN+b5T5RXK1OPq6CY2vg4+hCb4OP/VTmWy8vdIine/Cx3OYs+bb20x2eaEnG8DoCzxmGqJmBb0G8EuY4Xsk+7XpthP0J+8VTnGxmEsJs5pc8pzcY1+iIFBhlYBkwFDN8wg5aQ7QLb+leD4oqg3BMejWSbmEBA9AkKbRRimD0cKY9YRow5auzJtsSaRONSNFE6BiMA2GxmCKGihwFat17YxAD6N95xEBKAo2hqR6CHDv3c//4CtrgFiJDA4EFuJijmkwAhBLINJdnf176+l7f46HyHg+CNmBEcWI5SGfMiHy53+l9j78/M+vfQgx/syIApDZOQHOz88xerVNXz2zAdnnYt1EDSnLgn0uVj+D0/lYzCVT4ciBGUVlRXh41AC/c1lkckWQtVTm/rj6R9PVP/u+H/zyZVg/fPg49biH+uzV2sObraluVINpCAqKQHPzTx7En/7Ds8Ho9tDHSn5U3383crB2qNHmf6LDEV/L9zRwrtC9NKp+0AY3NO1C6mgQY0AGmv1/5oKKEkxUCiTKBX1wXHoNLj6ucDFZrleXq5uoPk0DsUKefOJv/vo3jykNkYApJt9PT2hFBqwm/+Yr/+lrJ5b9ooGP1U2nDHysLV905GQN3C3aUBR5Tl7WPpM0cri+0BetAQTYjpPxHL2oJSGP02WEuBdnQfTwFEbsi4Wq1o4RKgAfDOpepZzk7lloDeX8MkIu5jhScIADQ4NC5suKGbDCQO0cTGpavFyAHvCdOgW4LdU5dKlSAXvoTfTWI3W1t+6Wk02mlM0xmeRWxTgkvR3owyb1CBt+JwTVhsjM1PwaUeIjPLj2QjA5XeHRqhQu4BhJX4TBjPvfeOOzL9+IcwIwk6WRZuY5jo0A499HTRgNA9zBPyrAXbO1ZM/S+H6no77FFd+qChq+8IUvtJXfNCAn4jL5eMtgM7IduZmJmem54WPfvR8Kjs30f1BESwIpWqOZPY4i8f69GqA0vEvd+CPNa8i9RTxichEKTepl+h04EBGjKglkKRvAAB1fv/bJ06ZX2LkLrzsLIka7WXo7nusOHoKBLhttJb+sCzdGMImI3TVueWklVtoqGYJq3awas6h2Y1HCXE4v4QoOcrzA3HPiSxFqHzfZvf/71t++SKV+IsvDT8puxTNjoGAL/UORQ568jJ0susXJeoFXwshwFPGLX4T9UKKWpb4XtcRgvOP8/Pz8vMcGOveqXa7ngY+7b93utDDWjrxkkVHLUQioaOgRmbmPOYUhqRZ3G8o9+SY++coqViAErThRjMKtH1cAMZXQpATePuj5FRK5ItG+eGl7xm5LO2Rn1rM7fVp49OYDLb8jdlTOWx2+cWNRe4UWJoMssJpZGi81ClHrxntvplYb3PJyeu8KBCcnp4t4E0nAkCydQETEdO83v/W56TrxdBC3yr6Ma3fPYI4s8haX4DA1PSCyoNttiI3qIsPUxMkLxEi6vvSlLwFf/OIXB9VLSibj9PT0rMXGmJA8q4TxACDPAx93klcDsI8fiJ8YNUlRaVQD1AfYzaqI/uUL31X8rC1F8ekb+rWLJzcTBodEhpYI7N+rq6ogZleVCR05X0qP3/zqjDY4SnYbEN5nQHaDI9XIs9FWRTIf0rZ87X273opYT7G3UfeyAUi6gqIC0GAhqgVPjZqZBvBycXR0JUQUju/N/VqSwqGIOOcAJyLlxeff/bEi9ZcQW68ScW0nhCp18rREQLLHHU02MUu8DQ3NDt3cPWpuL86SzL/0pS/1hqSqqqptAp9MJhMQUYsNHrpWoJ6o4Hni41mN51ZDUlSNpmRqUPMoMTcRfKIMbf6KWm5ynXzHMKWFYyAsWz1Kx0WYO0o1CW2rYiBAz27stYu+22iHeqTeAYONV6ib7KchE52I5Dnmdv8c4nBaV0vv+Ch7CIUxSlrVJQ1eTWtqDObryDRfHM9uhCBxdnzDcVIxOyckwlw6Bhh8/n+WP0prAA4qCoam5MJVeaJGGmhjTXY5pLT18HXre5spCP6uIOTtt9/OXxWFFlXlvfeoqmoymRCGoGgxMTAj2XokLT8qng8+nvW+bSxxGTXpQmsEYGxkxXpVwJ+l9KwZWdf5znL5SZzcu8kZoQCGKoMdz0OFCsxGJZPlvg4GLYCTqdG+yNNuNxq7go9c8RgSB4m03Sa7KAx0fI3cpz6rvG1NBqYEqrkAawBFjexTvT1Gouv1iV+XwhxnFGbpw+WwjdPnctNf9D8KNQYDDpwFFwgflKclfmCbl5TG7D/dACHtasmS/efgITvlFkbKQ6gqB+gogAqeqqqqJm3ydic40Kd2B/ajLJ4XZJ/HwWD9r4r9WIjCMxqPhQF2QTAYj5QtuPkNTCeXegSi2jqGbi2WT5iVQCUy3Xv65cXaIJO49eYxbp7xfFcloDXCskE9JxkebdCe1BVuKSGoDmGzRYxlbSmkjVVCjCHGqBrNAI0heK2jD17V6rUJHq8f1DdsZHL/5pGbFezEEXPqciaAUE1+WT/nLfEvMqDGMMDxVXEfv6vgHhOyN3F1SybrgMGQO2GyhRmzO/AzMB5FUQDwRFRhO87Ythyt7XAsz6N99yCArJ8yhTWIACxoUCMDzEIN2M1KOLx6f50UFylPzBHg8G0cz5Z6DLhgDolxEwz36KbkiogKciTELj1wrb8f7qw+vPTVy4cM5rkpe1QioxH2Dh08YOSTp1zrXA7MJcF23HZkTmzwGVWjqkUN6qnRaLaOZI/14c2iIkQ7x8Ldr5jZEYN7HZTZ5L/T31hrfkdislRWaZ5Ur0O7EXVui5u0wwDQqEq+O5P1IZysdrnMbiE43vXiNjoSOLK/xBsGZFwrZMfsRv7VCwfInYmfvSYEBjWYJrFTpaKAB0heFTUodVwMBgBPlI/WzQwWgylztjxOwiMwKlBRastaQuBy8Tug+3dMNm55WD27YmsxRio8eTtLhw7aW/d7qmvDssDMkG1J9rbaHa7RInk0BDUzxgfxItYOTooLW06mVcnsrFWYJ4DhJr92/pnrZCuS4IIgAk7XsKNSte2B3vXw6BCb8uGdrAPVyDeg8/bbgHPOJXQQUTUAx36vingIjsG/de67BZC0nO88hR2JMLOgiqgGhW9gS+8QL848gQ1mRq2KHz1WPgmrylGRB5iYwQoU8/U003dQv5tdswbdjzvLHnRrt+42LoZVvEz1kBvau5hD5E5ne3BM2u2WJdG+pxh+2AqgsKCq3hqqDbo2E72i+9dhSoA9aNZnhQqzY0vpXAYDOrFfeemHFulzUObAjhGYfY1wvE8shvcffbL75Recvcpr941vfMM55/pKVG/oedu1GhqOjA9OrSWc/3vO4mJ8sP2w7TPSNg7upJER1aCpM1FBTRlWZKH4uHTDqG2Thlx+is9lKQwoqvbDOLDDd+C0IEZZoptTIn+N1491Z16mm2LI2ahb2EpGzLsZN8wstJHVjJsno+13HMw2IbNZate2PqjUlRSBNMEfY2zIU62wtQWqP6Cz68gUwSePm3snqJghlmwIQ5X1aPH5j/2lpXIuLCWeOQSHT9c0bY8MZUCsi6d0K0zfydQre8zNwITcMpv+tLvznXfe6X+uRQHvth57wZHRQVSVZVE4Jy8eIEQtmSbtbxLYvQWjGRA1UIQC5GHucukkvPSSb7Xf264OV/8mzosrKhkK66c8mIv140qYqISStJQUfHUJzA5+ALpBszvmpJau7sHtbD/Qs0vk7w1NRCbKPPwKMZULg/XUpm2xEECev1bVoKp1osyyNUDhcnrv0rgo4vGDR7g/gZCQpDorgx3YTq7+1597fWHI05o5Cyf4HUV5nGpHxGDer4lxG6UcPUsm68OjY2Q6eG/EwS79L8wsPZiqqnwRdm73LVdPl7/aOCtDNCSnwoJR09ACAF4tdXDSEwDE6+8/njShBDdNGVLPawhAcFhFQQG2Skg4841iCdxj25+aYsZI92AnUXv2tgQYjJ1tFkuGrSJDYDzd4uYfiT0Z1KBY2EJEVUOI2hioUbW1Ed0sZqdXAnPN8cP3mgsHJqYkEZI0OpmOFr/x+ifmnNy1TIxHBVRBbjoCwHbRQ3ZGIboDIfTCEPJORkdPMt3iYhBMjA2H9NhIYUcXvDPxi0HHHXe875CZ76lf97jR2LI3cA24lZfo753WBkpzEpYUmML170oVfQEoZV11di4oQjG/qohBFZgILCwAzq7fxL2Z7qql0xAiA0G2HVd35xkc++82brVV7c7s2y1XXpzYh6/DAV2LESGqRo3aNB5ezWolmc+PTq6IwWF2fzE74tYp5ZzZVdjJoy9/+qUrByJYBAgUI0EjghYzbM6F0Z6nSjuLhXdeJ8+Q03nnnS1wEFqLsQccQ2xIfnAdPpifY9njUIC0Ih0p9f7O3qxu97qNfCxt3YgYADR0RSK42GwvFazUHYWbgkANaTtKm/68rEsQyJA7aYnA7xpkOu63og0e0juYN7tyEsumOtvThZbDzP4hNjaOIKJd3IIIi62XRYCqrRW4Xk1dUzIhnk7eP/pIYclZUmVSBkOZTr7y1mcu5h2/lwSBQ7RSoeUs1wGVE3f8OKVLe2ohQxNCL8DJ6qEBos2og6hvwqVBZncLG0zEnWPFVVkWxYuDxy03zG28SgeZkMF8qVqEJStiUPZU2HIl0b9yvoYlQi/KG6Vezo4osmNaE3P2hVKovr52NCGgcuQkwbW4jOBZGB9TXZ5r0I8rPADC8GvZ6uPNf5GDkbG/pWCX7RhAqGMA2jQjsNBoaNSamoKniNoIV/VZfS3iOJ7w9eQcyhAYsWXZFDWcvfHGZ06XeZoLERGEiMAKrWaJyZLbLsVROd0k7nyuqi/MhGxAow03hn7VBjgSNpxL/7d1DuLkg/GkqqqyLF8kNA7KYh10rtqGj6UWUt8iFBbINwUtScR9L4wGe4cZN2s+ch4OEs21Zt7DOYAvVwLiypSYmNmBJqsInqgIjUUsqWeQ2ygIbpjqHeX0feWTfX0Sti/RGzd6UHTcadL5bINoRHtuWlUNUUMNWpOqgnAVLsKyACHe50dHD3rTzkZQYhBO33zrs5MaMEGMKXRoFCijUjnLqW/d547etgOes6TODrORsXE7OAbhhtDQbtALizgOd7Go5Z4d+Fi3mBAbLG6WjzFEy0EkWQiC+uJ+nR5bDtUV64CJ1EQsMekwMaDsERRVs3BUgIrKceImFq5r0KSfBuyauGnE+b5j3mNnQgQj8ehb/anBwnQvjbqxNg/f3HbStcT35eMYbSy3BBgQVGPQGDwQ1byB7YougufgCrrQxYOHigHNS+5pv/eVJz/CTRJ+lgieIUCdF65DNUslEu7o20fep/RoGRZF9QUgZBBvDI6sFhub4OAhONwQGr35KL978LjVxeL9vvnJDivS6s1BEM0sqhLUTNXIF35JCO5VaNb9MAKULSyUSw4wa6wMnJUuGI4R+PFaWmmUghnMEq6AWQSEHAZzNOlJu1GhXEbI2JPQvGuY3XYbkiEi9osnaMecZGNnK4ZWmVxzJcQMQY2Caqyp8VHXpuSf4GxhpcaAj+jj87MwSNm28Dv+9cWPoJGEDygjggMrBGE6s04VbmMFiJKP1ZHC7gjUjXZYm0F/48mhxfR32h9srQe3oTWPukgSOJJX5RI4JEOi/5+YqCiAP3mAdIUQOqRUuM3uENUyp7klttB54NK//JIndIPpDPMR5ZFS4TjWSHx7gHMhAKj0saOSyFUlsyMmFPEadMbMkEijUbO2uahrNRigZTOJ1X85yOre9Zz7VvZtROwogWxkmQdWKGMk9hxzSORyIfoYY9PUhEb1pja5eSRn1xApI85XN6+exCCgTmkDRmY0+9XrH+E1EyIEKJGDOAXqYmrWWocUkYy02jb7DuRD+NaH2A90WjYDs8Gj7qr89dBwiGRzMTAeRMTPtYvkWQBSYlwqfOd2F6uPQrj9u0VTReK1IRRhCQK+z6UOIst7s16vxLEvwbGZtD4WAlSBIMu1MMCmBClFmLHE68cAmEUGAlPdtR1ibLtVMqz50mHH4GA3H5YC3nx9xLKZF6ufa0nfCalkGGqCV4u18fJxeXaFkgXlS5erV6p0DjErOHVGM8nRry3/eh1MgAgebfJYTTW7Y5KGh3aS8tJTJaaeltf3nbb4mltBWmjwllc1NBwdNjpocNt9DfzpAEhXWADR04TqGSia+rwTTwYDDWzuhf35RWdC0uSbmrA2ntkiIRNIweVYxB4LEQhVyYAjBi3exDRnG2UQf28kcW97wHsC9r0hVQ8WHe7/AwuF/QnN2ZB0vzBipL9ghqCRghr7TCBGk+Xi6PQqkkisHjyOn5j6PluQZBwNdPr56ocXFgUAOayQV9Ek5bKo53l5GqMgo+nDp81jbeIjJavGZqPb/NmrStg4TjKdG/AYzHv+qQFIlVOEo0Tvre1Y4x0W1WLiIIWyJ1+GG6KAl82MYKQpXemjoarKks01mS4wAAEAlEHL67JilKYVM4N4dm1fPRcDQcEC1+ZENmjC+G6g3BF8jDyrcRTeFsfz4rXvxOMrw6i3JJoj9/53dyptqqZGMIQYKKinmpoIrQ2T1eJ4thCCC5OLR/jeKnlKDFXkwQGi8teOP7u0CEFigcpjuJEsTiYw0R3Dt31Dln3o2sbJoTanG6jv3KlBjaM3HMez2WwKgIm5LMuiKJxz7o4syp9gkD6m2LQDiukYmZCgppo68oJ5mLtcS9U8PK/7X0rQOsKlWFLhuhoIAJQayZ40RMQFqVBROio+iLg3A4FYUjuVc26QH9mYlzkYJ/GWIHPgVw0dJ05sCdxlrLcLkjt+rHW1+kikZX1XM0MIwXxcq6dG01z/1fx0euVgJSb33+e/WMX23TVJKAFWhF8++Vs3hgjhVvZNQWRAnE00nTvSSnNtflK6Szyd9m6Zk0MMSGs/eKP8J+wGTpXMZrPOuy+/y2H4hwTIzn7Fp2D7NliEkmnbV0I1TN2rTtG2VgEWNFYToCqpMUvdJiGdt4EFrr6SiohKYscEKVcKOVIRSnQnzMwQ6XGCXTlevsuixF3eVWs8Btt8kODjA47d0Rt2wNIkxwYb1ddzTSSEaD7GWJP3tq6NcL06xqIgQI/O3nOvdvDl3F4Mxkx/6eivXAOWxy/TnRpgCMeVtomsjb0u+3Jvh8fpJwdakL4kyB00zs5OTk/baJyn+FN77X3OVbuuad+9c6gJyYO3BjNT1ZTxBaGxZSAJDwcqaoCuvYDNB1DQMs2DOADsoFAoXQWGkSurisHk1v41dxIYaOlX27M64aSTjx9O2NyO4uQuyWY9MNFEDOExNA2H+yRDO9JvwEFzzpgy2kIMZBo5j1Aa4co/9OsiCsfjo2+XH1eDAcbKsCQeTLGS//mxH5hnPfr8ENLovvmjSg90ouTp98zJnTXmjTOLOVsNR0TAbDabTqeTSYU/gwBpExa003ac7D+JOW+EqACUkvqYb1D4Gwe4V0ZlMrVoBGMwggt5bC4AAQwYKD7mSdaQJjCFOegsWK6vdrVwZm1FbsVJT0LdHmD77tXaumbcvEczG0YdPTqebnEZA2PTZ39bPq3WiPTI0aAhqvrapxoSGFd2f9lMyUHPq+uHL4WATLHaJxqqm9/+y5+cgz4NpZxty9vT9GzSAAoxByPjPYOGuxAie8P0VtjxVtVCyyF616tL7Ni1OVz8WbkYBwQhh+Y/4uCLaKZBTWPq3SXAFkFC/T0XNbVlKMR1E6VCBRBq1lY1MPdkkREvg2OyyYSCMFx4ArqAM0dG7Zhl+qNnE+1tyaDvZ//Nxp2h+cY/iOOoAgcMhuxa4j4U2SDA7jMeFjTGqCE2QVXraOQ/kJdXTWFc0kN69NGPI+pAbS7d2fG7v/T6D16Vv5+UtlsXCwZYfTxrAIACUacZcLeniT3tN/TULlbbIpcSVZKf258ZgPx/+oD9oZxN4hQAAAAASUVORK5CYII=;" vertex="1" parent="1">
          <mxGeometry x="220" y="432.11" width="220" height="131.16" as="geometry"/>
        </mxCell>
        <mxCell id="gPfxByz2WxMvdibVRMh3-2" value="" style="shape=image;verticalLabelPosition=bottom;labelBackgroundColor=#ffffff;verticalAlign=top;aspect=fixed;imageAspect=0;image=data:image/webp,UklGRkoHAABXRUJQVlA4ID4HAACQLQCdASrEAMQAPj0ejUQiIaGTWWUEIAPEtJfe+GATn7pn9VGVn3c+CJmS9QLuF/tPy55lvqrr5vkfsAfx/+oehVpjer/Us/tX/I4ED9jin3VTnDf6OLHlVozcdtMAyLi478X3Ggns0map0etpAoZep12jbTT4M2Lc5Pzurvd+mfRDRY8NESYHBD2DGOUiWW+P7JiuYPAJtD5/XCnz/DdZ0UGIvBolin87jltkEBwR14yAGl/hzEh7FOwZ2QSO9SISDAshc6J/Ppi95HeVqCv9InKy9TrtS303UGJh5yg7Jj5Fs9YQCHRfFEcSJeXl08Sa89LXSUYn9JUyesJoOMS9Tk+4n91m5VjlYRhDFjrSZwNlEMcW/+VF4NEsUMFqTlmjDvTVI24UauPJoBC9RsGiWKfp1EDEGmOS5OwdJEvUa0kgashdmC6Z8bASy5MQObrm4uJ1XXZqP5Fpy79UIeiNiHHakMS8TjtqD5iGjJXA6ocpEqgAAP7+FLOHphy7fOdimVJL6JKP8r8yb/gTRULdaWY49mCxus4Or8dWIz10WePmI1cvwC/l0fDbDeXLC4lnUlBbnw6V6okBXKbEq8dJ1TbtpTdx+w7/8m3/cI3NN/gwhrdAT8QwY4tgITGOqOOB36ZiHiznwJUSTSXpyP3TwEmwp+N2f//S2ob/lycX4PxUVSVoJrVYMA8R7cP8+xnT8o7T8F/368UgpjTV9XRYksxTCIF/FpK6sj8CHDx0VRh/ba8gY9Ss0CefTE2nph/7ao/PNV8H5HZjwnt+FH2VP0iBRnCSm/sxXAzidsv2bI9q3UQoG9EHAbYEB+Iy4GUm1n+0/3iNJCH7oaAT7UzhGd4UdwL1eZZPSrRn/L8rBFGKSIfxupJ0Q3s7/uxjjwkSRaCXb9I645TESYeClkvfP1PgZxjQz2SO8XklvxMFCQEiBgahGXH9oUGA84cYN9Dk7A3x10/ZuAWk+O2yr0iHTdxSJdlq/1N7+0SfE1pUMOcuXlney3zv807ARcD9LTn92z+528WgEPXelV2Ti1CprLJUL1P3k9PDl0JO3i51ZUK4CLdLEFLIhSIEbdtkhS6FaTcYvU993IrlmCRa0eBo3NFkd7cHQP/N+HZum3AHxk3zMu+X9op4sN2evhuNxAY1dWIiDWdI726XKHuSVcnBYhOUhBUMrAG0JklaP5OrRgS4t7wqPXRLYPEhYyRQNXtAOm/J9zZm80uCt7uF48mgHeQET3WXb+UPrhHQuZKLzNAD9ZhrbS8HAL78jqTH2StFDiA7hEU7dHLq+a6qFClFhXe1U6E/Bmw6PZxf53/Hqu24p8vHv0QUdtkv6kSGidBslPRAykadNiTKUIx8epXu76zwvLLl+6cBBs+7Gz+YIB6eT7Yf632MoXqsBnki33o4sztGl3TIPupGznVYwIy7xXSR+PkXRhk3SatmnB2+pQfsJ5PLge3IXW8wACU/aNHk8trT9j/HXxzhd3fr0+b+brmFQpbbKIlYxhJKqe9I801bcW2AK9cJqoVHwMdfIFXXmAugHjrq9ru+btz52Mndng3en6FJRDQnXhQWNqLMp3lZNkz/kydisGzGluDAAAXa64W6AK8/XO0mP9JSVX/KabF/rSfR+o/U5tW4bOpB1Fsuc7qARUi0wSmFYNUqXvtA0F7NQ1xVXvarVetZ2H0bI1gb+4alyjtq+qmUvyt98/ORnbKaMFHswj+HT13950nDjh/quaAI38zH6B5Xf8TiE70H33R+v/8NrdCyQfCOumfU1bdnFsRjZ/CS04fNIVcuxAEO22/vs0h1C7LDyeIKPYozzhM+RnaoUEXi4/q93COrhW5wC+V/Y8fyFARxtZVi/ZkPHXaI0VPF//oefxIn/lKq32/PLts4J1+fjypFnsW787GphT2ar92qob2CHhWFUdYX+Iz4RAH1xC2PT/ltHn5eNLhOOmMyoihdT98jj+jKE7RMptJAJfhjC2qD59RuSbkiiImqyHrjMvlffMqSnruviGHI8sCnXvuh7kqryN9t0uQM1iW0tIgIfLZlrgQDogVybjzq/yvEm394LBKTJRh/4i4fvXQkz2wiEWcPTDsgMEUrVic3/xBL3C8miAw+1C6oJB4GoeYAACwmXEP87JJyFnVcCsrVy7Bn7KPtUQY+2UO7MA8PIbcJ2MBs77a9JvE66iz9EzEn6yUYILGJocc49UImNtMoFmT75nKk8uDM+LFRSq7Fr93M+6J5ylY+Werb/jz33/yfQI59phoQsxLkaj0G5PPaQGtb08mE/0vGy7FJqB9mnPZt8LmiLb3GtOC0rK3uME3Q5ZhDVeh53V++UXZeIT6dQtQ5RzxA7dDrMevhepGeuRe4jDuBu0Zb5d9eBXYtbieKhaVHcY4tk5G44exGaf+Bsi3GSaGV+Ib6ZlLv/mqxns7oZbAkj//N4ew4rdwFXg7tIdAFXwqPfaJofbqZ0wNbxTgAAAA=;" vertex="1" parent="1">
          <mxGeometry x="370" y="420" width="46" height="46" as="geometry"/>
        </mxCell>
        <mxCell id="gPfxByz2WxMvdibVRMh3-4" value="" style="shape=image;verticalLabelPosition=bottom;labelBackgroundColor=#ffffff;verticalAlign=top;aspect=fixed;imageAspect=0;image=data:image/webp,UklGRkoHAABXRUJQVlA4ID4HAACQLQCdASrEAMQAPj0ejUQiIaGTWWUEIAPEtJfe+GATn7pn9VGVn3c+CJmS9QLuF/tPy55lvqrr5vkfsAfx/+oehVpjer/Us/tX/I4ED9jin3VTnDf6OLHlVozcdtMAyLi478X3Ggns0map0etpAoZep12jbTT4M2Lc5Pzurvd+mfRDRY8NESYHBD2DGOUiWW+P7JiuYPAJtD5/XCnz/DdZ0UGIvBolin87jltkEBwR14yAGl/hzEh7FOwZ2QSO9SISDAshc6J/Ppi95HeVqCv9InKy9TrtS303UGJh5yg7Jj5Fs9YQCHRfFEcSJeXl08Sa89LXSUYn9JUyesJoOMS9Tk+4n91m5VjlYRhDFjrSZwNlEMcW/+VF4NEsUMFqTlmjDvTVI24UauPJoBC9RsGiWKfp1EDEGmOS5OwdJEvUa0kgashdmC6Z8bASy5MQObrm4uJ1XXZqP5Fpy79UIeiNiHHakMS8TjtqD5iGjJXA6ocpEqgAAP7+FLOHphy7fOdimVJL6JKP8r8yb/gTRULdaWY49mCxus4Or8dWIz10WePmI1cvwC/l0fDbDeXLC4lnUlBbnw6V6okBXKbEq8dJ1TbtpTdx+w7/8m3/cI3NN/gwhrdAT8QwY4tgITGOqOOB36ZiHiznwJUSTSXpyP3TwEmwp+N2f//S2ob/lycX4PxUVSVoJrVYMA8R7cP8+xnT8o7T8F/368UgpjTV9XRYksxTCIF/FpK6sj8CHDx0VRh/ba8gY9Ss0CefTE2nph/7ao/PNV8H5HZjwnt+FH2VP0iBRnCSm/sxXAzidsv2bI9q3UQoG9EHAbYEB+Iy4GUm1n+0/3iNJCH7oaAT7UzhGd4UdwL1eZZPSrRn/L8rBFGKSIfxupJ0Q3s7/uxjjwkSRaCXb9I645TESYeClkvfP1PgZxjQz2SO8XklvxMFCQEiBgahGXH9oUGA84cYN9Dk7A3x10/ZuAWk+O2yr0iHTdxSJdlq/1N7+0SfE1pUMOcuXlney3zv807ARcD9LTn92z+528WgEPXelV2Ti1CprLJUL1P3k9PDl0JO3i51ZUK4CLdLEFLIhSIEbdtkhS6FaTcYvU993IrlmCRa0eBo3NFkd7cHQP/N+HZum3AHxk3zMu+X9op4sN2evhuNxAY1dWIiDWdI726XKHuSVcnBYhOUhBUMrAG0JklaP5OrRgS4t7wqPXRLYPEhYyRQNXtAOm/J9zZm80uCt7uF48mgHeQET3WXb+UPrhHQuZKLzNAD9ZhrbS8HAL78jqTH2StFDiA7hEU7dHLq+a6qFClFhXe1U6E/Bmw6PZxf53/Hqu24p8vHv0QUdtkv6kSGidBslPRAykadNiTKUIx8epXu76zwvLLl+6cBBs+7Gz+YIB6eT7Yf632MoXqsBnki33o4sztGl3TIPupGznVYwIy7xXSR+PkXRhk3SatmnB2+pQfsJ5PLge3IXW8wACU/aNHk8trT9j/HXxzhd3fr0+b+brmFQpbbKIlYxhJKqe9I801bcW2AK9cJqoVHwMdfIFXXmAugHjrq9ru+btz52Mndng3en6FJRDQnXhQWNqLMp3lZNkz/kydisGzGluDAAAXa64W6AK8/XO0mP9JSVX/KabF/rSfR+o/U5tW4bOpB1Fsuc7qARUi0wSmFYNUqXvtA0F7NQ1xVXvarVetZ2H0bI1gb+4alyjtq+qmUvyt98/ORnbKaMFHswj+HT13950nDjh/quaAI38zH6B5Xf8TiE70H33R+v/8NrdCyQfCOumfU1bdnFsRjZ/CS04fNIVcuxAEO22/vs0h1C7LDyeIKPYozzhM+RnaoUEXi4/q93COrhW5wC+V/Y8fyFARxtZVi/ZkPHXaI0VPF//oefxIn/lKq32/PLts4J1+fjypFnsW787GphT2ar92qob2CHhWFUdYX+Iz4RAH1xC2PT/ltHn5eNLhOOmMyoihdT98jj+jKE7RMptJAJfhjC2qD59RuSbkiiImqyHrjMvlffMqSnruviGHI8sCnXvuh7kqryN9t0uQM1iW0tIgIfLZlrgQDogVybjzq/yvEm394LBKTJRh/4i4fvXQkz2wiEWcPTDsgMEUrVic3/xBL3C8miAw+1C6oJB4GoeYAACwmXEP87JJyFnVcCsrVy7Bn7KPtUQY+2UO7MA8PIbcJ2MBs77a9JvE66iz9EzEn6yUYILGJocc49UImNtMoFmT75nKk8uDM+LFRSq7Fr93M+6J5ylY+Werb/jz33/yfQI59phoQsxLkaj0G5PPaQGtb08mE/0vGy7FJqB9mnPZt8LmiLb3GtOC0rK3uME3Q5ZhDVeh53V++UXZeIT6dQtQ5RzxA7dDrMevhepGeuRe4jDuBu0Zb5d9eBXYtbieKhaVHcY4tk5G44exGaf+Bsi3GSaGV+Ib6ZlLv/mqxns7oZbAkj//N4ew4rdwFXg7tIdAFXwqPfaJofbqZ0wNbxTgAAAA=;" vertex="1" parent="1">
          <mxGeometry x="300" y="430" width="46" height="46" as="geometry"/>
        </mxCell>
        <mxCell id="gPfxByz2WxMvdibVRMh3-5" value="" style="shape=image;verticalLabelPosition=bottom;labelBackgroundColor=#ffffff;verticalAlign=top;aspect=fixed;imageAspect=0;image=data:image/webp,UklGRkoHAABXRUJQVlA4ID4HAACQLQCdASrEAMQAPj0ejUQiIaGTWWUEIAPEtJfe+GATn7pn9VGVn3c+CJmS9QLuF/tPy55lvqrr5vkfsAfx/+oehVpjer/Us/tX/I4ED9jin3VTnDf6OLHlVozcdtMAyLi478X3Ggns0map0etpAoZep12jbTT4M2Lc5Pzurvd+mfRDRY8NESYHBD2DGOUiWW+P7JiuYPAJtD5/XCnz/DdZ0UGIvBolin87jltkEBwR14yAGl/hzEh7FOwZ2QSO9SISDAshc6J/Ppi95HeVqCv9InKy9TrtS303UGJh5yg7Jj5Fs9YQCHRfFEcSJeXl08Sa89LXSUYn9JUyesJoOMS9Tk+4n91m5VjlYRhDFjrSZwNlEMcW/+VF4NEsUMFqTlmjDvTVI24UauPJoBC9RsGiWKfp1EDEGmOS5OwdJEvUa0kgashdmC6Z8bASy5MQObrm4uJ1XXZqP5Fpy79UIeiNiHHakMS8TjtqD5iGjJXA6ocpEqgAAP7+FLOHphy7fOdimVJL6JKP8r8yb/gTRULdaWY49mCxus4Or8dWIz10WePmI1cvwC/l0fDbDeXLC4lnUlBbnw6V6okBXKbEq8dJ1TbtpTdx+w7/8m3/cI3NN/gwhrdAT8QwY4tgITGOqOOB36ZiHiznwJUSTSXpyP3TwEmwp+N2f//S2ob/lycX4PxUVSVoJrVYMA8R7cP8+xnT8o7T8F/368UgpjTV9XRYksxTCIF/FpK6sj8CHDx0VRh/ba8gY9Ss0CefTE2nph/7ao/PNV8H5HZjwnt+FH2VP0iBRnCSm/sxXAzidsv2bI9q3UQoG9EHAbYEB+Iy4GUm1n+0/3iNJCH7oaAT7UzhGd4UdwL1eZZPSrRn/L8rBFGKSIfxupJ0Q3s7/uxjjwkSRaCXb9I645TESYeClkvfP1PgZxjQz2SO8XklvxMFCQEiBgahGXH9oUGA84cYN9Dk7A3x10/ZuAWk+O2yr0iHTdxSJdlq/1N7+0SfE1pUMOcuXlney3zv807ARcD9LTn92z+528WgEPXelV2Ti1CprLJUL1P3k9PDl0JO3i51ZUK4CLdLEFLIhSIEbdtkhS6FaTcYvU993IrlmCRa0eBo3NFkd7cHQP/N+HZum3AHxk3zMu+X9op4sN2evhuNxAY1dWIiDWdI726XKHuSVcnBYhOUhBUMrAG0JklaP5OrRgS4t7wqPXRLYPEhYyRQNXtAOm/J9zZm80uCt7uF48mgHeQET3WXb+UPrhHQuZKLzNAD9ZhrbS8HAL78jqTH2StFDiA7hEU7dHLq+a6qFClFhXe1U6E/Bmw6PZxf53/Hqu24p8vHv0QUdtkv6kSGidBslPRAykadNiTKUIx8epXu76zwvLLl+6cBBs+7Gz+YIB6eT7Yf632MoXqsBnki33o4sztGl3TIPupGznVYwIy7xXSR+PkXRhk3SatmnB2+pQfsJ5PLge3IXW8wACU/aNHk8trT9j/HXxzhd3fr0+b+brmFQpbbKIlYxhJKqe9I801bcW2AK9cJqoVHwMdfIFXXmAugHjrq9ru+btz52Mndng3en6FJRDQnXhQWNqLMp3lZNkz/kydisGzGluDAAAXa64W6AK8/XO0mP9JSVX/KabF/rSfR+o/U5tW4bOpB1Fsuc7qARUi0wSmFYNUqXvtA0F7NQ1xVXvarVetZ2H0bI1gb+4alyjtq+qmUvyt98/ORnbKaMFHswj+HT13950nDjh/quaAI38zH6B5Xf8TiE70H33R+v/8NrdCyQfCOumfU1bdnFsRjZ/CS04fNIVcuxAEO22/vs0h1C7LDyeIKPYozzhM+RnaoUEXi4/q93COrhW5wC+V/Y8fyFARxtZVi/ZkPHXaI0VPF//oefxIn/lKq32/PLts4J1+fjypFnsW787GphT2ar92qob2CHhWFUdYX+Iz4RAH1xC2PT/ltHn5eNLhOOmMyoihdT98jj+jKE7RMptJAJfhjC2qD59RuSbkiiImqyHrjMvlffMqSnruviGHI8sCnXvuh7kqryN9t0uQM1iW0tIgIfLZlrgQDogVybjzq/yvEm394LBKTJRh/4i4fvXQkz2wiEWcPTDsgMEUrVic3/xBL3C8miAw+1C6oJB4GoeYAACwmXEP87JJyFnVcCsrVy7Bn7KPtUQY+2UO7MA8PIbcJ2MBs77a9JvE66iz9EzEn6yUYILGJocc49UImNtMoFmT75nKk8uDM+LFRSq7Fr93M+6J5ylY+Werb/jz33/yfQI59phoQsxLkaj0G5PPaQGtb08mE/0vGy7FJqB9mnPZt8LmiLb3GtOC0rK3uME3Q5ZhDVeh53V++UXZeIT6dQtQ5RzxA7dDrMevhepGeuRe4jDuBu0Zb5d9eBXYtbieKhaVHcY4tk5G44exGaf+Bsi3GSaGV+Ib6ZlLv/mqxns7oZbAkj//N4ew4rdwFXg7tIdAFXwqPfaJofbqZ0wNbxTgAAAA=;" vertex="1" parent="1">
          <mxGeometry x="220" y="440" width="46" height="46" as="geometry"/>
        </mxCell>
      </root>
    </mxGraphModel>
  </diagram>
</mxfile>
